{
.appVersion = "3326";
.formatVersion = 3;
DisplayStrings = (
"HHH
HHH
HHH
AÄÆBCDEFGHIJKLMNOÖŒPQRSTUÜVWXYZaäæbcdefghijklmnoöpqrsßtuüvwxyz/s.hist/c_t/f_f/f_i/s_t/s_i.hist/s_s.hist/s_t.hist  .,:;*-&̈/_source"
);
axes = (
{
name = "Optical size";
tag = opsz;
}
);
date = "2024-11-02 11:29:09 +0000";
familyName = Groote;
featurePrefixes = (
{
automatic = 1;
code = "languagesystem DFLT dflt;
";
name = Languagesystems;
}
);
features = (
{
automatic = 1;
code = "feature hist;
";
tag = aalt;
},
{
automatic = 1;
code = "sub s by s.hist;
sub s_t by s_t.hist;
";
tag = hist;
},
{
automatic = 1;
code = "lookupflag IgnoreMarks;
sub c t by c_t;
sub s t by s_t;
";
tag = dlig;
},
{
automatic = 1;
code = "lookupflag IgnoreMarks;
sub f f by f_f;
sub f i by f_i;
";
tag = liga;
}
);
fontMaster = (
{
axesValues = (
26
);
iconName = Light_Condensed;
id = "574E12B0-2418-4D16-BF3A-251D49665871";
metricValues = (
{
over = 12;
pos = 700;
},
{
over = 12;
pos = 700;
},
{
over = 12;
pos = 425;
},
{
over = -12;
},
{
over = -12;
pos = -150;
},
{
}
);
name = "Romyn-26";
stemValues = (
18,
82
);
},
{
axesValues = (
18
);
customParameters = (
{
name = unitizerUnit;
value = 9.09169;
}
);
iconName = SemiLight_SemiCondensed;
id = m01;
metricValues = (
{
over = 12;
pos = 700;
},
{
over = 12;
pos = 700;
},
{
over = 12;
pos = 435;
},
{
over = -12;
},
{
over = -12;
pos = -150;
},
{
}
);
name = "Romyn-18";
stemValues = (
28,
81
);
userData = {
GSOffsetHorizontal = 4;
GSOffsetVertical = 4;
};
},
{
axesValues = (
10
);
customParameters = (
{
name = unitizerUnit;
value = 9.08995;
}
);
iconName = SemiExtended;
id = m002;
metricValues = (
{
over = 12;
pos = 700;
},
{
over = 12;
pos = 700;
},
{
over = 12;
pos = 445;
},
{
over = -12;
},
{
over = -12;
pos = -150;
},
{
}
);
name = "Romyn-10";
stemValues = (
37,
80
);
userData = {
GSOffsetHorizontal = 4;
GSOffsetVertical = 4;
};
},
{
axesValues = (
4
);
iconName = Bold_Extended;
id = "CDB87FEA-4563-478E-BFE6-62102BA6A3F2";
metricValues = (
{
over = 12;
pos = 700;
},

glyphs = (
{
glyphname = A;
lastChange = "2024-11-11 17:30:14 +0000";
layers = (
{
anchors = (
{
name = bottom;
pos = (394,0);
},
{
name = ogonek;
pos = (708,10);
},
{
name = top;
pos = (394,700);
}
);
layerId = m01;
shapes = (
{
closed = 1;
nodes = (
(769,0,l),
(769,28,l),
(763,28,l),
(730,28,o),
(684,72,o),
(662,134,cs),
(468,679,l),
(458,719,l),
(447,728,l),
(426,716,o),
(381,704,o),
(339,700,c),
(339,666,l),
(371,659,l),
(467,388,o),
(550,152,o),
(571,89,cs),
(582,52,o),
(565,26,o),
(531,26,cs),
(468,26,l),
(468,-2,l)
);
},
{
closed = 1;
nodes = (
(317,1,l),
(317,28,l),
(310,28,o),
(315,29,o),
(297,29,cs),
(244,29,o),
(213,59,o),
(222,101,c),
(385,660,l),
(342,686,l),
(273,480,o),
(201,240,o),
(168,105,cs),
(157,60,o),
(119,29,o),
(76,29,cs),
(18,29,l),
(18,1,l)
);
},
{
closed = 1;
nodes = (
(565,288,l),
(565,338,l),
(253,338,l),
(253,288,l)
);
}
);
width = 787;
},
{
anchors = (
{
name = bottom;
pos = (397,0);
},
{
name = ogonek;
pos = (714,10);
},
{
name = top;
pos = (397,700);
}
);
layerId = m002;
shapes = (
{
closed = 1;
nodes = (
(772,0,l),
(772,38,l),
(766,38,l),
(733,38,o),
(687,82,o),
(665,144,cs),
(471,679,l),
(461,719,l),
(450,728,l),
(429,716,o),
(384,704,o),
(342,700,c),
(342,666,l),
(374,659,l),
(470,388,o),
(553,162,o),
(574,99,cs),
(585,62,o),
(568,36,o),
(534,36,cs),
(471,36,l),
(471,-2,l)
);
},
{
closed = 1;
nodes = (
(320,1,l),
(320,38,l),
(313,38,o),
(318,39,o),
(300,39,cs),
(247,39,o),
(216,69,o),
(225,111,c),
(388,660,l),
(345,686,l),
(276,480,o),
(204,250,o),
(171,115,cs),
(160,70,o),
(122,39,o),
(79,39,cs),
(21,39,l),
(21,1,l)
);
},
{
closed = 1;
nodes = (
(568,288,l),
(568,333,l),
(256,333,l),
(256,288,l)
);
}
);
width = 793;
},
{
anchors = (
{
name = bottom;
pos = (399,0);
},
{
name = ogonek;
pos = (718,10);
},
{
name = top;
pos = (399,700);
}
);
layerId = "CDB87FEA-4563-478E-BFE6-62102BA6A3F2";
shapes = (
{
closed = 1;
nodes = (
(774,0,l),
(774,46,l),
(768,46,ls),
(735,46,o),
(689,90,o),
(667,152,cs),
(473,679,l),
(463,719,l),
(452,728,l),
(431,716,o),
(386,704,o),
(344,700,c),
(344,666,l),
(376,659,l),
(472,388,o),
(555,170,o),
(576,107,cs),
(587,70,o),
(570,44,o),
(536,44,cs),
(473,44,l),
(473,-2,l)
);
},
{
closed = 1;
nodes = (
(322,1,l),
(322,46,l),
(315,46,o),
(320,47,o),
(302,47,cs),
(249,47,o),
(218,77,o),
(227,119,c),
(390,660,l),
(347,686,l),
(278,480,o),
(206,258,o),
(173,123,cs),
(162,78,o),
(124,47,o),
(81,47,cs),
(23,47,l),
(23,1,l)
);
},
{
closed = 1;
nodes = (
(570,288,l),
(570,329,l),
(258,329,l),
(258,288,l)
);
}
);
width = 798;
},
{
anchors = (
{
name = bottom;
pos = (391,0);
},
{
name = ogonek;
pos = (703,10);
},
{
name = top;
pos = (391,700);
}
);
layerId = "574E12B0-2418-4D16-BF3A-251D49665871";
shapes = (
{
closed = 1;
nodes = (
(766,0,l),
(766,18,l),
(760,18,ls),
(727,18,o),
(681,62,o),
(659,124,cs),
(465,679,l),
(455,719,l),
(444,728,l),
(423,716,o),
(378,704,o),
(336,700,c),
(336,666,l),
(368,659,l),
(464,388,o),
(547,142,o),
(568,79,cs),
(579,42,o),
(562,16,o),
(528,16,cs),
(465,16,l),
(465,-2,l)
);
},
{
closed = 1;
nodes = (
(314,1,l),
(314,18,l),
(307,18,o),
(312,19,o),
(294,19,cs),
(241,19,o),
(210,49,o),
(219,91,c),
(382,660,l),
(339,686,l),
(270,480,o),
(198,230,o),
(165,95,cs),
(154,50,o),
(116,19,o),
(73,19,cs),
(15,19,l),
(15,1,l)
);
},
{
closed = 1;
nodes = (
(562,288,l),
(562,343,l),
(250,343,l),
(250,288,l)
);
}
);
width = 781;
}
);
unicode = 65;
},
{
glyphname = AE;
lastChange = "2024-11-11 17:30:14 +0000";
layers = (
{
anchors = (
{
name = bottom;
pos = (494,0);
},
{
name = top;
pos = (494,700);
}
);
layerId = m01;
shapes = (
{
closed = 1;
nodes = (
(850,0,l),
(943,131,l),
(922,149,l),
(860,82,o),
(805,34,o),
(776,34,cs),
(733,34,o),
(665,34,o),
(644,34,cs),
(607,34,o),
(580,56,o),
(580,86,cs),
(580,116,o),
(580,623,o),
(580,635,cs),
(580,653,o),
(604,665,o),
(637,665,cs),
(657,665,o),
(701,665,o),
(718,665,cs),
(759,665,o),
(817,613,o),
(859,539,c),
(883,552,l),
(816,700,l),
(717,700,o),
(630,698,o),
(531,698,cs),
(483,698,o),
(324,700,o),
(271,700,c),
(271,672,l),
(322,672,o),
(395,672,o),
(423,672,cs),
(456,672,o),
(480,661,o),
(480,633,cs),
(480,559,o),
(480,147,o),
(480,106,cs),
(480,60,o),
(459,28,o),
(429,28,cs),
(397,28,l),
(397,0,l),
(438,0,o),
(490,2,o),
(526,2,cs),
(562,2,o),
(650,-2,o),
(690,-2,cs)
);
},
{
closed = 1;
nodes = (
(304,0,l),
(304,28,l),
(286,28,l),
(248,28,o),
(220,58,o),
(234,98,c),
(471,686,l),
(437,689,l),
(288,371,o),
(210,212,o),
(184,156,cs),
(150,83,o),
(94,28,o),
(45,28,cs),
(18,28,l),
(18,0,l)
);
},
{
closed = 1;
nodes = (
(800,200,l),
(796,271,o),
(796,371,o),
(800,442,c),
(772,442,l),
(772,379,o),
(746,334,o),
(709,334,cs),
(290,334,l),
(289,304,l),
(352,304,o),
(684,304,o),
(709,304,cs),
(746,304,o),
(773,261,o),
(773,200,c)
);
}
);
width = 988;
},
{
anchors = (
{
name = bottom;
pos = (497,0);
},
{
name = top;
pos = (497,700);
}
);
layerId = m002;
shapes = (
{
closed = 1;
nodes = (
(853,0,l),
(946,131,l),
(915,149,l),
(853,82,o),
(808,44,o),
(779,44,cs),
(736,44,o),
(668,44,o),
(647,44,cs),
(610,44,o),
(583,66,o),
(583,96,cs),
(583,126,o),
(583,613,o),
(583,625,cs),
(583,643,o),
(607,655,o),
(640,655,cs),
(660,655,o),
(704,655,o),
(721,655,cs),
(762,655,o),
(810,613,o),
(852,539,c),
(886,552,l),
(819,700,l),
(720,700,o),
(633,698,o),
(534,698,cs),
(486,698,o),
(327,700,o),
(274,700,c),
(274,662,l),
(325,662,o),
(398,662,o),
(426,662,cs),
(459,662,o),
(483,651,o),
(483,623,cs),
(483,549,o),
(483,157,o),
(483,116,cs),
(483,70,o),
(462,38,o),
(432,38,cs),
(400,38,l),
(400,0,l),
(441,0,o),
(493,2,o),
(529,2,cs),
(565,2,o),
(653,-2,o),
(693,-2,cs)
);
},
{
closed = 1;
nodes = (
(307,0,l),
(307,38,l),
(289,38,l),
(251,38,o),
(223,68,o),
(237,108,c),
(484,686,l),
(440,689,l),
(291,371,o),
(213,222,o),
(187,166,cs),
(153,93,o),
(97,38,o),
(48,38,cs),
(21,38,l),
(21,0,l)
);
},
{
closed = 1;
nodes = (
(808,200,l),
(804,271,o),
(804,371,o),
(808,442,c),
(775,442,l),
(775,379,o),
(749,344,o),
(712,344,cs),
(293,344,l),
(292,299,l),
(355,299,o),
(687,299,o),
(712,299,cs),
(749,299,o),
(776,261,o),
(776,200,c)
);
}
);
width = 994;
},
{
anchors = (
{
name = bottom;
pos = (500,0);
},
{
name = top;
pos = (500,700);
}
);
layerId = "CDB87FEA-4563-478E-BFE6-62102BA6A3F2";
shapes = (
{
closed = 1;
nodes = (
(855,0,l),
(948,131,l),
(910,149,l),
(848,82,o),
(810,52,o),
(781,52,cs),
(738,52,o),
(670,52,o),
(649,52,cs),
(612,52,o),
(585,74,o),
(585,104,cs),
(585,134,o),
(585,606,o),
(585,618,cs),
(585,636,o),
(609,648,o),
(642,648,cs),
(662,648,o),
(706,648,o),
(723,648,cs),
(764,648,o),
(805,613,o),
(847,539,c),
(888,552,l),
(821,700,l),
(722,700,o),
(635,698,o),
(536,698,cs),
(488,698,o),
(329,700,o),
(276,700,c),
(276,655,l),
(327,655,o),
(400,655,o),
(428,655,cs),
(461,655,o),
(485,644,o),
(485,616,cs),
(485,542,o),
(485,165,o),
(485,124,cs),
(485,78,o),
(464,46,o),
(434,46,cs),
(402,46,l),
(402,0,l),
(443,0,o),
(495,2,o),
(531,2,cs),
(567,2,o),
(655,-2,o),
(695,-2,cs)
);
},
{
closed = 1;
nodes = (
(309,0,l),
(309,46,l),
(291,46,ls),
(253,46,o),
(225,76,o),
(239,116,c),
(494,686,l),
(442,689,l),
(293,371,o),
(215,230,o),
(189,174,cs),
(155,101,o),
(99,46,o),
(50,46,cs),
(23,46,l),
(23,0,l)
);
},
{
closed = 1;
nodes = (
(814,200,l),
(810,271,o),
(810,371,o),
(814,442,c),
(777,442,l),
(777,379,o),
(751,352,o),
(714,352,cs),
(295,352,l),
(294,295,l),
(357,295,o),
(689,295,o),
(714,295,cs),
(751,295,o),
(778,261,o),
(778,200,c)
);
}
);
width = 999;
},
{
anchors = (
{
name = bottom;
pos = (491,0);
},
{
name = top;
pos = (491,700);
}
);
layerId = "574E12B0-2418-4D16-BF3A-251D49665871";
shapes = (
{
closed = 1;
nodes = (
(847,0,l),
(940,131,l),
(929,149,l),
(867,82,o),
(802,24,o),
(773,24,cs),
(730,24,o),
(662,24,o),
(641,24,cs),
(604,24,o),
(577,46,o),
(577,76,cs),
(577,106,o),
(577,633,o),
(577,645,cs),
(577,663,o),
(601,675,o),
(634,675,cs),
(654,675,o),
(698,675,o),
(715,675,cs),
(756,675,o),
(824,613,o),
(866,539,c),
(880,552,l),
(813,700,l),
(714,700,o),
(627,698,o),
(528,698,cs),
(480,698,o),
(321,700,o),
(268,700,c),
(268,682,l),
(319,682,o),
(392,682,o),
(420,682,cs),
(453,682,o),
(477,671,o),
(477,643,cs),
(477,569,o),
(477,137,o),
(477,96,cs),
(477,50,o),
(456,18,o),
(426,18,cs),
(394,18,l),
(394,0,l),
(435,0,o),
(487,2,o),
(523,2,cs),
(559,2,o),
(647,-2,o),
(687,-2,cs)
);
},
{
closed = 1;
nodes = (
(301,0,l),
(301,18,l),
(283,18,ls),
(245,18,o),
(217,48,o),
(231,88,cs),
(458,686,l),
(434,689,l),
(285,371,o),
(207,202,o),
(181,146,cs),
(147,73,o),
(91,18,o),
(42,18,cs),
(15,18,l),
(15,0,l)
);
},
{
closed = 1;
nodes = (
(792,200,l),
(788,271,o),
(788,371,o),
(792,442,c),
(769,442,l),
(769,379,o),
(743,324,o),
(706,324,cs),
(287,324,l),
(286,309,l),
(349,309,o),
(681,309,o),
(706,309,cs),
(743,309,o),
(770,261,o),
(770,200,c)
);
}
);
width = 982;
}
);
metricLeft = A;
metricRight = E;
unicode = 198;
},
{
glyphname = B;
lastChange = "2024-11-11 17:30:14 +0000";
layers = (
{
anchors = (
{
name = bottom;
pos = (338,0);
},
{
name = center;
pos = (169,175);
},
{
name = top;
pos = (338,700);
}
);
layerId = m01;
shapes = (
{
closed = 1;
nodes = (
(72,0,o),
(108,2,o),
(158,2,cs),
(210,2,o),
(335,0,o),
(387,0,cs),
(523,0,o),
(620,78,o),
(620,188,cs),
(620,299,o),
(505,377,o),
(343,377,cs),
(190,377,l),
(190,336,l),
(241,336,o),
(300,336,o),
(343,336,cs),
(429,336,o),
(490,273,o),
(490,185,cs),
(490,95,o),
(434,31,o),
(356,31,cs),
(282,31,o),
(227,57,o),
(227,94,cs),
(227,669,l),
(256,669,o),
(302,669,o),
(333,669,cs),
(407,669,o),
(459,609,o),
(459,523,cs),
(459,437,o),
(392,377,o),
(297,377,c),
(297,344,l),
(461,344,o),
(577,426,o),
(577,541,cs),
(577,629,o),
(478,694,o),
(339,699,cs),
(343,698,o),
(274,698,o),
(174,698,cs),
(146,698,o),
(39,700,o),
(22,700,c),
(22,672,l),
(31,672,o),
(37,672,o),
(48,672,cs),
(94,672,o),
(127,647,o),
(127,611,cs),
(127,562,o),
(127,104,o),
(127,71,cs),
(127,46,o),
(102,28,o),
(67,28,cs),
(30,28,l),
(30,0,l)
);
}
);
width = 675;
},
{
anchors = (
{
name = bottom;
pos = (341,0);
},
{
name = center;
pos = (170,175);
},
{
name = top;
pos = (341,700);
}
);
layerId = m002;
shapes = (
{
closed = 1;
nodes = (
(75,0,o),
(111,2,o),
(161,2,cs),
(213,2,o),
(338,0,o),
(390,0,cs),
(526,0,o),
(623,78,o),
(623,188,cs),
(623,299,o),
(508,382,o),
(346,382,cs),
(193,382,l),
(193,331,l),
(244,331,o),
(303,331,o),
(346,331,cs),
(432,331,o),
(493,273,o),
(493,185,cs),
(493,95,o),
(437,41,o),
(359,41,cs),
(285,41,o),
(230,67,o),
(230,104,cs),
(230,659,l),
(259,659,o),
(305,659,o),
(336,659,cs),
(410,659,o),
(462,609,o),
(462,523,cs),
(462,437,o),
(395,382,o),
(300,382,c),
(300,339,l),
(464,339,o),
(580,426,o),
(580,541,cs),
(580,629,o),
(481,694,o),
(342,699,cs),
(346,698,o),
(277,698,o),
(177,698,cs),
(149,698,o),
(42,700,o),
(25,700,c),
(25,662,l),
(34,662,o),
(40,662,o),
(51,662,cs),
(97,662,o),
(130,647,o),
(130,611,cs),
(130,562,o),
(130,104,o),
(130,71,cs),
(130,46,o),
(105,38,o),
(70,38,cs),
(33,38,l),
(33,0,l)
);
}
);
width = 681;
},
{
anchors = (
{
name = bottom;
pos = (343,0);
},
{
name = center;
pos = (172,175);
},
{
name = top;
pos = (343,700);
}
);
layerId = "CDB87FEA-4563-478E-BFE6-62102BA6A3F2";
shapes = (
{
closed = 1;
nodes = (
(77,0,o),
(113,2,o),
(163,2,cs),
(215,2,o),
(340,0,o),
(392,0,cs),
(528,0,o),
(625,78,o),
(625,188,cs),
(625,299,o),
(510,386,o),
(348,386,cs),
(195,386,l),
(195,327,l),
(246,327,o),
(305,327,o),
(348,327,cs),
(434,327,o),
(495,273,o),
(495,185,cs),
(495,95,o),
(439,49,o),
(361,49,cs),
(287,49,o),
(232,75,o),
(232,112,cs),
(232,652,l),
(261,652,o),
(307,652,o),
(338,652,cs),
(412,652,o),
(464,609,o),
(464,523,cs),
(464,437,o),
(397,386,o),
(302,386,c),
(302,335,l),
(466,335,o),
(582,426,o),
(582,541,cs),
(582,629,o),
(483,694,o),
(344,699,c),
(348,698,o),
(279,698,o),
(179,698,cs),
(151,698,o),
(44,700,o),
(27,700,c),
(27,655,l),
(36,655,o),
(42,655,o),
(53,655,cs),
(99,655,o),
(132,647,o),
(132,611,cs),
(132,562,o),
(132,104,o),
(132,71,cs),
(132,46,o),
(107,46,o),
(72,46,cs),
(35,46,l),
(35,0,l)
);
}
);
width = 686;
},
{
anchors = (
{
name = bottom;
pos = (335,0);
},
{
name = center;
pos = (167,175);
},
{
name = top;
pos = (335,700);
}
);
layerId = "574E12B0-2418-4D16-BF3A-251D49665871";
shapes = (
{
closed = 1;
nodes = (
(69,0,o),
(105,2,o),
(155,2,cs),
(207,2,o),
(332,0,o),
(384,0,cs),
(520,0,o),
(617,78,o),
(617,188,cs),
(617,299,o),
(502,372,o),
(340,372,cs),
(187,372,l),
(187,341,l),
(238,341,o),
(297,341,o),
(340,341,cs),
(426,341,o),
(487,273,o),
(487,185,cs),
(487,95,o),
(431,21,o),
(353,21,cs),
(279,21,o),
(224,47,o),
(224,84,cs),
(224,679,l),
(253,679,o),
(299,679,o),
(330,679,cs),
(404,679,o),
(456,609,o),
(456,523,cs),
(456,437,o),
(389,372,o),
(294,372,c),
(294,349,l),
(458,349,o),
(574,426,o),
(574,541,cs),
(574,629,o),
(475,694,o),
(336,699,c),
(340,698,o),
(271,698,o),
(171,698,cs),
(143,698,o),
(36,700,o),
(19,700,c),
(19,682,l),
(28,682,o),
(34,682,o),
(45,682,cs),
(91,682,o),
(124,647,o),
(124,611,cs),
(124,562,o),
(124,104,o),
(124,71,cs),
(124,46,o),
(99,18,o),
(64,18,cs),
(27,18,l),
(27,0,l)
);
}
);
width = 669;
}
);
metricLeft = n;
metricRight = o;
unicode = 66;
},
{
glyphname = C;
lastChange = "2024-11-11 17:30:14 +0000";
layers = (
{
anchors = (
{
name = bottom;
pos = (408,0);
},
{
name = top;
pos = (408,700);
}
);
layerId = m01;
shapes = (
{
closed = 1;
nodes = (
(565,-8,o),
(690,44,o),
(749,118,c),
(752,249,l),
(729,251,l),
(716,124,o),
(614,34,o),
(483,34,cs),
(317,34,o),
(190,192,o),
(190,415,cs),
(190,574,o),
(297,687,o),
(433,687,cs),
(560,687,o),
(667,624,o),
(690,536,c),
(714,536,l),
(704,707,l),
(677,707,l),
(672,689,o),
(661,677,o),
(651,677,c),
(606,705,o),
(520,725,o),
(444,725,cs),
(221,725,o),
(64,573,o),
(64,359,cs),
(64,144,o),
(223,-8,o),
(448,-8,cs)
);
}
);
width = 816;
},
{
anchors = (
{
name = bottom;
pos = (411,0);
},
{
name = top;
pos = (411,700);
}
);
layerId = m002;
shapes = (
{
closed = 1;
nodes = (
(568,-8,o),
(693,44,o),
(752,118,c),
(755,259,l),
(732,261,l),
(719,134,o),
(617,44,o),
(486,44,cs),
(320,44,o),
(193,192,o),
(193,415,cs),
(193,574,o),
(300,677,o),
(436,677,cs),
(563,677,o),
(670,614,o),
(693,526,c),
(717,526,l),
(707,707,l),
(680,707,l),
(675,689,o),
(664,677,o),
(654,677,c),
(609,705,o),
(523,725,o),
(447,725,cs),
(224,725,o),
(67,573,o),
(67,359,cs),
(67,144,o),
(226,-8,o),
(451,-8,cs)
);
}
);
width = 822;
},
{
anchors = (
{
name = bottom;
pos = (414,0);
},
{
name = top;
pos = (414,700);
}
);
layerId = "CDB87FEA-4563-478E-BFE6-62102BA6A3F2";
shapes = (
{
closed = 1;
nodes = (
(570,-8,o),
(695,44,o),
(754,118,c),
(757,267,l),
(734,269,l),
(721,142,o),
(619,52,o),
(488,52,cs),
(322,52,o),
(195,192,o),
(195,415,cs),
(195,574,o),
(302,670,o),
(438,670,cs),
(565,670,o),
(672,607,o),
(695,519,c),
(719,519,l),
(709,707,l),
(682,707,l),
(677,689,o),
(666,677,o),
(656,677,c),
(611,705,o),
(525,725,o),
(449,725,cs),
(226,725,o),
(69,573,o),
(69,359,cs),
(69,144,o),
(228,-8,o),
(453,-8,cs)
);
}
);
width = 827;
},
{
anchors = (
{
name = bottom;
pos = (405,0);
},
{
name = top;
pos = (405,700);
}
);
layerId = "574E12B0-2418-4D16-BF3A-251D49665871";
shapes = (
{
closed = 1;
nodes = (
(562,-8,o),
(687,44,o),
(746,118,c),
(749,239,l),
(726,241,l),
(713,114,o),
(611,24,o),
(480,24,cs),
(314,24,o),
(187,192,o),
(187,415,cs),
(187,574,o),
(294,697,o),
(430,697,cs),
(557,697,o),
(664,634,o),
(687,546,c),
(711,546,l),
(701,707,l),
(674,707,l),
(669,689,o),
(658,677,o),
(648,677,c),
(603,705,o),
(517,725,o),
(441,725,cs),
(218,725,o),
(61,573,o),
(61,359,cs),
(61,144,o),
(220,-8,o),
(445,-8,cs)
);
}
);
width = 810;
}
);
unicode = 67;
},
{
glyphname = D;
lastChange = "2024-11-11 17:30:14 +0000";
layers = (
{
anchors = (
{
name = bottom;
pos = (409,0);
},
{
name = center;
pos = (204,350);
},
{
name = top;
pos = (409,700);
}
);
layerId = m01;
shapes = (
{
closed = 1;
nodes = (
(51,-1,o),
(128,0,o),
(173,0,cs),
(231,0,o),
(303,-3,o),
(370,-3,cs),
(594,-3,o),
(753,160,o),
(753,390,cs),
(753,573,o),
(608,702,o),
(402,702,cs),
(340,702,o),
(198,700,o),
(168,700,cs),
(138,700,o),
(86,702,o),
(72,702,cs),
(-1,702,l),
(-1,672,l),
(12,672,o),
(12,672,o),
(39,672,cs),
(90,672,o),
(127,636,o),
(127,586,cs),
(127,519,o),
(127,163,o),
(127,132,cs),
(127,71,o),
(84,27,o),
(25,27,cs),
(-11,27,l),
(-11,-3,l)
);
},
{
closed = 1;
nodes = (
(290,32,o),
(227,63,o),
(227,107,cs),
(227,666,l),
(272,666,o),
(334,666,o),
(370,666,cs),
(513,666,o),
(625,546,o),
(625,368,cs),
(625,168,o),
(516,32,o),
(377,32,cs)
);
}
);
width = 817;
},
{
anchors = (
{
name = bottom;
pos = (412,0);
},
{
name = center;
pos = (206,350);
},
{
name = top;
pos = (412,700);
}
);
layerId = m002;
shapes = (
{
closed = 1;
nodes = (
(54,-1,o),
(131,0,o),
(176,0,cs),
(234,0,o),
(306,-3,o),
(373,-3,cs),
(597,-3,o),
(756,160,o),
(756,390,cs),
(756,573,o),
(611,702,o),
(405,702,cs),
(343,702,o),
(201,700,o),
(171,700,cs),
(141,700,o),
(89,702,o),
(75,702,cs),
(2,702,l),
(2,662,l),
(15,662,o),
(15,662,o),
(42,662,cs),
(93,662,o),
(130,636,o),
(130,586,cs),
(130,519,o),
(130,163,o),
(130,132,cs),
(130,71,o),
(87,37,o),
(28,37,cs),
(-8,37,l),
(-8,-3,l)
);
},
{
closed = 1;
nodes = (
(293,42,o),
(230,63,o),
(230,107,cs),
(230,656,l),
(275,656,o),
(337,656,o),
(373,656,cs),
(516,656,o),
(628,546,o),
(628,368,cs),
(628,168,o),
(519,42,o),
(380,42,cs)
);
}
);
width = 823;
},
{
anchors = (
{
name = bottom;
pos = (414,0);
},
{
name = center;
pos = (207,350);
},
{
name = top;
pos = (414,700);
}
);
layerId = "CDB87FEA-4563-478E-BFE6-62102BA6A3F2";
shapes = (
{
closed = 1;
nodes = (
(56,-1,o),
(133,0,o),
(178,0,cs),
(236,0,o),
(308,-3,o),
(375,-3,cs),
(599,-3,o),
(758,160,o),
(758,390,cs),
(758,573,o),
(613,702,o),
(407,702,cs),
(345,702,o),
(203,700,o),
(173,700,cs),
(143,700,o),
(91,702,o),
(77,702,cs),
(4,702,l),
(4,655,l),
(17,655,o),
(17,655,o),
(44,655,cs),
(95,655,o),
(132,636,o),
(132,586,cs),
(132,519,o),
(132,163,o),
(132,132,cs),
(132,71,o),
(89,45,o),
(30,45,cs),
(-6,45,l),
(-6,-3,l)
);
},
{
closed = 1;
nodes = (
(295,50,o),
(232,63,o),
(232,107,cs),
(232,649,l),
(277,649,o),
(339,649,o),
(375,649,cs),
(518,649,o),
(630,546,o),
(630,368,cs),
(630,168,o),
(521,50,o),
(382,50,cs)
);
}
);
width = 828;
},
{
anchors = (
{
name = bottom;
pos = (406,0);
},
{
name = center;
pos = (203,350);
},
{
name = top;
pos = (406,700);
}
);
layerId = "574E12B0-2418-4D16-BF3A-251D49665871";
shapes = (
{
closed = 1;
nodes = (
(48,-1,o),
(125,0,o),
(170,0,cs),
(228,0,o),
(300,-3,o),
(367,-3,cs),
(591,-3,o),
(750,160,o),
(750,390,cs),
(750,573,o),
(605,702,o),
(399,702,cs),
(337,702,o),
(195,700,o),
(165,700,cs),
(135,700,o),
(83,702,o),
(69,702,cs),
(-4,702,l),
(-4,682,l),
(9,682,o),
(9,682,o),
(36,682,cs),
(87,682,o),
(124,636,o),
(124,586,cs),
(124,519,o),
(124,163,o),
(124,132,cs),
(124,71,o),
(81,17,o),
(22,17,cs),
(-14,17,l),
(-14,-3,l)
);
},
{
closed = 1;
nodes = (
(287,22,o),
(224,63,o),
(224,107,cs),
(224,676,l),
(269,676,o),
(331,676,o),
(367,676,cs),
(510,676,o),
(622,546,o),
(622,368,cs),
(622,168,o),
(513,22,o),
(374,22,cs)
);
}
);
width = 811;
}
);
metricLeft = n;
metricRight = o;
unicode = 68;
},
{
glyphname = E;
lastChange = "2024-11-11 17:30:14 +0000";
layers = (
{
anchors = (
{
name = bottom;
pos = (346,0);
},
{
name = ogonek;
pos = (623,10);
},
{
name = top;
pos = (346,700);
},
{
name = topleft;
pos = (20,700);
}
);
layerId = m01;
shapes = (
{
closed = 1;
nodes = (
(568,-1,l),
(647,143,l),
(622,158,l),
(576,82,o),
(512,34,o),
(467,34,cs),
(447,34,o),
(299,34,o),
(273,34,cs),
(245,34,o),
(227,56,o),
(227,88,cs),
(227,202,o),
(227,599,o),
(227,620,cs),
(227,646,o),
(255,665,o),
(297,665,cs),
(317,665,o),
(422,665,o),
(435,665,cs),
(496,665,o),
(540,625,o),
(540,561,c),
(568,561,l),
(568,700,l),
(484,700,o),
(337,700,o),
(317,700,cs),
(297,700,o),
(203,697,o),
(188,697,cs),
(173,697,o),
(76,700,o),
(53,700,c),
(53,667,l),
(98,667,o),
(127,643,o),
(127,609,cs),
(127,585,o),
(127,181,o),
(127,137,cs),
(127,76,o),
(107,33,o),
(76,33,cs),
(41,33,l),
(41,0,l),
(72,0,o),
(133,0,o),
(177,0,cs),
(221,0,o),
(285,-1,o),
(322,-1,cs)
);
},
{
closed = 1;
nodes = (
(499,260,l),
(495,327,o),
(495,395,o),
(499,462,c),
(471,462,l),
(471,403,o),
(447,374,o),
(408,374,cs),
(199,374,l),
(198,344,l),
(261,344,o),
(383,344,o),
(408,344,cs),
(448,344,o),
(472,295,o),
(472,260,c)
);
}
);
width = 692;
},
{
anchors = (
{
name = bottom;
pos = (349,0);
},
{
name = ogonek;
pos = (628,10);
},
{
name = top;
pos = (349,700);
},
{
name = topleft;
pos = (20,700);
}
);
layerId = m002;
shapes = (
{
closed = 1;
nodes = (
(571,-1,l),
(650,143,l),
(615,158,l),
(569,82,o),
(515,44,o),
(470,44,cs),
(450,44,o),
(302,44,o),
(276,44,cs),
(248,44,o),
(230,66,o),
(230,88,cs),
(230,202,o),
(230,589,o),
(230,610,cs),
(230,636,o),
(258,655,o),
(300,655,cs),
(320,655,o),
(425,655,o),
(438,655,cs),
(499,655,o),
(533,625,o),
(533,561,c),
(571,561,l),
(571,700,l),
(487,700,o),
(340,700,o),
(320,700,cs),
(300,700,o),
(206,697,o),
(191,697,cs),
(176,697,o),
(79,700,o),
(56,700,c),
(56,657,l),
(101,657,o),
(130,633,o),
(130,599,cs),
(130,575,o),
(130,181,o),
(130,137,cs),
(130,76,o),
(110,43,o),
(79,43,cs),
(44,43,l),
(44,0,l),
(75,0,o),
(136,0,o),
(180,0,cs),
(224,0,o),
(288,-1,o),
(325,-1,cs)
);
},
{
closed = 1;
nodes = (
(507,260,l),
(503,327,o),
(503,395,o),
(507,462,c),
(474,462,l),
(474,403,o),
(450,379,o),
(411,379,cs),
(202,379,l),
(201,339,l),
(264,339,o),
(386,339,o),
(411,339,cs),
(451,339,o),
(475,295,o),
(475,260,c)
);
}
);
width = 698;
},
{
anchors = (
{
name = bottom;
pos = (352,0);
},
{
name = ogonek;
pos = (633,10);
},
{
name = top;
pos = (352,700);
},
{
name = topleft;
pos = (20,700);
}
);
layerId = "CDB87FEA-4563-478E-BFE6-62102BA6A3F2";
shapes = (
{
closed = 1;
nodes = (
(573,-1,l),
(652,143,l),
(610,158,l),
(564,82,o),
(517,52,o),
(472,52,cs),
(452,52,o),
(304,52,o),
(278,52,cs),
(250,52,o),
(232,74,o),
(232,88,cs),
(232,202,o),
(232,582,o),
(232,603,cs),
(232,629,o),
(260,648,o),
(302,648,cs),
(322,648,o),
(427,648,o),
(440,648,cs),
(501,648,o),
(528,625,o),
(528,561,c),
(573,561,l),
(573,700,l),
(489,700,o),
(342,700,o),
(322,700,cs),
(302,700,o),
(208,697,o),
(193,697,cs),
(178,697,o),
(81,700,o),
(58,700,c),
(58,650,l),
(103,650,o),
(132,626,o),
(132,592,cs),
(132,568,o),
(132,181,o),
(132,137,cs),
(132,76,o),
(112,51,o),
(81,51,cs),
(46,51,l),
(46,0,l),
(77,0,o),
(138,0,o),
(182,0,cs),
(226,0,o),
(290,-1,o),
(327,-1,cs)
);
},
{
closed = 1;
nodes = (
(513,260,l),
(509,327,o),
(509,395,o),
(513,462,c),
(476,462,l),
(476,403,o),
(452,383,o),
(413,383,cs),
(204,383,l),
(203,335,l),
(266,335,o),
(388,335,o),
(413,335,cs),
(453,335,o),
(477,295,o),
(477,260,c)
);
}
);
width = 703;
},
{
anchors = (
{
name = bottom;
pos = (343,0);
},
{
name = ogonek;
pos = (617,10);
},
{
name = top;
pos = (343,700);
},
{
name = topleft;
pos = (20,700);
}
);
layerId = "574E12B0-2418-4D16-BF3A-251D49665871";
shapes = (
{
closed = 1;
nodes = (
(565,-1,l),
(644,143,l),
(629,158,l),
(583,82,o),
(509,24,o),
(464,24,cs),
(444,24,o),
(296,24,o),
(270,24,cs),
(242,24,o),
(224,46,o),
(224,88,cs),
(224,202,o),
(224,609,o),
(224,630,cs),
(224,656,o),
(252,675,o),
(294,675,cs),
(314,675,o),
(419,675,o),
(432,675,cs),
(493,675,o),
(547,625,o),
(547,561,c),
(565,561,l),
(565,700,l),
(481,700,o),
(334,700,o),
(314,700,cs),
(294,700,o),
(200,697,o),
(185,697,cs),
(170,697,o),
(73,700,o),
(50,700,c),
(50,677,l),
(95,677,o),
(124,653,o),
(124,619,cs),
(124,595,o),
(124,181,o),
(124,137,cs),
(124,76,o),
(104,23,o),
(73,23,cs),
(38,23,l),
(38,0,l),
(69,0,o),
(130,0,o),
(174,0,cs),
(218,0,o),
(282,-1,o),
(319,-1,cs)
);
},
{
closed = 1;
nodes = (
(491,260,l),
(487,327,o),
(487,395,o),
(491,462,c),
(468,462,l),
(468,403,o),
(444,369,o),
(405,369,cs),
(196,369,l),
(195,349,l),
(258,349,o),
(380,349,o),
(405,349,cs),
(445,349,o),
(469,295,o),
(469,260,c)
);
}
);
width = 686;
}
);
unicode = 69;
},
{
glyphname = F;
lastChange = "2024-11-11 17:30:14 +0000";
layers = (
{
anchors = (
{
name = bottom;
pos = (293,0);
},
{
name = top;
pos = (293,700);
}
);
layerId = m01;
shapes = (
{
closed = 1;
nodes = (
(320,27,l),
(298,27,o),
(281,27,o),
(273,27,cs),
(245,27,o),
(227,49,o),
(227,81,cs),
(227,195,o),
(227,599,o),
(227,620,cs),
(227,646,o),
(255,665,o),
(297,665,cs),
(317,665,o),
(422,665,o),
(435,665,cs),
(496,665,o),
(530,625,o),
(540,561,c),
(568,561,l),
(558,700,l),
(474,700,o),
(337,700,o),
(317,700,cs),
(297,700,o),
(203,697,o),
(188,697,cs),
(173,697,o),
(76,700,o),
(53,700,c),
(53,667,l),
(98,667,o),
(127,643,o),
(127,609,cs),
(127,585,o),
(127,181,o),
(127,137,cs),
(127,69,o),
(107,26,o),
(76,26,cs),
(41,26,l),
(41,0,l),
(72,0,o),
(133,0,o),
(177,0,cs),
(220,0,o),
(283,-1,o),
(320,-1,c)
);
},
{
closed = 1;
nodes = (
(479,240,l),
(475,307,o),
(475,415,o),
(479,482,c),
(451,482,l),
(451,423,o),
(427,374,o),
(388,374,cs),
(199,374,l),
(198,344,l),
(261,344,o),
(363,344,o),
(388,344,cs),
(428,344,o),
(452,275,o),
(452,240,c)
);
}
);
width = 586;
},
{
anchors = (
{
name = bottom;
pos = (296,0);
},
{
name = top;
pos = (296,700);
}
);
layerId = m002;
shapes = (
{
closed = 1;
nodes = (
(323,37,l),
(301,37,o),
(284,37,o),
(276,37,cs),
(248,37,o),
(230,49,o),
(230,81,cs),
(230,195,o),
(230,589,o),
(230,610,cs),
(230,636,o),
(258,655,o),
(300,655,cs),
(320,655,o),
(425,655,o),
(438,655,cs),
(499,655,o),
(523,625,o),
(533,561,c),
(571,561,l),
(561,700,l),
(477,700,o),
(340,700,o),
(320,700,cs),
(300,700,o),
(206,697,o),
(191,697,cs),
(176,697,o),
(79,700,o),
(56,700,c),
(56,657,l),
(101,657,o),
(130,633,o),
(130,599,cs),
(130,575,o),
(130,181,o),
(130,137,cs),
(130,69,o),
(110,36,o),
(79,36,cs),
(44,36,l),
(44,0,l),
(75,0,o),
(136,0,o),
(180,0,cs),
(223,0,o),
(286,-1,o),
(323,-1,c)
);
},
{
closed = 1;
nodes = (
(487,240,l),
(483,307,o),
(483,415,o),
(487,482,c),
(454,482,l),
(454,423,o),
(430,379,o),
(391,379,cs),
(202,379,l),
(201,339,l),
(264,339,o),
(366,339,o),
(391,339,cs),
(431,339,o),
(455,275,o),
(455,240,c)
);
}
);
width = 592;
},
{
anchors = (
{
name = bottom;
pos = (299,0);
},
{
name = top;
pos = (299,700);
}
);
layerId = "CDB87FEA-4563-478E-BFE6-62102BA6A3F2";
shapes = (
{
closed = 1;
nodes = (
(325,45,l),
(303,45,o),
(286,45,o),
(278,45,cs),
(250,45,o),
(232,49,o),
(232,81,cs),
(232,195,o),
(232,582,o),
(232,603,cs),
(232,629,o),
(260,648,o),
(302,648,cs),
(322,648,o),
(427,648,o),
(440,648,cs),
(501,648,o),
(518,625,o),
(528,561,c),
(573,561,l),
(563,700,l),
(479,700,o),
(342,700,o),
(322,700,cs),
(302,700,o),
(208,697,o),
(193,697,cs),
(178,697,o),
(81,700,o),
(58,700,c),
(58,650,l),
(103,650,o),
(132,626,o),
(132,592,cs),
(132,568,o),
(132,181,o),
(132,137,cs),
(132,69,o),
(112,44,o),
(81,44,cs),
(46,44,l),
(46,0,l),
(77,0,o),
(138,0,o),
(182,0,cs),
(225,0,o),
(288,-1,o),
(325,-1,c)
);
},
{
closed = 1;
nodes = (
(493,240,l),
(489,307,o),
(489,415,o),
(493,482,c),
(456,482,l),
(456,423,o),
(432,383,o),
(393,383,cs),
(204,383,l),
(203,335,l),
(266,335,o),
(368,335,o),
(393,335,cs),
(433,335,o),
(457,275,o),
(457,240,c)
);
}
);
width = 597;
},
{
anchors = (
{
name = bottom;
pos = (290,0);
},
{
name = top;
pos = (290,700);
}
);
layerId = "574E12B0-2418-4D16-BF3A-251D49665871";
shapes = (
{
closed = 1;
nodes = (
(317,17,l),
(295,17,o),
(278,17,o),
(270,17,cs),
(242,17,o),
(224,49,o),
(224,81,cs),
(224,195,o),
(224,609,o),
(224,630,cs),
(224,656,o),
(252,675,o),
(294,675,cs),
(314,675,o),
(419,675,o),
(432,675,cs),
(493,675,o),
(537,625,o),
(547,561,c),
(565,561,l),
(555,700,l),
(471,700,o),
(334,700,o),
(314,700,cs),
(294,700,o),
(200,697,o),
(185,697,cs),
(170,697,o),
(73,700,o),
(50,700,c),
(50,677,l),
(95,677,o),
(124,653,o),
(124,619,cs),
(124,595,o),
(124,181,o),
(124,137,cs),
(124,69,o),
(104,16,o),
(73,16,cs),
(38,16,l),
(38,0,l),
(69,0,o),
(130,0,o),
(174,0,cs),
(217,0,o),
(280,-1,o),
(317,-1,c)
);
},
{
closed = 1;
nodes = (
(471,240,l),
(467,307,o),
(467,415,o),
(471,482,c),
(448,482,l),
(448,423,o),
(424,369,o),
(385,369,cs),
(196,369,l),
(195,349,l),
(258,349,o),
(360,349,o),
(385,349,cs),
(425,349,o),
(449,275,o),
(449,240,c)
);
}
);
width = 580;
}
);
metricLeft = n;
metricRight = n;
unicode = 70;
},
{
glyphname = G;
lastChange = "2024-11-11 17:30:14 +0000";
layers = (
{
anchors = (
{
name = bottom;
pos = (430,0);
},
{
name = top;
pos = (430,700);
}
);
layerId = m01;
shapes = (
{
closed = 1;
nodes = (
(554,-20,o),
(668,13,o),
(751,59,c),
(751,73,l),
(740,79,o),
(732,89,o),
(732,96,cs),
(732,109,o),
(732,199,o),
(732,222,cs),
(732,252,o),
(751,274,o),
(778,274,cs),
(802,274,l),
(802,309,l),
(487,309,l),
(487,273,l),
(510,273,o),
(581,273,o),
(587,273,cs),
(612,273,o),
(630,234,o),
(630,180,cs),
(630,80,o),
(564,10,o),
(485,10,cs),
(329,10,o),
(199,150,o),
(199,347,cs),
(199,540,o),
(320,676,o),
(492,676,cs),
(600,676,o),
(695,606,o),
(723,507,c),
(744,507,l),
(744,694,l),
(676,694,o),
(566,712,o),
(474,712,cs),
(234,712,o),
(64,561,o),
(64,348,cs),
(64,132,o),
(235,-20,o),
(476,-20,cs)
);
}
);
width = 859;
},
{
anchors = (
{
name = bottom;
pos = (433,0);
},
{
name = top;
pos = (433,700);
}
);
layerId = m002;
shapes = (
{
closed = 1;
nodes = (
(557,-20,o),
(671,13,o),
(754,59,c),
(754,73,l),
(743,79,o),
(735,89,o),
(735,96,cs),
(735,109,o),
(735,199,o),
(735,222,cs),
(735,252,o),
(754,274,o),
(781,274,cs),
(805,274,l),
(805,319,l),
(490,319,l),
(490,273,l),
(513,273,o),
(584,273,o),
(590,273,cs),
(615,273,o),
(633,234,o),
(633,180,cs),
(633,80,o),
(567,20,o),
(488,20,cs),
(332,20,o),
(202,150,o),
(202,347,cs),
(202,540,o),
(323,666,o),
(495,666,cs),
(603,666,o),
(698,596,o),
(726,497,c),
(747,497,l),
(747,694,l),
(679,694,o),
(569,712,o),
(477,712,cs),
(237,712,o),
(67,561,o),
(67,348,cs),
(67,132,o),
(238,-20,o),
(479,-20,cs)
);
}
);
width = 865;
},
{
anchors = (
{
name = bottom;
pos = (435,0);
},
{
name = top;
pos = (435,700);
}
);
layerId = "CDB87FEA-4563-478E-BFE6-62102BA6A3F2";
shapes = (
{
closed = 1;
nodes = (
(559,-20,o),
(673,13,o),
(756,59,c),
(756,73,l),
(745,79,o),
(737,89,o),
(737,96,cs),
(737,109,o),
(737,199,o),
(737,222,cs),
(737,252,o),
(756,274,o),
(783,274,cs),
(807,274,l),
(807,327,l),
(492,327,l),
(492,273,l),
(515,273,o),
(586,273,o),
(592,273,cs),
(617,273,o),
(635,234,o),
(635,180,cs),
(635,80,o),
(569,28,o),
(490,28,cs),
(334,28,o),
(204,150,o),
(204,347,cs),
(204,540,o),
(325,659,o),
(497,659,cs),
(605,659,o),
(700,589,o),
(728,490,c),
(749,490,l),
(749,694,l),
(681,694,o),
(571,712,o),
(479,712,cs),
(239,712,o),
(69,561,o),
(69,348,cs),
(69,132,o),
(240,-20,o),
(481,-20,cs)
);
}
);
width = 870;
},
{
anchors = (
{
name = bottom;
pos = (427,0);
},
{
name = top;
pos = (427,700);
}
);
layerId = "574E12B0-2418-4D16-BF3A-251D49665871";
shapes = (
{
closed = 1;
nodes = (
(551,-20,o),
(665,13,o),
(748,59,c),
(748,73,l),
(737,79,o),
(729,89,o),
(729,96,cs),
(729,109,o),
(729,199,o),
(729,222,cs),
(729,252,o),
(748,274,o),
(775,274,cs),
(799,274,l),
(799,299,l),
(484,299,l),
(484,273,l),
(507,273,o),
(578,273,o),
(584,273,cs),
(609,273,o),
(627,234,o),
(627,180,cs),
(627,80,o),
(561,0,o),
(482,0,cs),
(326,0,o),
(196,150,o),
(196,347,cs),
(196,540,o),
(317,686,o),
(489,686,cs),
(597,686,o),
(692,616,o),
(720,517,c),
(741,517,l),
(741,694,l),
(673,694,o),
(563,712,o),
(471,712,cs),
(231,712,o),
(61,561,o),
(61,348,cs),
(61,132,o),
(232,-20,o),
(473,-20,cs)
);
}
);
width = 853;
}
);
unicode = 71;
},
{
glyphname = H;
lastChange = "2024-11-11 17:30:14 +0000";
layers = (
{
anchors = (
{
name = bottom;
pos = (431,0);
},
{
name = center;
pos = (431,525);
},
{
name = top;
pos = (431,700);
},
{
name = topleft;
pos = (20,700);
}
);
layerId = m01;
shapes = (
{
closed = 1;
nodes = (
(851,0,l),
(851,28,l),
(845,28,o),
(840,28,o),
(832,28,cs),
(783,28,o),
(735,63,o),
(735,112,cs),
(735,137,o),
(735,581,o),
(735,605,cs),
(735,644,o),
(769,672,o),
(798,672,cs),
(826,672,l),
(826,700,l),
(521,700,l),
(521,672,l),
(532,672,o),
(541,672,o),
(554,672,cs),
(594,672,o),
(635,652,o),
(635,624,cs),
(635,601,o),
(635,146,o),
(635,125,cs),
(635,68,o),
(595,28,o),
(557,28,cs),
(517,28,l),
(517,0,l)
);
},
{
closed = 1;
nodes = (
(348,0,l),
(348,28,l),
(341,28,o),
(341,28,o),
(327,28,cs),
(276,28,o),
(227,61,o),
(227,108,cs),
(227,138,o),
(227,591,o),
(227,612,cs),
(227,647,o),
(255,672,o),
(277,672,cs),
(327,672,l),
(327,700,l),
(38,700,l),
(38,672,l),
(46,672,o),
(53,672,o),
(63,672,cs),
(91,672,o),
(127,669,o),
(127,649,cs),
(127,595,o),
(127,164,o),
(127,132,cs),
(127,71,o),
(90,28,o),
(64,28,cs),
(25,28,l),
(25,0,l)
);
},
{
closed = 1;
nodes = (
(680,345,l),
(680,380,l),
(217,380,l),
(217,345,l)
);
}
);
width = 862;
},
{
anchors = (
{
name = bottom;
pos = (434,0);
},
{
name = center;
pos = (434,525);
},
{
name = top;
pos = (434,700);
},
{
name = topleft;
pos = (20,700);
}
);
layerId = m002;
shapes = (
{
closed = 1;
nodes = (
(854,0,l),
(854,38,l),
(848,38,o),
(843,38,o),
(835,38,cs),
(786,38,o),
(738,73,o),
(738,112,cs),
(738,137,o),
(738,581,o),
(738,605,cs),
(738,634,o),
(772,662,o),
(801,662,cs),
(829,662,l),
(829,700,l),
(524,700,l),
(524,662,l),
(535,662,o),
(544,662,o),
(557,662,cs),
(597,662,o),
(638,642,o),
(638,624,cs),
(638,601,o),
(638,146,o),
(638,125,cs),
(638,78,o),
(598,38,o),
(560,38,cs),
(520,38,l),
(520,0,l)
);
},
{
closed = 1;
nodes = (
(351,0,l),
(351,38,l),
(344,38,o),
(344,38,o),
(330,38,cs),
(279,38,o),
(230,71,o),
(230,108,cs),
(230,138,o),
(230,591,o),
(230,612,cs),
(230,637,o),
(258,662,o),
(280,662,cs),
(330,662,l),
(330,700,l),
(41,700,l),
(41,662,l),
(49,662,o),
(56,662,o),
(66,662,cs),
(94,662,o),
(130,659,o),
(130,639,cs),
(130,585,o),
(130,164,o),
(130,132,cs),
(130,81,o),
(93,38,o),
(67,38,cs),
(28,38,l),
(28,0,l)
);
},
{
closed = 1;
nodes = (
(683,345,l),
(683,390,l),
(220,390,l),
(220,345,l)
);
}
);
width = 868;
},
{
anchors = (
{
name = bottom;
pos = (437,0);
},
{
name = center;
pos = (437,525);
},
{
name = top;
pos = (437,700);
},
{
name = topleft;
pos = (20,700);
}
);
layerId = "CDB87FEA-4563-478E-BFE6-62102BA6A3F2";
shapes = (
{
closed = 1;
nodes = (
(856,0,l),
(856,46,l),
(850,46,o),
(845,46,o),
(837,46,cs),
(788,46,o),
(740,81,o),
(740,112,cs),
(740,137,o),
(740,581,o),
(740,605,cs),
(740,627,o),
(774,655,o),
(803,655,cs),
(831,655,l),
(831,700,l),
(526,700,l),
(526,655,l),
(537,655,o),
(546,655,o),
(559,655,cs),
(599,655,o),
(640,635,o),
(640,624,cs),
(640,601,o),
(640,146,o),
(640,125,cs),
(640,86,o),
(600,46,o),
(562,46,cs),
(522,46,l),
(522,0,l)
);
},
{
closed = 1;
nodes = (
(353,0,l),
(353,46,l),
(346,46,o),
(346,46,o),
(332,46,cs),
(281,46,o),
(232,79,o),
(232,108,cs),
(232,138,o),
(232,591,o),
(232,612,cs),
(232,630,o),
(260,655,o),
(282,655,cs),
(332,655,l),
(332,700,l),
(43,700,l),
(43,655,l),
(51,655,o),
(58,655,o),
(68,655,cs),
(96,655,o),
(132,652,o),
(132,632,cs),
(132,578,o),
(132,164,o),
(132,132,cs),
(132,89,o),
(95,46,o),
(69,46,cs),
(30,46,l),
(30,0,l)
);
},
{
closed = 1;
nodes = (
(685,345,l),
(685,398,l),
(222,398,l),
(222,345,l)
);
}
);
width = 873;
},
{
anchors = (
{
name = bottom;
pos = (428,0);
},
{
name = center;
pos = (428,525);
},
{
name = top;
pos = (428,700);
},
{
name = topleft;
pos = (20,700);
}
);
layerId = "574E12B0-2418-4D16-BF3A-251D49665871";
shapes = (
{
closed = 1;
nodes = (
(848,0,l),
(848,18,l),
(842,18,o),
(837,18,o),
(829,18,cs),
(780,18,o),
(732,53,o),
(732,112,cs),
(732,137,o),
(732,581,o),
(732,605,cs),
(732,654,o),
(766,682,o),
(795,682,cs),
(823,682,l),
(823,700,l),
(518,700,l),
(518,682,l),
(529,682,o),
(538,682,o),
(551,682,cs),
(591,682,o),
(632,662,o),
(632,624,cs),
(632,601,o),
(632,146,o),
(632,125,cs),
(632,58,o),
(592,18,o),
(554,18,cs),
(514,18,l),
(514,0,l)
);
},
{
closed = 1;
nodes = (
(345,0,l),
(345,18,l),
(338,18,o),
(338,18,o),
(324,18,cs),
(273,18,o),
(224,51,o),
(224,108,cs),
(224,138,o),
(224,591,o),
(224,612,cs),
(224,657,o),
(252,682,o),
(274,682,cs),
(324,682,l),
(324,700,l),
(35,700,l),
(35,682,l),
(43,682,o),
(50,682,o),
(60,682,cs),
(88,682,o),
(124,679,o),
(124,659,cs),
(124,605,o),
(124,164,o),
(124,132,cs),
(124,61,o),
(87,18,o),
(61,18,cs),
(22,18,l),
(22,0,l)
);
},
{
closed = 1;
nodes = (
(677,345,l),
(677,370,l),
(214,370,l),
(214,345,l)
);
}
);
width = 856;
}
);
unicode = 72;
},
{
glyphname = I;
lastChange = "2024-11-11 17:30:14 +0000";
layers = (
{
anchors = (
{
name = bottom;
pos = (177,0);
},
{
name = ogonek;
pos = (319,10);
},
{
name = top;
pos = (177,700);
},
{
name = topleft;
pos = (20,700);
}
);
layerId = m01;
shapes = (
{
closed = 1;
nodes = (
(298,0,l),
(298,28,l),
(291,28,o),
(281,28,o),
(267,28,cs),
(245,28,o),
(227,61,o),
(227,108,cs),
(227,138,o),
(227,591,o),
(227,612,cs),
(227,647,o),
(249,672,o),
(277,672,cs),
(320,672,l),
(320,700,l),
(33,700,l),
(33,672,l),
(41,672,o),
(48,672,o),
(58,672,cs),
(97,672,o),
(127,662,o),
(127,649,cs),
(127,595,o),
(127,164,o),
(127,132,cs),
(127,71,o),
(95,28,o),
(54,28,cs),
(35,28,l),
(35,0,l)
);
}
);
width = 354;
},
{
anchors = (
{
name = bottom;
pos = (180,0);
},
{
name = ogonek;
pos = (324,10);
},
{
name = top;
pos = (180,700);
},
{
name = topleft;
pos = (20,700);
}
);
layerId = m002;
shapes = (
{
closed = 1;
nodes = (
(301,0,l),
(301,38,l),
(294,38,o),
(284,38,o),
(270,38,cs),
(248,38,o),
(230,61,o),
(230,108,cs),
(230,138,o),
(230,591,o),
(230,612,cs),
(230,637,o),
(252,662,o),
(280,662,cs),
(323,662,l),
(323,700,l),
(36,700,l),
(36,662,l),
(44,662,o),
(51,662,o),
(61,662,cs),
(100,662,o),
(130,652,o),
(130,639,cs),
(130,585,o),
(130,164,o),
(130,132,cs),
(130,71,o),
(98,38,o),
(57,38,cs),
(38,38,l),
(38,0,l)
);
}
);
width = 360;
},
{
anchors = (
{
name = bottom;
pos = (183,0);
},
{
name = ogonek;
pos = (329,10);
},
{
name = top;
pos = (183,700);
},
{
name = topleft;
pos = (20,700);
}
);
layerId = "CDB87FEA-4563-478E-BFE6-62102BA6A3F2";
shapes = (
{
closed = 1;
nodes = (
(303,0,l),
(303,46,l),
(296,46,o),
(286,46,o),
(272,46,cs),
(250,46,o),
(232,61,o),
(232,108,cs),
(232,138,o),
(232,591,o),
(232,612,cs),
(232,630,o),
(254,655,o),
(282,655,cs),
(325,655,l),
(325,700,l),
(38,700,l),
(38,655,l),
(46,655,o),
(53,655,o),
(63,655,cs),
(102,655,o),
(132,645,o),
(132,632,cs),
(132,578,o),
(132,164,o),
(132,132,cs),
(132,71,o),
(100,46,o),
(59,46,cs),
(40,46,l),
(40,0,l)
);
}
);
width = 365;
},
{
anchors = (
{
name = bottom;
pos = (174,0);
},
{
name = ogonek;
pos = (313,10);
},
{
name = top;
pos = (174,700);
},
{
name = topleft;
pos = (20,700);
}
);
layerId = "574E12B0-2418-4D16-BF3A-251D49665871";
shapes = (
{
closed = 1;
nodes = (
(295,0,l),
(295,18,l),
(288,18,o),
(278,18,o),
(264,18,cs),
(242,18,o),
(224,61,o),
(224,108,cs),
(224,138,o),
(224,591,o),
(224,612,cs),
(224,657,o),
(246,682,o),
(274,682,cs),
(317,682,l),
(317,700,l),
(30,700,l),
(30,682,l),
(38,682,o),
(45,682,o),
(55,682,cs),
(94,682,o),
(124,672,o),
(124,659,cs),
(124,605,o),
(124,164,o),
(124,132,cs),
(124,71,o),
(92,18,o),
(51,18,cs),
(32,18,l),
(32,0,l)
);
}
);
width = 348;
}
);
unicode = 73;
},
{
glyphname = J;
lastChange = "2024-11-11 17:30:14 +0000";
layers = (
{
anchors = (
{
name = bottom;
pos = (168,0);
},
{
name = top;
pos = (168,700);
}
);
layerId = m01;
shapes = (
{
closed = 1;
nodes = (
(153,-373,o),
(227,-294,o),
(227,-183,cs),
(227,-92,o),
(227,570,o),
(227,611,cs),
(227,649,o),
(265,674,o),
(318,672,cs),
(347,671,l),
(347,700,l),
(38,700,l),
(38,671,l),
(47,671,o),
(54,672,o),
(65,672,cs),
(101,672,o),
(127,654,o),
(127,628,cs),
(127,591,o),
(127,-217,o),
(127,-254,cs),
(127,-306,o),
(95,-342,o),
(51,-342,cs),
(1,-342,o),
(-34,-320,o),
(-34,-288,cs),
(-34,-262,o),
(-20,-256,o),
(-20,-239,cs),
(-20,-227,o),
(-37,-219,o),
(-61,-219,cs),
(-89,-219,o),
(-108,-249,o),
(-108,-292,cs),
(-108,-339,o),
(-44,-373,o),
(46,-373,cs)
);
}
);
width = 336;
},
{
anchors = (
{
name = bottom;
pos = (171,0);
},
{
name = top;
pos = (171,700);
}
);
layerId = m002;
shapes = (
{
closed = 1;
nodes = (
(156,-373,o),
(230,-294,o),
(230,-183,cs),
(230,-92,o),
(230,570,o),
(230,611,cs),
(230,649,o),
(268,664,o),
(321,662,cs),
(350,661,l),
(350,700,l),
(41,700,l),
(41,661,l),
(50,661,o),
(57,662,o),
(68,662,cs),
(104,662,o),
(130,654,o),
(130,628,cs),
(130,591,o),
(130,-207,o),
(130,-244,cs),
(130,-296,o),
(98,-332,o),
(54,-332,cs),
(4,-332,o),
(-31,-310,o),
(-31,-278,cs),
(-31,-252,o),
(-17,-256,o),
(-17,-239,cs),
(-17,-227,o),
(-34,-219,o),
(-58,-219,cs),
(-86,-219,o),
(-105,-249,o),
(-105,-292,cs),
(-105,-339,o),
(-41,-373,o),
(49,-373,cs)
);
}
);
width = 342;
},
{
anchors = (
{
name = bottom;
pos = (174,0);
},
{
name = top;
pos = (174,700);
}
);
layerId = "CDB87FEA-4563-478E-BFE6-62102BA6A3F2";
shapes = (
{
closed = 1;
nodes = (
(158,-373,o),
(232,-294,o),
(232,-183,cs),
(232,-92,o),
(232,570,o),
(232,611,cs),
(232,649,o),
(270,657,o),
(323,655,cs),
(352,654,l),
(352,700,l),
(43,700,l),
(43,654,l),
(52,654,o),
(59,655,o),
(70,655,cs),
(106,655,o),
(132,654,o),
(132,628,cs),
(132,591,o),
(132,-199,o),
(132,-236,cs),
(132,-288,o),
(100,-324,o),
(56,-324,cs),
(6,-324,o),
(-29,-302,o),
(-29,-270,cs),
(-29,-244,o),
(-15,-256,o),
(-15,-239,cs),
(-15,-227,o),
(-32,-219,o),
(-56,-219,cs),
(-84,-219,o),
(-103,-249,o),
(-103,-292,cs),
(-103,-339,o),
(-39,-373,o),
(51,-373,cs)
);
}
);
width = 347;
},
{
anchors = (
{
name = bottom;
pos = (165,0);
},
{
name = top;
pos = (165,700);
}
);
layerId = "574E12B0-2418-4D16-BF3A-251D49665871";
shapes = (
{
closed = 1;
nodes = (
(150,-373,o),
(224,-294,o),
(224,-183,cs),
(224,-92,o),
(224,570,o),
(224,611,cs),
(224,649,o),
(262,684,o),
(315,682,cs),
(344,681,l),
(344,700,l),
(35,700,l),
(35,681,l),
(44,681,o),
(51,682,o),
(62,682,cs),
(98,682,o),
(124,654,o),
(124,628,cs),
(124,591,o),
(124,-227,o),
(124,-264,cs),
(124,-316,o),
(92,-352,o),
(48,-352,cs),
(-2,-352,o),
(-37,-330,o),
(-37,-298,cs),
(-37,-272,o),
(-23,-256,o),
(-23,-239,cs),
(-23,-227,o),
(-40,-219,o),
(-64,-219,cs),
(-92,-219,o),
(-111,-249,o),
(-111,-292,cs),
(-111,-339,o),
(-47,-373,o),
(43,-373,cs)
);
}
);
width = 330;
}
);
metricRight = n;
unicode = 74;
},
{
glyphname = K;
lastChange = "2024-11-11 17:30:14 +0000";
layers = (
{
anchors = (
{
name = bottom;
pos = (374,0);
},
{
name = top;
pos = (374,700);
}
);
layerId = m01;
shapes = (
{
closed = 1;
nodes = (
(739,0,l),
(739,28,l),
(732,28,ls),
(704,28,o),
(669,57,o),
(627,99,cs),
(318,410,l),
(399,489,o),
(481,568,o),
(499,589,cs),
(527,621,o),
(596,659,o),
(621,659,cs),
(668,659,l),
(668,696,l),
(403,696,l),
(403,660,l),
(431,660,ls),
(440,660,o),
(480,631,o),
(447,589,c),
(226,358,l),
(226,468,o),
(228,575,o),
(228,594,cs),
(228,640,o),
(249,672,o),
(275,672,cs),
(309,672,l),
(309,700,l),
(57,700,l),
(57,672,l),
(85,672,ls),
(108,672,o),
(127,655,o),
(127,630,cs),
(127,83,ls),
(127,51,o),
(109,28,o),
(88,28,cs),
(72,28,l),
(72,0,l),
(324,0,l),
(324,28,l),
(293,28,ls),
(255,28,o),
(228,52,o),
(228,87,cs),
(226,318,l),
(241,333,l),
(528,36,ls),
(548,15,o),
(572,0,o),
(588,0,cs)
);
}
);
width = 748;
},
{
associatedMasterId = m01;
layerId = "8467409C-0914-4D46-BCF0-A4BD11655239";
name = "3. Nov. 24, 11:35";
shapes = (
{
closed = 1;
nodes = (
(739,0,l),
(739,28,l),
(732,28,ls),
(704,28,o),
(669,57,o),
(627,99,cs),
(307,421,l),
(234,340,l),
(528,36,ls),
(548,15,o),
(572,0,o),
(588,0,cs)
);
},
{
closed = 1;
nodes = (
(324,0,l),
(324,28,l),
(293,28,ls),
(255,28,o),
(228,52,o),
(228,87,cs),
(228,111,o),
(226,229,o),
(226,345,cs),
(226,460,o),
(228,574,o),
(228,594,cs),
(228,640,o),
(249,672,o),
(275,672,cs),
(309,672,l),
(309,700,l),
(57,700,l),
(57,672,l),
(85,672,ls),
(108,672,o),
(127,655,o),
(127,630,cs),
(127,83,ls),
(127,51,o),
(109,28,o),
(88,28,cs),
(72,28,l),
(72,0,l)
);
},
{
closed = 1;
nodes = (
(297,391,o),
(471,557,o),
(499,589,cs),
(527,621,o),
(596,659,o),
(621,659,cs),
(668,659,l),
(668,696,l),
(403,696,l),
(403,660,l),
(431,660,ls),
(440,660,o),
(480,631,o),
(447,589,c),
(187,317,l),
(201,292,l)
);
}
);
width = 748;
},
{
anchors = (
{
name = bottom;
pos = (377,0);
},
{
name = top;
pos = (377,700);
}
);
layerId = m002;
shapes = (
{
closed = 1;
nodes = (
(742,0,l),
(742,38,l),
(735,38,ls),
(707,38,o),
(673,58,o),
(630,99,cs),
(321,400,l),
(402,479,o),
(482,569,o),
(502,589,cs),
(534,622,o),
(581,662,o),
(624,662,cs),
(671,662,l),
(671,700,l),
(406,700,l),
(406,662,l),
(434,662,ls),
(480,662,o),
(485,631,o),
(449,589,c),
(228,358,l),
(228,468,o),
(231,575,o),
(231,594,cs),
(231,640,o),
(252,662,o),
(278,662,cs),
(312,662,l),
(312,700,l),
(60,700,l),
(60,662,l),
(88,662,ls),
(111,662,o),
(130,645,o),
(130,630,cs),
(130,83,ls),
(130,51,o),
(112,38,o),
(91,38,cs),
(75,38,l),
(75,0,l),
(327,0,l),
(327,38,l),
(296,38,ls),
(258,38,o),
(231,52,o),
(231,87,cs),
(229,308,l),
(244,323,l),
(526,36,ls),
(547,15,o),
(575,0,o),
(591,0,cs)
);
}
);
width = 754;
},
{
associatedMasterId = m002;
layerId = "153ECCB4-A823-4232-9515-BDB6977FA8DE";
name = "3. Nov. 24, 11:35";
shapes = (
{
closed = 1;
nodes = (
(739,0,l),
(739,28,l),
(732,28,ls),
(704,28,o),
(669,57,o),
(627,99,cs),
(307,421,l),
(234,340,l),
(528,36,ls),
(548,15,o),
(572,0,o),
(588,0,cs)
);
},
{
closed = 1;
nodes = (
(324,0,l),
(324,28,l),
(293,28,ls),
(255,28,o),
(228,52,o),
(228,87,cs),
(228,111,o),
(226,229,o),
(226,345,cs),
(226,460,o),
(228,574,o),
(228,594,cs),
(228,640,o),
(249,672,o),
(275,672,cs),
(309,672,l),
(309,700,l),
(57,700,l),
(57,672,l),
(85,672,ls),
(108,672,o),
(127,655,o),
(127,630,cs),
(127,83,ls),
(127,51,o),
(109,28,o),
(88,28,cs),
(72,28,l),
(72,0,l)
);
},
{
closed = 1;
nodes = (
(297,391,o),
(471,557,o),
(499,589,cs),
(527,621,o),
(596,659,o),
(621,659,cs),
(668,659,l),
(668,696,l),
(403,696,l),
(403,660,l),
(431,660,ls),
(440,660,o),
(480,631,o),
(447,589,c),
(187,317,l),
(201,292,l)
);
}
);
width = 748;
},
{
anchors = (
{
name = bottom;
pos = (380,0);
},
{
name = top;
pos = (380,700);
}
);
layerId = "CDB87FEA-4563-478E-BFE6-62102BA6A3F2";
shapes = (
{
closed = 1;
nodes = (
(744,0,l),
(744,46,l),
(737,46,ls),
(709,46,o),
(676,59,o),
(632,99,cs),
(323,393,l),
(404,472,o),
(483,570,o),
(504,589,cs),
(539,623,o),
(570,664,o),
(626,664,cs),
(673,664,l),
(673,703,l),
(408,703,l),
(408,664,l),
(436,664,ls),
(510,664,o),
(489,631,o),
(451,589,cs),
(230,358,l),
(230,468,o),
(233,575,o),
(233,594,cs),
(233,640,o),
(254,655,o),
(280,655,cs),
(314,655,l),
(314,700,l),
(62,700,l),
(62,655,l),
(90,655,ls),
(113,655,o),
(132,638,o),
(132,630,cs),
(132,83,ls),
(132,51,o),
(114,46,o),
(93,46,cs),
(77,46,l),
(77,0,l),
(329,0,l),
(329,46,l),
(298,46,ls),
(260,46,o),
(233,52,o),
(233,87,cs),
(231,301,l),
(246,316,l),
(525,36,ls),
(546,15,o),
(577,0,o),
(593,0,cs)
);
}
);
width = 759;
},
{
anchors = (
{
name = bottom;
pos = (371,0);
},
{
name = top;
pos = (371,700);
}
);
layerId = "574E12B0-2418-4D16-BF3A-251D49665871";
shapes = (
{
closed = 1;
nodes = (
(736,0,l),
(736,18,l),
(729,18,ls),
(701,18,o),
(665,56,o),
(624,99,cs),
(315,420,l),
(396,499,o),
(480,567,o),
(496,589,cs),
(520,620,o),
(611,656,o),
(618,656,cs),
(665,656,l),
(665,692,l),
(400,692,l),
(400,658,l),
(428,658,l),
(400,658,o),
(475,631,o),
(445,589,c),
(224,358,l),
(224,468,o),
(225,575,o),
(225,594,cs),
(225,640,o),
(246,682,o),
(272,682,cs),
(306,682,l),
(306,700,l),
(54,700,l),
(54,682,l),
(82,682,ls),
(105,682,o),
(124,665,o),
(124,630,cs),
(124,83,ls),
(124,51,o),
(106,18,o),
(85,18,cs),
(69,18,l),
(69,0,l),
(321,0,l),
(321,18,l),
(290,18,ls),
(252,18,o),
(225,52,o),
(225,87,cs),
(223,328,l),
(238,343,l),
(530,36,ls),
(549,15,o),
(569,0,o),
(585,0,cs)
);
}
);
width = 742;
}
);
metricLeft = n;
unicode = 75;
},
{
glyphname = L;
lastChange = "2024-11-11 17:30:14 +0000";
layers = (
{
anchors = (
{
name = bottom;
pos = (355,0);
},
{
name = center;
pos = (355,350);
},
{
name = top;
pos = (355,700);
},
{
name = topright;
pos = (689,700);
}
);
layerId = m01;
shapes = (
{
closed = 1;
nodes = (
(605,0,l),
(673,162,l),
(641,169,l),
(610,91,o),
(547,35,o),
(487,35,cs),
(418,35,o),
(324,35,o),
(301,35,cs),
(261,35,o),
(227,74,o),
(227,130,cs),
(227,179,o),
(227,558,o),
(227,608,cs),
(227,645,o),
(280,672,o),
(349,672,cs),
(369,672,l),
(369,700,l),
(14,700,l),
(14,672,l),
(40,672,l),
(89,672,o),
(127,636,o),
(127,584,cs),
(127,533,o),
(127,166,o),
(127,125,cs),
(127,72,o),
(105,35,o),
(79,35,cs),
(61,35,o),
(30,35,o),
(16,35,c),
(16,0,l)
);
}
);
width = 709;
},
{
anchors = (
{
name = bottom;
pos = (358,0);
},
{
name = center;
pos = (358,350);
},
{
name = top;
pos = (358,700);
},
{
name = topright;
pos = (695,700);
}
);
layerId = m002;
shapes = (
{
closed = 1;
nodes = (
(608,0,l),
(676,162,l),
(634,169,l),
(603,91,o),
(550,45,o),
(490,45,cs),
(421,45,o),
(327,45,o),
(304,45,cs),
(264,45,o),
(230,74,o),
(230,130,cs),
(230,179,o),
(230,558,o),
(230,608,cs),
(230,645,o),
(283,662,o),
(352,662,cs),
(372,662,l),
(372,700,l),
(17,700,l),
(17,662,l),
(43,662,l),
(92,662,o),
(130,636,o),
(130,584,cs),
(130,533,o),
(130,166,o),
(130,125,cs),
(130,72,o),
(108,45,o),
(82,45,cs),
(64,45,o),
(33,45,o),
(19,45,c),
(19,0,l)
);
}
);
width = 715;
},
{
anchors = (
{
name = bottom;
pos = (360,0);
},
{
name = center;
pos = (360,350);
},
{
name = top;
pos = (360,700);
},
{
name = topright;
pos = (700,700);
}
);
layerId = "CDB87FEA-4563-478E-BFE6-62102BA6A3F2";
shapes = (
{
closed = 1;
nodes = (
(610,0,l),
(678,162,l),
(629,169,l),
(598,91,o),
(552,53,o),
(492,53,cs),
(423,53,o),
(329,53,o),
(306,53,cs),
(266,53,o),
(232,74,o),
(232,130,cs),
(232,179,o),
(232,558,o),
(232,608,cs),
(232,645,o),
(285,655,o),
(354,655,cs),
(374,655,l),
(374,700,l),
(19,700,l),
(19,655,l),
(45,655,ls),
(94,655,o),
(132,636,o),
(132,584,cs),
(132,533,o),
(132,166,o),
(132,125,cs),
(132,72,o),
(110,53,o),
(84,53,cs),
(66,53,o),
(35,53,o),
(21,53,c),
(21,0,l)
);
}
);
width = 720;
},
{
anchors = (
{
name = bottom;
pos = (352,0);
},
{
name = center;
pos = (352,350);
},
{
name = top;
pos = (352,700);
},
{
name = topright;
pos = (683,700);
}
);
layerId = "574E12B0-2418-4D16-BF3A-251D49665871";
shapes = (
{
closed = 1;
nodes = (
(602,0,l),
(670,162,l),
(648,169,l),
(617,91,o),
(544,25,o),
(484,25,cs),
(415,25,o),
(321,25,o),
(298,25,cs),
(258,25,o),
(224,74,o),
(224,130,cs),
(224,179,o),
(224,558,o),
(224,608,cs),
(224,645,o),
(277,682,o),
(346,682,cs),
(366,682,l),
(366,700,l),
(11,700,l),
(11,682,l),
(37,682,ls),
(86,682,o),
(124,636,o),
(124,584,cs),
(124,533,o),
(124,166,o),
(124,125,cs),
(124,72,o),
(102,25,o),
(76,25,cs),
(58,25,o),
(27,25,o),
(13,25,c),
(13,0,l)
);
}
);
width = 703;
}
);
metricLeft = n;
metricRight = n;
unicode = 76;
},
{
glyphname = M;
lastChange = "2024-11-11 17:30:14 +0000";
layers = (
{
anchors = (
{
name = bottom;
pos = (465,0);
},
{
name = top;
pos = (465,700);
}
);
layerId = m01;
shapes = (
{
closed = 1;
nodes = (
(432,0,l),
(721,640,l),
(704,700,l),
(456,150,l),
(232,700,l),
(12,700,l),
(12,659,l),
(33,659,o),
(62,659,o),
(86,659,cs),
(118,659,o),
(161,609,o),
(190,538,cs),
(409,0,l)
);
},
{
closed = 1;
nodes = (
(270,0,l),
(270,27,l),
(260,27,o),
(252,27,o),
(241,27,cs),
(189,27,o),
(153,54,o),
(153,92,cs),
(153,656,l),
(127,656,l),
(127,484,o),
(127,187,o),
(127,141,cs),
(127,74,o),
(97,27,o),
(55,27,cs),
(11,27,l),
(11,0,l)
);
},
{
closed = 1;
nodes = (
(910,0,l),
(910,28,l),
(899,28,o),
(891,28,o),
(878,28,cs),
(833,28,o),
(803,53,o),
(803,88,cs),
(803,126,o),
(803,580,o),
(803,611,cs),
(803,640,o),
(821,660,o),
(847,660,cs),
(888,660,l),
(888,700,l),
(703,700,l),
(703,498,o),
(703,114,o),
(703,91,cs),
(703,54,o),
(695,28,o),
(682,28,cs),
(603,28,l),
(601,0,l)
);
}
);
width = 930;
},
{
anchors = (
{
name = bottom;
pos = (473,0);
},
{
name = top;
pos = (473,700);
}
);
layerId = m002;
shapes = (
{
closed = 1;
nodes = (
(445,0,l),
(734,640,l),
(717,700,l),
(469,150,l),
(245,700,l),
(25,700,l),
(25,662,l),
(46,662,o),
(75,662,o),
(99,662,cs),
(131,662,o),
(174,609,o),
(203,538,cs),
(422,0,l)
);
},
{
closed = 1;
nodes = (
(283,0,l),
(283,37,l),
(273,37,o),
(265,37,o),
(254,37,cs),
(202,37,o),
(166,54,o),
(166,92,cs),
(166,656,l),
(130,656,l),
(130,484,o),
(130,187,o),
(130,141,cs),
(130,74,o),
(110,37,o),
(68,37,cs),
(24,37,l),
(24,0,l)
);
},
{
closed = 1;
nodes = (
(923,0,l),
(923,38,l),
(912,38,o),
(904,38,o),
(891,38,cs),
(846,38,o),
(816,53,o),
(816,88,cs),
(816,126,o),
(816,580,o),
(816,611,cs),
(816,640,o),
(834,662,o),
(860,662,cs),
(901,662,l),
(901,700,l),
(716,700,l),
(716,498,o),
(716,114,o),
(716,91,cs),
(716,54,o),
(708,38,o),
(695,38,cs),
(616,38,l),
(614,0,l)
);
}
);
width = 946;
},
{
anchors = (
{
name = bottom;
pos = (479,0);
},
{
name = top;
pos = (479,700);
}
);
layerId = "CDB87FEA-4563-478E-BFE6-62102BA6A3F2";
shapes = (
{
closed = 1;
nodes = (
(455,0,l),
(744,640,l),
(727,700,l),
(479,150,l),
(255,700,l),
(35,700,l),
(35,664,l),
(56,664,o),
(85,664,o),
(109,664,cs),
(141,664,o),
(184,609,o),
(213,538,cs),
(432,0,l)
);
},
{
closed = 1;
nodes = (
(293,0,l),
(293,45,l),
(283,45,o),
(275,45,o),
(264,45,cs),
(212,45,o),
(176,54,o),
(176,92,cs),
(176,656,l),
(132,656,l),
(132,484,o),
(132,187,o),
(132,141,cs),
(132,74,o),
(120,45,o),
(78,45,cs),
(34,45,l),
(34,0,l)
);
},
{
closed = 1;
nodes = (
(933,0,l),
(933,46,l),
(922,46,o),
(914,46,o),
(901,46,cs),
(856,46,o),
(826,53,o),
(826,88,cs),
(826,126,o),
(826,580,o),
(826,611,cs),
(826,640,o),
(844,664,o),
(870,664,cs),
(911,664,l),
(911,700,l),
(726,700,l),
(726,498,o),
(726,114,o),
(726,91,cs),
(726,54,o),
(718,46,o),
(705,46,cs),
(626,46,l),
(624,0,l)
);
}
);
width = 958;
},
{
anchors = (
{
name = bottom;
pos = (457,0);
},
{
name = top;
pos = (457,700);
}
);
layerId = "574E12B0-2418-4D16-BF3A-251D49665871";
shapes = (
{
closed = 1;
nodes = (
(419,0,l),
(708,640,l),
(691,700,l),
(443,150,l),
(219,700,l),
(-1,700,l),
(-1,656,l),
(20,656,o),
(49,656,o),
(73,656,cs),
(105,656,o),
(148,609,o),
(177,538,cs),
(396,0,l)
);
},
{
closed = 1;
nodes = (
(257,0,l),
(257,17,l),
(247,17,o),
(239,17,o),
(228,17,cs),
(176,17,o),
(140,54,o),
(140,92,cs),
(140,656,l),
(124,656,l),
(124,484,o),
(124,187,o),
(124,141,cs),
(124,74,o),
(84,17,o),
(42,17,cs),
(-2,17,l),
(-2,0,l)
);
},
{
closed = 1;
nodes = (
(897,0,l),
(897,18,l),
(886,18,o),
(878,18,o),
(865,18,cs),
(820,18,o),
(790,53,o),
(790,88,cs),
(790,126,o),
(790,580,o),
(790,611,cs),
(790,640,o),
(808,658,o),
(834,658,cs),
(875,658,l),
(875,700,l),
(690,700,l),
(690,498,o),
(690,114,o),
(690,91,cs),
(690,54,o),
(682,18,o),
(669,18,cs),
(590,18,l),
(588,0,l)
);
}
);
width = 914;
}
);
metricLeft = n;
metricRight = n;
unicode = 77;
},
{
glyphname = N;
lastChange = "2024-11-11 17:30:14 +0000";
layers = (
{
anchors = (
{
name = bottom;
pos = (415,0);
},
{
name = top;
pos = (415,700);
}
);
layerId = m01;
shapes = (
{
closed = 1;
nodes = (
(721,-6,l),
(721,189,o),
(721,535,o),
(721,579,cs),
(721,633,o),
(757,672,o),
(809,672,cs),
(848,672,l),
(848,700,l),
(530,700,l),
(530,672,l),
(541,672,o),
(582,672,o),
(596,672,cs),
(639,672,o),
(669,640,o),
(669,594,cs),
(669,164,l),
(185,700,l),
(-5,697,l),
(-5,669,l),
(8,669,o),
(19,669,o),
(33,669,cs),
(59,669,o),
(91,654,o),
(110,634,cs),
(688,-6,l)
);
},
{
closed = 1;
nodes = (
(316,0,l),
(316,27,l),
(256,27,o),
(252,27,o),
(241,27,cs),
(189,27,o),
(153,54,o),
(153,92,cs),
(153,656,l),
(127,656,l),
(127,484,o),
(127,187,o),
(127,141,cs),
(127,74,o),
(97,27,o),
(55,27,cs),
(25,27,l),
(25,0,l)
);
}
);
width = 830;
},
{
anchors = (
{
name = bottom;
pos = (423,0);
},
{
name = top;
pos = (423,700);
}
);
layerId = m002;
shapes = (
{
closed = 1;
nodes = (
(734,-6,l),
(734,189,o),
(734,535,o),
(734,579,cs),
(734,633,o),
(770,662,o),
(822,662,cs),
(861,662,l),
(861,700,l),
(543,700,l),
(543,662,l),
(554,662,o),
(595,662,o),
(609,662,cs),
(652,662,o),
(682,640,o),
(682,594,cs),
(682,164,l),
(198,700,l),
(8,697,l),
(8,659,l),
(21,659,o),
(32,659,o),
(46,659,cs),
(72,659,o),
(104,654,o),
(123,634,cs),
(701,-6,l)
);
},
{
closed = 1;
nodes = (
(329,0,l),
(329,37,l),
(269,37,o),
(265,37,o),
(254,37,cs),
(202,37,o),
(166,64,o),
(166,92,cs),
(166,656,l),
(130,656,l),
(130,484,o),
(130,187,o),
(130,141,cs),
(130,74,o),
(110,37,o),
(68,37,cs),
(38,37,l),
(38,0,l)
);
}
);
width = 846;
},
{
anchors = (
{
name = bottom;
pos = (429,0);
},
{
name = top;
pos = (429,700);
}
);
layerId = "CDB87FEA-4563-478E-BFE6-62102BA6A3F2";
shapes = (
{
closed = 1;
nodes = (
(744,-6,l),
(744,189,o),
(744,535,o),
(744,579,cs),
(744,633,o),
(780,655,o),
(832,655,cs),
(871,655,l),
(871,700,l),
(553,700,l),
(553,655,l),
(564,655,o),
(605,655,o),
(619,655,cs),
(662,655,o),
(692,640,o),
(692,594,cs),
(692,164,l),
(208,700,l),
(18,697,l),
(18,652,l),
(31,652,o),
(42,652,o),
(56,652,cs),
(82,652,o),
(114,654,o),
(133,634,cs),
(711,-6,l)
);
},
{
closed = 1;
nodes = (
(339,0,l),
(339,45,l),
(279,45,o),
(275,45,o),
(264,45,cs),
(212,45,o),
(176,72,o),
(176,92,cs),
(176,656,l),
(132,656,l),
(132,484,o),
(132,187,o),
(132,141,cs),
(132,74,o),
(120,45,o),
(78,45,cs),
(48,45,l),
(48,0,l)
);
}
);
width = 858;
},
{
anchors = (
{
name = bottom;
pos = (407,0);
},
{
name = top;
pos = (407,700);
}
);
layerId = "574E12B0-2418-4D16-BF3A-251D49665871";
shapes = (
{
closed = 1;
nodes = (
(708,-6,l),
(708,189,o),
(708,535,o),
(708,579,cs),
(708,633,o),
(744,682,o),
(796,682,cs),
(835,682,l),
(835,700,l),
(517,700,l),
(517,682,l),
(528,682,o),
(569,682,o),
(583,682,cs),
(626,682,o),
(656,640,o),
(656,594,cs),
(656,164,l),
(172,700,l),
(-18,697,l),
(-18,679,l),
(-5,679,o),
(6,679,o),
(20,679,cs),
(46,679,o),
(78,654,o),
(97,634,cs),
(675,-6,l)
);
},
{
closed = 1;
nodes = (
(303,0,l),
(303,17,l),
(243,17,o),
(239,17,o),
(228,17,cs),
(176,17,o),
(140,44,o),
(140,92,cs),
(140,656,l),
(124,656,l),
(124,484,o),
(124,187,o),
(124,141,cs),
(124,74,o),
(84,17,o),
(42,17,cs),
(12,17,l),
(12,0,l)
);
}
);
width = 814;
}
);
metricLeft = n;
metricRight = n;
unicode = 78;
},
{
glyphname = O;
lastChange = "2024-11-11 17:30:14 +0000";
layers = (
{
anchors = (
{
name = bottom;
pos = (451,0);
},
{
name = center;
pos = (451,350);
},
{
name = ogonek;
pos = (812,10);
},
{
name = top;
pos = (451,700);
},
{
name = topleft;
pos = (20,700);
},
{
name = topright;
pos = (882,700);
}
);
layerId = m01;
shapes = (
{
closed = 1;
nodes = (
(675,-11,o),
(838,145,o),
(838,365,cs),
(838,572,o),
(676,719,o),
(448,719,cs),
(223,719,o),
(64,572,o),
(64,365,cs),
(64,145,o),
(221,-11,o),
(444,-11,cs)
);
},
{
closed = 1;
nodes = (
(308,19,o),
(198,179,o),
(198,405,cs),
(198,571,o),
(298,689,o),
(440,689,cs),
(595,689,o),
(705,539,o),
(705,326,cs),
(705,146,o),
(605,19,o),
(463,19,c)
);
}
);
width = 902;
},
{
anchors = (
{
name = bottom;
pos = (454,0);
},
{
name = center;
pos = (454,350);
},
{
name = ogonek;
pos = (817,10);
},
{
name = top;
pos = (454,700);
},
{
name = topleft;
pos = (20,700);
},
{
name = topright;
pos = (888,700);
}
);
layerId = m002;
shapes = (
{
closed = 1;
nodes = (
(678,-11,o),
(841,145,o),
(841,365,cs),
(841,572,o),
(679,719,o),
(451,719,cs),
(226,719,o),
(67,572,o),
(67,365,cs),
(67,145,o),
(224,-11,o),
(447,-11,cs)
);
},
{
closed = 1;
nodes = (
(311,29,o),
(201,179,o),
(201,405,cs),
(201,571,o),
(301,679,o),
(443,679,cs),
(598,679,o),
(708,539,o),
(708,326,cs),
(708,146,o),
(608,29,o),
(466,29,c)
);
}
);
width = 908;
},
{
anchors = (
{
name = bottom;
pos = (457,0);
},
{
name = center;
pos = (457,350);
},
{
name = ogonek;
pos = (822,10);
},
{
name = top;
pos = (456,700);
},
{
name = topleft;
pos = (20,700);
},
{
name = topright;
pos = (893,700);
}
);
layerId = "CDB87FEA-4563-478E-BFE6-62102BA6A3F2";
shapes = (
{
closed = 1;
nodes = (
(680,-11,o),
(843,145,o),
(843,365,cs),
(843,572,o),
(681,719,o),
(453,719,cs),
(228,719,o),
(69,572,o),
(69,365,cs),
(69,145,o),
(226,-11,o),
(449,-11,cs)
);
},
{
closed = 1;
nodes = (
(313,37,o),
(203,179,o),
(203,405,cs),
(203,571,o),
(303,672,o),
(445,672,cs),
(600,672,o),
(710,539,o),
(710,326,cs),
(710,146,o),
(610,37,o),
(468,37,cs)
);
}
);
width = 913;
},
{
anchors = (
{
name = bottom;
pos = (448,0);
},
{
name = center;
pos = (448,350);
},
{
name = ogonek;
pos = (806,10);
},
{
name = top;
pos = (448,700);
},
{
name = topleft;
pos = (20,700);
},
{
name = topright;
pos = (876,700);
}
);
layerId = "574E12B0-2418-4D16-BF3A-251D49665871";
shapes = (
{
closed = 1;
nodes = (
(672,-11,o),
(835,145,o),
(835,365,cs),
(835,572,o),
(673,719,o),
(445,719,cs),
(220,719,o),
(61,572,o),
(61,365,cs),
(61,145,o),
(218,-11,o),
(441,-11,cs)
);
},
{
closed = 1;
nodes = (
(305,9,o),
(195,179,o),
(195,405,cs),
(195,571,o),
(295,699,o),
(437,699,cs),
(592,699,o),
(702,539,o),
(702,326,cs),
(702,146,o),
(602,9,o),
(460,9,cs)
);
}
);
width = 896;
}
);
metricLeft = o;
metricRight = o;
unicode = 79;
},
{
glyphname = OE;
lastChange = "2024-11-11 17:30:14 +0000";
layers = (
{
anchors = (
{
name = bottom;
pos = (601,0);
},
{
name = top;
pos = (601,700);
}
);
layerId = m01;
shapes = (
{
closed = 1;
nodes = (
(609,-11,o),
(754,136,o),
(754,345,cs),
(754,564,o),
(610,719,o),
(406,719,cs),
(206,719,o),
(64,564,o),
(64,345,cs),
(64,136,o),
(204,-11,o),
(403,-11,cs)
);
},
{
closed = 1;
nodes = (
(287,19,o),
(193,171,o),
(193,385,cs),
(193,563,o),
(278,689,o),
(399,689,cs),
(531,689,o),
(625,530,o),
(625,306,cs),
(625,138,o),
(540,19,o),
(420,19,c)
);
},
{
closed = 1;
nodes = (
(989,200,l),
(985,277,o),
(985,385,o),
(989,462,c),
(961,462,l),
(961,399,o),
(935,354,o),
(898,354,cs),
(689,354,l),
(698,304,l),
(761,304,o),
(883,304,o),
(908,304,cs),
(940,304,o),
(962,261,o),
(962,200,c)
);
},
{
closed = 1;
nodes = (
(494,-1,l),
(1078,-1,l),
(1157,163,l),
(1132,178,l),
(1088,105,o),
(1024,54,o),
(977,54,cs),
(965,54,o),
(614,54,o),
(564,54,c)
);
},
{
closed = 1;
nodes = (
(525,645,l),
(562,645,o),
(937,645,o),
(945,645,cs),
(1006,645,o),
(1050,598,o),
(1050,531,c),
(1078,531,l),
(1078,700,l),
(1011,700,o),
(546,700,o),
(495,700,c)
);
}
);
width = 1202;
},
{
anchors = (
{
name = bottom;
pos = (604,0);
},
{
name = top;
pos = (604,700);
}
);
layerId = m002;
shapes = (
{
closed = 1;
nodes = (
(612,-11,o),
(757,136,o),
(757,345,cs),
(757,564,o),
(613,719,o),
(409,719,cs),
(209,719,o),
(67,564,o),
(67,345,cs),
(67,136,o),
(207,-11,o),
(406,-11,cs)
);
},
{
closed = 1;
nodes = (
(290,29,o),
(196,171,o),
(196,385,cs),
(196,563,o),
(281,679,o),
(402,679,cs),
(534,679,o),
(628,530,o),
(628,306,cs),
(628,138,o),
(543,29,o),
(423,29,c)
);
},
{
closed = 1;
nodes = (
(1002,200,l),
(998,277,o),
(998,385,o),
(1002,462,c),
(964,462,l),
(964,399,o),
(938,354,o),
(901,354,cs),
(692,354,l),
(701,304,l),
(764,304,o),
(886,304,o),
(911,304,cs),
(943,304,o),
(965,261,o),
(965,200,c)
);
},
{
closed = 1;
nodes = (
(497,-1,l),
(1081,-1,l),
(1160,163,l),
(1125,178,l),
(1081,105,o),
(1027,59,o),
(980,59,cs),
(968,59,o),
(617,59,o),
(567,59,c)
);
},
{
closed = 1;
nodes = (
(528,640,l),
(565,640,o),
(940,640,o),
(948,640,cs),
(1009,640,o),
(1043,598,o),
(1043,531,c),
(1081,531,l),
(1081,700,l),
(1014,700,o),
(549,700,o),
(498,700,c)
);
}
);
width = 1208;
},
{
anchors = (
{
name = bottom;
pos = (607,0);
},
{
name = top;
pos = (607,700);
}
);
layerId = "CDB87FEA-4563-478E-BFE6-62102BA6A3F2";
shapes = (
{
closed = 1;
nodes = (
(614,-11,o),
(759,136,o),
(759,345,cs),
(759,564,o),
(615,719,o),
(411,719,cs),
(211,719,o),
(69,564,o),
(69,345,cs),
(69,136,o),
(209,-11,o),
(408,-11,cs)
);
},
{
closed = 1;
nodes = (
(292,37,o),
(198,171,o),
(198,385,cs),
(198,563,o),
(283,672,o),
(404,672,cs),
(536,672,o),
(630,530,o),
(630,306,cs),
(630,138,o),
(545,37,o),
(425,37,cs)
);
},
{
closed = 1;
nodes = (
(1012,200,l),
(1008,277,o),
(1008,385,o),
(1012,462,c),
(966,462,l),
(966,399,o),
(940,354,o),
(903,354,cs),
(694,354,l),
(703,304,l),
(766,304,o),
(888,304,o),
(913,304,cs),
(945,304,o),
(967,261,o),
(967,200,c)
);
},
{
closed = 1;
nodes = (
(499,-1,l),
(1083,-1,l),
(1162,163,l),
(1120,178,l),
(1076,105,o),
(1029,63,o),
(982,63,cs),
(970,63,o),
(619,63,o),
(569,63,c)
);
},
{
closed = 1;
nodes = (
(530,636,l),
(567,636,o),
(942,636,o),
(950,636,cs),
(1011,636,o),
(1038,598,o),
(1038,531,c),
(1083,531,l),
(1083,700,l),
(1016,700,o),
(551,700,o),
(500,700,c)
);
}
);
width = 1213;
},
{
anchors = (
{
name = bottom;
pos = (598,0);
},
{
name = top;
pos = (598,700);
}
);
layerId = "574E12B0-2418-4D16-BF3A-251D49665871";
shapes = (
{
closed = 1;
nodes = (
(606,-11,o),
(751,136,o),
(751,345,cs),
(751,564,o),
(607,719,o),
(403,719,cs),
(203,719,o),
(61,564,o),
(61,345,cs),
(61,136,o),
(201,-11,o),
(400,-11,cs)
);
},
{
closed = 1;
nodes = (
(284,9,o),
(190,171,o),
(190,385,cs),
(190,563,o),
(275,699,o),
(396,699,cs),
(528,699,o),
(622,530,o),
(622,306,cs),
(622,138,o),
(537,9,o),
(417,9,cs)
);
},
{
closed = 1;
nodes = (
(976,200,l),
(972,277,o),
(972,385,o),
(976,462,c),
(958,462,l),
(958,399,o),
(932,354,o),
(895,354,cs),
(686,354,l),
(695,304,l),
(758,304,o),
(880,304,o),
(905,304,cs),
(937,304,o),
(959,261,o),
(959,200,c)
);
},
{
closed = 1;
nodes = (
(491,-1,l),
(1075,-1,l),
(1154,163,l),
(1139,178,l),
(1095,105,o),
(1021,49,o),
(974,49,cs),
(962,49,o),
(611,49,o),
(561,49,c)
);
},
{
closed = 1;
nodes = (
(522,650,l),
(559,650,o),
(934,650,o),
(942,650,cs),
(1003,650,o),
(1057,598,o),
(1057,531,c),
(1075,531,l),
(1075,700,l),
(1008,700,o),
(543,700,o),
(492,700,c)
);
}
);
width = 1196;
}
);
metricLeft = O;
metricRight = E;
unicode = 338;
},
{
glyphname = P;
lastChange = "2024-11-11 17:30:14 +0000";
layers = (
{
anchors = (
{
name = bottom;
pos = (302,0);
},
{
name = top;
pos = (302,700);
}
);
layerId = m01;
shapes = (
{
closed = 1;
nodes = (
(340,0,l),
(340,28,l),
(333,28,o),
(310,28,o),
(300,28,cs),
(260,28,o),
(227,57,o),
(227,98,cs),
(227,148,o),
(227,626,o),
(227,642,cs),
(227,657,o),
(252,667,o),
(280,667,cs),
(384,667,o),
(458,595,o),
(458,486,cs),
(458,382,o),
(396,309,o),
(308,309,c),
(308,279,l),
(466,279,o),
(577,369,o),
(577,497,cs),
(577,616,o),
(472,702,o),
(323,702,cs),
(269,702,o),
(185,699,o),
(157,699,cs),
(141,699,o),
(87,702,o),
(27,702,c),
(27,672,l),
(82,672,o),
(127,653,o),
(127,625,cs),
(127,579,o),
(127,81,o),
(127,63,cs),
(127,43,o),
(104,28,o),
(81,28,cs),
(44,28,l),
(44,0,l)
);
}
);
width = 604;
},
{
anchors = (
{
name = bottom;
pos = (305,0);
},
{
name = top;
pos = (305,700);
}
);
layerId = m002;
shapes = (
{
closed = 1;
nodes = (
(343,0,l),
(343,38,l),
(336,38,o),
(313,38,o),
(303,38,cs),
(263,38,o),
(230,57,o),
(230,98,cs),
(230,148,o),
(230,616,o),
(230,632,cs),
(230,647,o),
(255,657,o),
(283,657,cs),
(387,657,o),
(461,595,o),
(461,486,cs),
(461,382,o),
(399,319,o),
(311,319,c),
(311,279,l),
(469,279,o),
(580,369,o),
(580,497,cs),
(580,616,o),
(475,702,o),
(326,702,cs),
(272,702,o),
(188,699,o),
(160,699,cs),
(144,699,o),
(90,702,o),
(30,702,c),
(30,662,l),
(85,662,o),
(130,653,o),
(130,625,cs),
(130,579,o),
(130,81,o),
(130,63,cs),
(130,43,o),
(107,38,o),
(84,38,cs),
(47,38,l),
(47,0,l)
);
}
);
width = 610;
},
{
anchors = (
{
name = bottom;
pos = (308,0);
},
{
name = top;
pos = (308,700);
}
);
layerId = "CDB87FEA-4563-478E-BFE6-62102BA6A3F2";
shapes = (
{
closed = 1;
nodes = (
(345,0,l),
(345,46,l),
(338,46,o),
(315,46,o),
(305,46,cs),
(265,46,o),
(232,57,o),
(232,98,cs),
(232,148,o),
(232,609,o),
(232,625,cs),
(232,640,o),
(257,650,o),
(285,650,cs),
(389,650,o),
(463,595,o),
(463,486,cs),
(463,382,o),
(401,327,o),
(313,327,c),
(313,279,l),
(471,279,o),
(582,369,o),
(582,497,cs),
(582,616,o),
(477,702,o),
(328,702,cs),
(274,702,o),
(190,699,o),
(162,699,cs),
(146,699,o),
(92,702,o),
(32,702,c),
(32,655,l),
(87,655,o),
(132,653,o),
(132,625,cs),
(132,579,o),
(132,81,o),
(132,63,cs),
(132,43,o),
(109,46,o),
(86,46,cs),
(49,46,l),
(49,0,l)
);
}
);
width = 615;
},
{
anchors = (
{
name = bottom;
pos = (299,0);
},
{
name = top;
pos = (299,700);
}
);
layerId = "574E12B0-2418-4D16-BF3A-251D49665871";
shapes = (
{
closed = 1;
nodes = (
(337,0,l),
(337,18,l),
(330,18,o),
(307,18,o),
(297,18,cs),
(257,18,o),
(224,57,o),
(224,98,cs),
(224,148,o),
(224,636,o),
(224,652,cs),
(224,667,o),
(249,677,o),
(277,677,cs),
(381,677,o),
(455,595,o),
(455,486,cs),
(455,382,o),
(393,299,o),
(305,299,c),
(305,279,l),
(463,279,o),
(574,369,o),
(574,497,cs),
(574,616,o),
(469,702,o),
(320,702,cs),
(266,702,o),
(182,699,o),
(154,699,cs),
(138,699,o),
(84,702,o),
(24,702,c),
(24,682,l),
(79,682,o),
(124,653,o),
(124,625,cs),
(124,579,o),
(124,81,o),
(124,63,cs),
(124,43,o),
(101,18,o),
(78,18,cs),
(41,18,l),
(41,0,l)
);
}
);
width = 598;
}
);
unicode = 80;
},
{
glyphname = Q;
lastChange = "2024-11-11 17:30:14 +0000";
layers = (
{
anchors = (
{
name = bottom;
pos = (451,0);
},
{
name = top;
pos = (451,700);
}
);
layerId = m01;
shapes = (
{
closed = 1;
nodes = (
(675,-18,o),
(838,138,o),
(838,358,cs),
(838,565,o),
(676,712,o),
(448,712,cs),
(223,712,o),
(64,565,o),
(64,358,cs),
(64,138,o),
(221,-18,o),
(444,-18,cs)
);
},
{
closed = 1;
nodes = (
(1083,-175,o),
(1127,-171,o),
(1156,-165,c),
(1156,-140,l),
(903,-153,o),
(665,-84,o),
(581,27,c),
(527,8,o),
(478,-5,o),
(463,-5,cs),
(432,-5,o),
(376,13,o),
(329,38,c),
(335,8,l),
(502,-99,o),
(799,-175,o),
(1050,-175,cs)
);
},
{
closed = 1;
nodes = (
(308,12,o),
(198,172,o),
(198,398,cs),
(198,564,o),
(298,682,o),
(440,682,cs),
(595,682,o),
(705,532,o),
(705,319,cs),
(705,139,o),
(605,12,o),
(463,12,cs)
);
}
);
width = 902;
},
{
anchors = (
{
name = bottom;
pos = (454,0);
},
{
name = top;
pos = (454,700);
}
);
layerId = m002;
shapes = (
{
closed = 1;
nodes = (
(678,-18,o),
(841,138,o),
(841,358,cs),
(841,565,o),
(679,712,o),
(451,712,cs),
(226,712,o),
(67,565,o),
(67,358,cs),
(67,138,o),
(224,-18,o),
(447,-18,cs)
);
},
{
closed = 1;
nodes = (
(1086,-175,o),
(1130,-171,o),
(1159,-165,c),
(1159,-130,l),
(906,-143,o),
(668,-84,o),
(584,27,c),
(530,8,o),
(481,-5,o),
(466,-5,cs),
(435,-5,o),
(379,13,o),
(332,38,c),
(338,8,l),
(505,-99,o),
(802,-175,o),
(1053,-175,cs)
);
},
{
closed = 1;
nodes = (
(311,22,o),
(201,172,o),
(201,398,cs),
(201,564,o),
(301,672,o),
(443,672,cs),
(598,672,o),
(708,532,o),
(708,319,cs),
(708,139,o),
(608,22,o),
(466,22,cs)
);
}
);
width = 908;
},
{
anchors = (
{
name = bottom;
pos = (457,0);
},
{
name = top;
pos = (457,700);
}
);
layerId = "CDB87FEA-4563-478E-BFE6-62102BA6A3F2";
shapes = (
{
closed = 1;
nodes = (
(680,-18,o),
(843,138,o),
(843,358,cs),
(843,565,o),
(681,712,o),
(453,712,cs),
(228,712,o),
(69,565,o),
(69,358,cs),
(69,138,o),
(226,-18,o),
(449,-18,cs)
);
},
{
closed = 1;
nodes = (
(1088,-175,o),
(1132,-171,o),
(1161,-165,c),
(1161,-122,l),
(908,-135,o),
(670,-84,o),
(586,27,c),
(532,8,o),
(483,-5,o),
(468,-5,cs),
(437,-5,o),
(381,13,o),
(334,38,c),
(340,8,l),
(507,-99,o),
(804,-175,o),
(1055,-175,cs)
);
},
{
closed = 1;
nodes = (
(313,30,o),
(203,172,o),
(203,398,cs),
(203,564,o),
(303,665,o),
(445,665,cs),
(600,665,o),
(710,532,o),
(710,319,cs),
(710,139,o),
(610,30,o),
(468,30,cs)
);
}
);
width = 913;
},
{
anchors = (
{
name = bottom;
pos = (448,0);
},
{
name = top;
pos = (448,700);
}
);
layerId = "574E12B0-2418-4D16-BF3A-251D49665871";
shapes = (
{
closed = 1;
nodes = (
(672,-18,o),
(835,138,o),
(835,358,cs),
(835,565,o),
(673,712,o),
(445,712,cs),
(220,712,o),
(61,565,o),
(61,358,cs),
(61,138,o),
(218,-18,o),
(441,-18,cs)
);
},
{
closed = 1;
nodes = (
(1080,-175,o),
(1124,-171,o),
(1153,-165,c),
(1153,-150,l),
(900,-163,o),
(662,-84,o),
(578,27,c),
(524,8,o),
(475,-5,o),
(460,-5,cs),
(429,-5,o),
(373,13,o),
(326,38,c),
(332,8,l),
(499,-99,o),
(796,-175,o),
(1047,-175,cs)
);
},
{
closed = 1;
nodes = (
(305,2,o),
(195,172,o),
(195,398,cs),
(195,564,o),
(295,692,o),
(437,692,cs),
(592,692,o),
(702,532,o),
(702,319,cs),
(702,139,o),
(602,2,o),
(460,2,cs)
);
}
);
width = 896;
}
);
metricLeft = O;
unicode = 81;
},
{
glyphname = R;
lastChange = "2024-11-11 17:30:14 +0000";
layers = (
{
anchors = (
{
name = bottom;
pos = (381,0);
},
{
name = top;
pos = (381,700);
}
);
layerId = m01;
shapes = (
{
closed = 1;
nodes = (
(657,-3,o),
(723,-2,o),
(753,0,c),
(753,29,l),
(752,28,o),
(735,28,o),
(713,28,cs),
(687,28,o),
(631,46,o),
(611,71,cs),
(481,231,o),
(377,345,o),
(360,362,c),
(380,328,l),
(504,352,o),
(592,439,o),
(592,537,cs),
(592,627,o),
(493,700,o),
(353,700,cs),
(312,700,o),
(200,698,o),
(170,698,cs),
(119,698,o),
(69,700,o),
(18,700,c),
(18,672,l),
(25,672,o),
(24,672,o),
(39,672,cs),
(86,672,o),
(127,639,o),
(127,593,cs),
(127,539,o),
(127,103,o),
(127,73,cs),
(127,47,o),
(100,28,o),
(72,28,cs),
(40,28,l),
(40,0,l),
(320,0,l),
(320,28,l),
(306,28,o),
(287,28,o),
(257,28,cs),
(243,28,o),
(227,46,o),
(227,72,cs),
(227,116,o),
(227,588,o),
(227,625,cs),
(227,648,o),
(251,665,o),
(276,665,cs),
(300,665,o),
(316,665,o),
(339,665,cs),
(415,665,o),
(468,601,o),
(468,517,cs),
(468,426,o),
(393,362,o),
(287,362,cs),
(173,362,l),
(173,327,l),
(278,327,l),
(355,219,o),
(442,114,o),
(488,60,cs),
(519,23,o),
(559,-3,o),
(593,-3,cs)
);
}
);
width = 762;
},
{
anchors = (
{
name = bottom;
pos = (384,0);
},
{
name = top;
pos = (384,700);
}
);
layerId = m002;
shapes = (
{
closed = 1;
nodes = (
(660,-3,o),
(726,-2,o),
(756,0,c),
(756,39,l),
(755,38,o),
(738,38,o),
(716,38,cs),
(690,38,o),
(634,56,o),
(614,81,cs),
(484,241,o),
(380,345,o),
(363,362,c),
(383,328,l),
(507,352,o),
(595,439,o),
(595,537,cs),
(595,627,o),
(496,700,o),
(356,700,cs),
(315,700,o),
(203,698,o),
(173,698,cs),
(122,698,o),
(72,700,o),
(21,700,c),
(21,662,l),
(28,662,o),
(27,662,o),
(42,662,cs),
(89,662,o),
(130,639,o),
(130,593,cs),
(130,539,o),
(130,103,o),
(130,73,cs),
(130,47,o),
(103,38,o),
(75,38,cs),
(43,38,l),
(43,0,l),
(323,0,l),
(323,38,l),
(309,38,o),
(290,38,o),
(260,38,cs),
(246,38,o),
(230,56,o),
(230,72,cs),
(230,116,o),
(230,588,o),
(230,625,cs),
(230,638,o),
(254,655,o),
(279,655,cs),
(303,655,o),
(319,655,o),
(342,655,cs),
(418,655,o),
(471,601,o),
(471,517,cs),
(471,426,o),
(396,372,o),
(290,372,cs),
(176,372,l),
(176,327,l),
(281,327,l),
(358,219,o),
(445,114,o),
(491,60,cs),
(522,23,o),
(562,-3,o),
(596,-3,cs)
);
}
);
width = 768;
},
{
anchors = (
{
name = bottom;
pos = (387,0);
},
{
name = top;
pos = (387,700);
}
);
layerId = "CDB87FEA-4563-478E-BFE6-62102BA6A3F2";
shapes = (
{
closed = 1;
nodes = (
(662,-3,o),
(728,-2,o),
(758,0,c),
(758,47,l),
(757,46,o),
(740,46,o),
(718,46,cs),
(692,46,o),
(636,64,o),
(616,89,cs),
(486,249,o),
(382,345,o),
(365,362,c),
(385,328,l),
(509,352,o),
(597,439,o),
(597,537,cs),
(597,627,o),
(498,700,o),
(358,700,cs),
(317,700,o),
(205,698,o),
(175,698,cs),
(124,698,o),
(74,700,o),
(23,700,c),
(23,655,l),
(30,655,o),
(29,655,o),
(44,655,cs),
(91,655,o),
(132,639,o),
(132,593,cs),
(132,539,o),
(132,103,o),
(132,73,cs),
(132,47,o),
(105,46,o),
(77,46,cs),
(45,46,l),
(45,0,l),
(325,0,l),
(325,46,l),
(311,46,o),
(292,46,o),
(262,46,cs),
(248,46,o),
(232,64,o),
(232,72,cs),
(232,116,o),
(232,588,o),
(232,625,cs),
(232,631,o),
(256,648,o),
(281,648,cs),
(305,648,o),
(321,648,o),
(344,648,cs),
(420,648,o),
(473,601,o),
(473,517,cs),
(473,426,o),
(398,380,o),
(292,380,cs),
(178,380,l),
(178,327,l),
(283,327,l),
(360,219,o),
(447,114,o),
(493,60,cs),
(524,23,o),
(564,-3,o),
(598,-3,cs)
);
}
);
width = 773;
},
{
anchors = (
{
name = bottom;
pos = (378,0);
},
{
name = top;
pos = (378,700);
}
);
layerId = "574E12B0-2418-4D16-BF3A-251D49665871";
shapes = (
{
closed = 1;
nodes = (
(654,-3,o),
(720,-2,o),
(750,0,c),
(750,19,l),
(749,18,o),
(732,18,o),
(710,18,cs),
(684,18,o),
(628,36,o),
(608,61,cs),
(478,221,o),
(374,345,o),
(357,362,c),
(377,328,l),
(501,352,o),
(589,439,o),
(589,537,cs),
(589,627,o),
(490,700,o),
(350,700,cs),
(309,700,o),
(197,698,o),
(167,698,cs),
(116,698,o),
(66,700,o),
(15,700,c),
(15,682,l),
(22,682,o),
(21,682,o),
(36,682,cs),
(83,682,o),
(124,639,o),
(124,593,cs),
(124,539,o),
(124,103,o),
(124,73,cs),
(124,47,o),
(97,18,o),
(69,18,cs),
(37,18,l),
(37,0,l),
(317,0,l),
(317,18,l),
(303,18,o),
(284,18,o),
(254,18,cs),
(240,18,o),
(224,36,o),
(224,72,cs),
(224,116,o),
(224,588,o),
(224,625,cs),
(224,658,o),
(248,675,o),
(273,675,cs),
(297,675,o),
(313,675,o),
(336,675,cs),
(412,675,o),
(465,601,o),
(465,517,cs),
(465,426,o),
(390,352,o),
(284,352,cs),
(170,352,l),
(170,327,l),
(275,327,l),
(352,219,o),
(439,114,o),
(485,60,cs),
(516,23,o),
(556,-3,o),
(590,-3,cs)
);
}
);
width = 756;
}
);
unicode = 82;
},
{
glyphname = S;
lastChange = "2024-11-11 17:30:14 +0000";
layers = (
{
anchors = (
{
name = bottom;
pos = (289,0);
},
{
name = top;
pos = (289,700);
}
);
layerId = m01;
shapes = (
{
closed = 1;
nodes = (
(410,-16,o),
(514,71,o),
(514,194,cs),
(514,395,o),
(182,384,o),
(182,563,cs),
(182,633,o),
(234,682,o),
(300,682,cs),
(377,682,o),
(443,618,o),
(460,527,c),
(476,527,l),
(476,704,l),
(451,704,l),
(434,673,l),
(406,696,o),
(352,712,o),
(302,712,cs),
(171,712,o),
(78,634,o),
(78,524,cs),
(78,329,o),
(409,334,o),
(409,148,cs),
(409,70,o),
(348,14,o),
(266,14,cs),
(164,14,o),
(90,95,o),
(88,209,c),
(55,209,l),
(55,80,l),
(96,22,o),
(182,-16,o),
(262,-16,cs)
);
}
);
width = 578;
},
{
anchors = (
{
name = bottom;
pos = (292,0);
},
{
name = top;
pos = (292,700);
}
);
layerId = m002;
shapes = (
{
closed = 1;
nodes = (
(413,-16,o),
(517,71,o),
(517,194,cs),
(517,395,o),
(185,384,o),
(185,563,cs),
(185,633,o),
(237,672,o),
(303,672,cs),
(380,672,o),
(436,618,o),
(453,527,c),
(479,527,l),
(479,704,l),
(454,704,l),
(437,673,l),
(409,696,o),
(355,712,o),
(305,712,cs),
(174,712,o),
(81,634,o),
(81,524,cs),
(81,329,o),
(412,334,o),
(412,148,cs),
(412,70,o),
(351,24,o),
(269,24,cs),
(167,24,o),
(103,95,o),
(101,209,c),
(58,209,l),
(58,80,l),
(99,32,o),
(185,-16,o),
(265,-16,cs)
);
}
);
width = 584;
},
{
anchors = (
{
name = bottom;
pos = (295,0);
},
{
name = top;
pos = (295,700);
}
);
layerId = "CDB87FEA-4563-478E-BFE6-62102BA6A3F2";
shapes = (
{
closed = 1;
nodes = (
(415,-16,o),
(519,71,o),
(519,194,cs),
(519,395,o),
(187,384,o),
(187,563,cs),
(187,633,o),
(239,665,o),
(305,665,cs),
(382,665,o),
(431,618,o),
(448,527,c),
(481,527,l),
(481,704,l),
(456,704,l),
(439,673,l),
(411,696,o),
(357,712,o),
(307,712,cs),
(176,712,o),
(83,634,o),
(83,524,cs),
(83,329,o),
(414,334,o),
(414,148,cs),
(414,70,o),
(353,32,o),
(271,32,cs),
(169,32,o),
(113,95,o),
(111,209,c),
(60,209,l),
(60,80,l),
(101,40,o),
(187,-16,o),
(267,-16,cs)
);
}
);
width = 589;
},
{
anchors = (
{
name = bottom;
pos = (286,0);
},
{
name = top;
pos = (286,700);
}
);
layerId = "574E12B0-2418-4D16-BF3A-251D49665871";
shapes = (
{
closed = 1;
nodes = (
(407,-16,o),
(511,71,o),
(511,194,cs),
(511,395,o),
(179,384,o),
(179,563,cs),
(179,633,o),
(231,692,o),
(297,692,cs),
(374,692,o),
(450,618,o),
(467,527,c),
(473,527,l),
(473,704,l),
(448,704,l),
(431,673,l),
(403,696,o),
(349,712,o),
(299,712,cs),
(168,712,o),
(75,634,o),
(75,524,cs),
(75,329,o),
(406,334,o),
(406,148,cs),
(406,70,o),
(345,4,o),
(263,4,cs),
(161,4,o),
(77,95,o),
(75,209,c),
(52,209,l),
(52,80,l),
(93,12,o),
(179,-16,o),
(259,-16,cs)
);
}
);
width = 572;
}
);
metricLeft = n;
metricRight = n;
unicode = 83;
},
{
glyphname = T;
lastChange = "2024-11-11 17:30:14 +0000";
layers = (
{
anchors = (
{
name = bottom;
pos = (349,0);
},
{
name = center;
pos = (349,350);
},
{
name = top;
pos = (349,700);
}
);
layerId = m01;
shapes = (
{
closed = 1;
nodes = (
(514,0,l),
(514,28,l),
(503,28,o),
(495,28,o),
(481,28,cs),
(467,28,o),
(405,32,o),
(405,66,cs),
(405,695,l),
(305,695,l),
(305,497,o),
(305,104,o),
(305,95,cs),
(305,68,o),
(278,24,o),
(241,24,cs),
(213,24,l),
(213,0,l)
);
},
{
closed = 1;
nodes = (
(689,552,l),
(673,713,l),
(629,700,l),
(62,700,l),
(27,711,l),
(9,562,l),
(25,556,l),
(82,665,l),
(608,665,l),
(670,546,l)
);
}
);
width = 698;
},
{
anchors = (
{
name = bottom;
pos = (352,0);
},
{
name = center;
pos = (352,350);
},
{
name = top;
pos = (352,700);
}
);
layerId = m002;
shapes = (
{
closed = 1;
nodes = (
(517,0,l),
(517,38,l),
(506,38,o),
(498,38,o),
(484,38,cs),
(470,38,o),
(408,42,o),
(408,66,cs),
(408,695,l),
(308,695,l),
(308,497,o),
(308,104,o),
(308,95,cs),
(308,68,o),
(281,34,o),
(244,34,cs),
(216,34,l),
(216,0,l)
);
},
{
closed = 1;
nodes = (
(692,552,l),
(676,713,l),
(632,700,l),
(65,700,l),
(30,711,l),
(12,562,l),
(38,556,l),
(85,655,l),
(611,655,l),
(663,546,l)
);
}
);
width = 704;
},
{
anchors = (
{
name = bottom;
pos = (355,0);
},
{
name = center;
pos = (355,350);
},
{
name = top;
pos = (355,700);
}
);
layerId = "CDB87FEA-4563-478E-BFE6-62102BA6A3F2";
shapes = (
{
closed = 1;
nodes = (
(519,0,l),
(519,46,l),
(508,46,o),
(500,46,o),
(486,46,cs),
(472,46,o),
(410,50,o),
(410,66,cs),
(410,695,l),
(310,695,l),
(310,497,o),
(310,104,o),
(310,95,cs),
(310,68,o),
(283,42,o),
(246,42,cs),
(218,42,l),
(218,0,l)
);
},
{
closed = 1;
nodes = (
(694,552,l),
(678,713,l),
(634,700,l),
(67,700,l),
(32,711,l),
(14,562,l),
(48,556,l),
(87,648,l),
(613,648,l),
(658,546,l)
);
}
);
width = 709;
},
{
anchors = (
{
name = bottom;
pos = (346,0);
},
{
name = center;
pos = (346,350);
},
{
name = top;
pos = (346,700);
}
);
layerId = "574E12B0-2418-4D16-BF3A-251D49665871";
shapes = (
{
closed = 1;
nodes = (
(511,0,l),
(511,18,l),
(500,18,o),
(492,18,o),
(478,18,cs),
(464,18,o),
(402,22,o),
(402,66,cs),
(402,695,l),
(302,695,l),
(302,497,o),
(302,104,o),
(302,95,cs),
(302,68,o),
(275,14,o),
(238,14,cs),
(210,14,l),
(210,0,l)
);
},
{
closed = 1;
nodes = (
(686,552,l),
(670,713,l),
(626,700,l),
(59,700,l),
(24,711,l),
(6,562,l),
(12,556,l),
(79,675,l),
(605,675,l),
(677,546,l)
);
}
);
width = 692;
}
);
metricLeft = n;
metricRight = n;
unicode = 84;
},
{
glyphname = U;
lastChange = "2024-11-11 17:30:14 +0000";
layers = (
{
anchors = (
{
name = bottom;
pos = (415,0);
},
{
name = ogonek;
pos = (746,10);
},
{
name = top;
pos = (415,700);
},
{
name = topright;
pos = (809,700);
}
);
layerId = m01;
shapes = (
{
closed = 1;
nodes = (
(602,-11,o),
(743,95,o),
(743,246,cs),
(743,447,o),
(743,578,o),
(743,611,cs),
(743,642,o),
(763,671,o),
(796,671,cs),
(810,671,l),
(810,699,l),
(530,699,l),
(530,671,l),
(567,671,o),
(628,671,o),
(641,671,cs),
(671,671,o),
(693,634,o),
(693,603,cs),
(693,578,o),
(693,256,o),
(693,241,cs),
(693,118,o),
(580,31,o),
(420,31,cs),
(298,31,o),
(198,98,o),
(198,193,cs),
(198,259,o),
(198,606,o),
(198,626,cs),
(198,656,o),
(233,671,o),
(263,671,cs),
(279,671,l),
(279,699,l),
(39,699,l),
(39,671,l),
(46,671,o),
(52,671,o),
(61,671,cs),
(79,671,o),
(98,631,o),
(98,570,cs),
(98,514,o),
(98,244,o),
(98,192,cs),
(98,73,o),
(222,-11,o),
(406,-11,cs)
);
}
);
width = 829;
},
{
anchors = (
{
name = bottom;
pos = (416,0);
},
{
name = ogonek;
pos = (749,10);
},
{
name = top;
pos = (416,700);
},
{
name = topright;
pos = (812,700);
}
);
layerId = m002;
shapes = (
{
closed = 1;
nodes = (
(605,-11,o),
(745,100,o),
(745,256,cs),
(745,457,o),
(745,578,o),
(745,611,cs),
(745,642,o),
(765,661,o),
(798,661,cs),
(812,661,l),
(812,699,l),
(532,699,l),
(532,661,l),
(569,661,o),
(630,661,o),
(643,661,cs),
(673,661,o),
(685,634,o),
(685,603,cs),
(685,578,o),
(685,266,o),
(685,251,cs),
(685,128,o),
(576,41,o),
(422,41,cs),
(292,41,o),
(200,108,o),
(200,203,cs),
(200,269,o),
(200,606,o),
(200,626,cs),
(200,656,o),
(235,661,o),
(265,661,cs),
(281,661,l),
(281,699,l),
(41,699,l),
(41,661,l),
(48,661,o),
(54,661,o),
(63,661,cs),
(81,661,o),
(100,631,o),
(100,570,cs),
(100,514,o),
(100,254,o),
(100,202,cs),
(100,77,o),
(228,-11,o),
(408,-11,cs)
);
}
);
width = 832;
},
{
anchors = (
{
name = bottom;
pos = (417,0);
},
{
name = ogonek;
pos = (751,10);
},
{
name = top;
pos = (417,700);
},
{
name = topright;
pos = (814,700);
}
);
layerId = "CDB87FEA-4563-478E-BFE6-62102BA6A3F2";
shapes = (
{
closed = 1;
nodes = (
(607,-11,o),
(747,104,o),
(747,264,cs),
(747,465,o),
(747,578,o),
(747,611,cs),
(747,642,o),
(767,654,o),
(800,654,cs),
(814,654,l),
(814,699,l),
(534,699,l),
(534,654,l),
(571,654,o),
(632,654,o),
(645,654,cs),
(675,654,o),
(679,634,o),
(679,603,cs),
(679,578,o),
(679,274,o),
(679,259,cs),
(679,136,o),
(573,49,o),
(424,49,cs),
(288,49,o),
(202,116,o),
(202,211,cs),
(202,277,o),
(202,606,o),
(202,626,cs),
(202,656,o),
(237,654,o),
(267,654,cs),
(283,654,l),
(283,699,l),
(43,699,l),
(43,654,l),
(50,654,o),
(56,654,o),
(65,654,cs),
(83,654,o),
(102,631,o),
(102,570,cs),
(102,514,o),
(102,262,o),
(102,210,cs),
(102,80,o),
(233,-11,o),
(410,-11,cs)
);
}
);
width = 834;
},
{
anchors = (
{
name = bottom;
pos = (413,0);
},
{
name = ogonek;
pos = (743,10);
},
{
name = top;
pos = (414,700);
},
{
name = topright;
pos = (806,700);
}
);
layerId = "574E12B0-2418-4D16-BF3A-251D49665871";
shapes = (
{
closed = 1;
nodes = (
(599,-11,o),
(741,90,o),
(741,236,cs),
(741,437,o),
(741,578,o),
(741,611,cs),
(741,642,o),
(761,681,o),
(794,681,cs),
(808,681,l),
(808,699,l),
(528,699,l),
(528,681,l),
(565,681,o),
(626,681,o),
(639,681,cs),
(669,681,o),
(701,634,o),
(701,603,cs),
(701,578,o),
(701,246,o),
(701,231,cs),
(701,108,o),
(584,21,o),
(418,21,cs),
(304,21,o),
(196,88,o),
(196,183,cs),
(196,249,o),
(196,606,o),
(196,626,cs),
(196,656,o),
(231,681,o),
(261,681,cs),
(277,681,l),
(277,699,l),
(37,699,l),
(37,681,l),
(44,681,o),
(50,681,o),
(59,681,cs),
(77,681,o),
(96,631,o),
(96,570,cs),
(96,514,o),
(96,234,o),
(96,182,cs),
(96,69,o),
(216,-11,o),
(404,-11,cs)
);
}
);
width = 826;
}
);
metricLeft = n;
metricRight = n;
unicode = 85;
},
{
glyphname = V;
lastChange = "2024-11-11 17:30:14 +0000";
layers = (
{
anchors = (
{
name = bottom;
pos = (362,0);
},
{
name = top;
pos = (362,700);
}
);
layerId = m01;
shapes = (
{
closed = 1;
nodes = (
(388,0,l),
(617,641,ls),
(623,657,o),
(646,669,o),
(672,669,cs),
(714,669,l),
(714,700,l),
(484,700,l),
(484,669,l),
(538,669,ls),
(562,669,o),
(573,658,o),
(567,641,cs),
(392,150,l),
(190,621,ls),
(177,651,o),
(197,672,o),
(227,672,cs),
(279,672,l),
(279,700,l),
(9,700,l),
(9,672,l),
(43,672,ls),
(57,672,o),
(76,653,o),
(88,627,c),
(354,-12,l)
);
}
);
width = 723;
},
{
anchors = (
{
name = bottom;
pos = (365,0);
},
{
name = top;
pos = (365,700);
}
);
layerId = m002;
shapes = (
{
closed = 1;
nodes = (
(391,0,l),
(620,641,ls),
(626,657,o),
(649,659,o),
(675,659,cs),
(717,659,l),
(717,700,l),
(487,700,l),
(487,659,l),
(541,659,ls),
(565,659,o),
(576,658,o),
(570,641,cs),
(395,150,l),
(193,621,ls),
(180,651,o),
(200,662,o),
(230,662,cs),
(282,662,l),
(282,700,l),
(12,700,l),
(12,662,l),
(46,662,ls),
(60,662,o),
(79,653,o),
(91,627,c),
(357,-12,l)
);
}
);
width = 729;
},
{
anchors = (
{
name = bottom;
pos = (367,0);
},
{
name = top;
pos = (367,700);
}
);
layerId = "CDB87FEA-4563-478E-BFE6-62102BA6A3F2";
shapes = (
{
closed = 1;
nodes = (
(393,0,l),
(622,641,ls),
(628,657,o),
(651,652,o),
(677,652,cs),
(719,652,l),
(719,700,l),
(489,700,l),
(489,652,l),
(543,652,ls),
(567,652,o),
(578,658,o),
(572,641,cs),
(397,150,l),
(195,621,ls),
(182,651,o),
(202,655,o),
(232,655,cs),
(284,655,l),
(284,700,l),
(14,700,l),
(14,655,l),
(48,655,ls),
(62,655,o),
(81,653,o),
(93,627,cs),
(359,-12,l)
);
}
);
width = 734;
},
{
anchors = (
{
name = bottom;
pos = (359,0);
},
{
name = top;
pos = (359,700);
}
);
layerId = "574E12B0-2418-4D16-BF3A-251D49665871";
shapes = (
{
closed = 1;
nodes = (
(385,0,l),
(614,641,ls),
(620,657,o),
(643,679,o),
(669,679,cs),
(711,679,l),
(711,700,l),
(481,700,l),
(481,679,l),
(535,679,ls),
(559,679,o),
(570,658,o),
(564,641,cs),
(389,150,l),
(187,621,ls),
(174,651,o),
(194,682,o),
(224,682,cs),
(276,682,l),
(276,700,l),
(6,700,l),
(6,682,l),
(40,682,ls),
(54,682,o),
(73,653,o),
(85,627,cs),
(351,-12,l)
);
}
);
width = 717;
}
);
unicode = 86;
},
{
glyphname = W;
lastChange = "2024-11-11 17:30:14 +0000";
layers = (
{
anchors = (
{
name = bottom;
pos = (517,0);
},
{
name = top;
pos = (517,700);
}
);
layerId = m01;
shapes = (
{
closed = 1;
nodes = (
(718,0,l),
(927,641,ls),
(932,657,o),
(956,669,o),
(982,669,cs),
(1024,669,l),
(1024,700,l),
(837,700,l),
(837,669,l),
(848,669,ls),
(872,669,o),
(882,658,o),
(877,641,cs),
(734,167,l),
(587,616,ls),
(577,646,o),
(587,672,o),
(617,672,cs),
(649,672,l),
(649,700,l),
(399,700,l),
(399,672,l),
(433,672,ls),
(447,672,o),
(466,653,o),
(478,627,c),
(684,-12,l)
);
},
{
closed = 1;
nodes = (
(328,0,l),
(568,672,l),
(518,672,l),
(345,164,l),
(195,621,ls),
(185,651,o),
(197,672,o),
(227,672,cs),
(259,672,l),
(259,700,l),
(9,700,l),
(9,672,l),
(43,672,ls),
(57,672,o),
(76,653,o),
(88,627,c),
(294,-12,l)
);
}
);
width = 1033;
},
{
anchors = (
{
name = bottom;
pos = (520,0);
},
{
name = top;
pos = (520,700);
}
);
layerId = m002;
shapes = (
{
closed = 1;
nodes = (
(721,0,l),
(930,641,ls),
(932,648,o),
(959,659,o),
(985,659,cs),
(1027,659,l),
(1027,700,l),
(840,700,l),
(840,659,l),
(851,659,ls),
(875,659,o),
(883,649,o),
(880,641,cs),
(735,187,l),
(590,616,ls),
(580,646,o),
(590,662,o),
(620,662,cs),
(652,662,l),
(652,700,l),
(402,700,l),
(402,662,l),
(436,662,ls),
(450,662,o),
(469,653,o),
(481,627,c),
(687,-12,l)
);
},
{
closed = 1;
nodes = (
(331,0,l),
(571,662,l),
(521,662,l),
(346,184,l),
(198,621,ls),
(188,651,o),
(200,662,o),
(230,662,cs),
(262,662,l),
(262,700,l),
(12,700,l),
(12,662,l),
(46,662,ls),
(60,662,o),
(79,653,o),
(91,627,c),
(297,-12,l)
);
}
);
width = 1039;
},
{
anchors = (
{
name = bottom;
pos = (522,0);
},
{
name = top;
pos = (522,700);
}
);
layerId = "CDB87FEA-4563-478E-BFE6-62102BA6A3F2";
shapes = (
{
closed = 1;
nodes = (
(723,0,l),
(932,641,l),
(932,641,o),
(961,652,o),
(987,652,cs),
(1029,652,l),
(1029,700,l),
(842,700,l),
(842,652,l),
(853,652,ls),
(877,652,o),
(884,642,o),
(882,641,c),
(736,202,l),
(592,616,ls),
(582,646,o),
(592,655,o),
(622,655,cs),
(654,655,l),
(654,700,l),
(404,700,l),
(404,655,l),
(438,655,ls),
(452,655,o),
(471,653,o),
(483,627,c),
(689,-12,l)
);
},
{
closed = 1;
nodes = (
(333,0,l),
(573,655,l),
(523,655,l),
(347,199,l),
(200,621,ls),
(190,651,o),
(202,655,o),
(232,655,cs),
(264,655,l),
(264,700,l),
(14,700,l),
(14,655,l),
(48,655,ls),
(62,655,o),
(81,653,o),
(93,627,c),
(299,-12,l)
);
}
);
width = 1044;
},
{
anchors = (
{
name = bottom;
pos = (514,0);
},
{
name = top;
pos = (514,700);
}
);
layerId = "574E12B0-2418-4D16-BF3A-251D49665871";
shapes = (
{
closed = 1;
nodes = (
(715,0,l),
(924,641,ls),
(932,666,o),
(953,679,o),
(979,679,cs),
(1021,679,l),
(1021,700,l),
(834,700,l),
(834,679,l),
(845,679,ls),
(869,679,o),
(881,667,o),
(874,641,cs),
(733,147,l),
(584,616,ls),
(574,646,o),
(584,682,o),
(614,682,cs),
(646,682,l),
(646,700,l),
(396,700,l),
(396,682,l),
(430,682,ls),
(444,682,o),
(463,653,o),
(475,627,c),
(681,-12,l)
);
},
{
closed = 1;
nodes = (
(325,0,l),
(565,682,l),
(515,682,l),
(344,144,l),
(192,621,ls),
(182,651,o),
(194,682,o),
(224,682,cs),
(256,682,l),
(256,700,l),
(6,700,l),
(6,682,l),
(40,682,ls),
(54,682,o),
(73,653,o),
(85,627,c),
(291,-12,l)
);
}
);
width = 1027;
}
);
unicode = 87;
},
{
glyphname = X;
lastChange = "2024-11-11 17:30:14 +0000";
layers = (
{
anchors = (
{
name = bottom;
pos = (372,0);
},
{
name = top;
pos = (372,700);
}
);
layerId = m01;
shapes = (
{
closed = 1;
nodes = (
(722,0,l),
(722,28,l),
(692,28,l),
(675,28,o),
(638,49,o),
(618,79,cs),
(501,259,o),
(343,493,o),
(232,642,cs),
(219,660,o),
(230,672,o),
(257,672,cs),
(319,672,l),
(319,700,l),
(39,700,l),
(39,672,l),
(51,672,l),
(72,672,o),
(104,662,o),
(113,649,cs),
(146,601,o),
(466,132,o),
(477,116,cs),
(511,64,o),
(500,28,o),
(466,28,cs),
(422,28,l),
(422,0,l)
);
},
{
closed = 1;
nodes = (
(287,0,l),
(287,28,l),
(278,28,o),
(279,28,o),
(260,28,cs),
(200,28,o),
(177,59,o),
(205,104,cs),
(212,115,o),
(291,215,o),
(396,346,c),
(374,369,l),
(312,290,o),
(211,166,o),
(131,70,cs),
(110,45,o),
(63,28,o),
(18,28,c),
(18,0,l)
);
},
{
closed = 1;
nodes = (
(643,651,l),
(654,665,o),
(670,672,o),
(685,672,cs),
(726,672,l),
(726,700,l),
(455,700,l),
(455,672,l),
(469,672,o),
(480,672,o),
(530,672,cs),
(565,672,o),
(574,633,o),
(536,579,cs),
(502,530,o),
(494,520,o),
(374,359,c),
(396,336,l)
);
}
);
width = 744;
},
{
anchors = (
{
name = bottom;
pos = (375,0);
},
{
name = top;
pos = (375,700);
}
);
layerId = m002;
shapes = (
{
closed = 1;
nodes = (
(725,0,l),
(725,38,l),
(695,38,l),
(678,38,o),
(641,59,o),
(621,89,cs),
(504,269,o),
(346,483,o),
(235,632,cs),
(222,650,o),
(233,662,o),
(260,662,cs),
(322,662,l),
(322,700,l),
(42,700,l),
(42,662,l),
(54,662,l),
(75,662,o),
(107,652,o),
(116,639,cs),
(149,591,o),
(469,132,o),
(480,116,cs),
(514,64,o),
(503,38,o),
(469,38,cs),
(425,38,l),
(425,0,l)
);
},
{
closed = 1;
nodes = (
(290,0,l),
(290,38,l),
(281,38,o),
(282,38,o),
(263,38,cs),
(203,38,o),
(180,59,o),
(208,104,cs),
(215,115,o),
(297,210,o),
(402,341,c),
(372,374,l),
(310,295,o),
(214,176,o),
(134,80,cs),
(113,55,o),
(66,38,o),
(21,38,c),
(21,0,l)
);
},
{
closed = 1;
nodes = (
(646,641,l),
(657,655,o),
(673,662,o),
(688,662,cs),
(729,662,l),
(729,700,l),
(458,700,l),
(458,662,l),
(472,662,o),
(483,662,o),
(533,662,cs),
(568,662,o),
(577,633,o),
(539,579,cs),
(505,530,o),
(492,525,o),
(372,364,c),
(402,331,l)
);
}
);
width = 750;
},
{
anchors = (
{
name = bottom;
pos = (378,0);
},
{
name = top;
pos = (378,700);
}
);
layerId = "CDB87FEA-4563-478E-BFE6-62102BA6A3F2";
shapes = (
{
closed = 1;
nodes = (
(727,0,l),
(727,46,l),
(697,46,ls),
(680,46,o),
(643,67,o),
(623,97,cs),
(506,277,o),
(348,476,o),
(237,625,cs),
(224,643,o),
(235,655,o),
(262,655,cs),
(324,655,l),
(324,700,l),
(44,700,l),
(44,655,l),
(56,655,ls),
(77,655,o),
(109,645,o),
(118,632,cs),
(151,584,o),
(471,132,o),
(482,116,cs),
(516,64,o),
(505,46,o),
(471,46,cs),
(427,46,l),
(427,0,l)
);
},
{
closed = 1;
nodes = (
(292,0,l),
(292,46,l),
(283,46,o),
(284,46,o),
(265,46,cs),
(205,46,o),
(182,59,o),
(210,104,cs),
(217,115,o),
(302,206,o),
(407,337,c),
(371,378,l),
(309,299,o),
(216,184,o),
(136,88,cs),
(115,63,o),
(68,46,o),
(23,46,c),
(23,0,l)
);
},
{
closed = 1;
nodes = (
(648,634,ls),
(659,648,o),
(675,655,o),
(690,655,cs),
(731,655,l),
(731,700,l),
(460,700,l),
(460,655,l),
(474,655,o),
(485,655,o),
(535,655,cs),
(570,655,o),
(579,633,o),
(541,579,cs),
(507,530,o),
(491,529,o),
(371,368,c),
(407,327,l)
);
}
);
width = 755;
},
{
anchors = (
{
name = bottom;
pos = (369,0);
},
{
name = top;
pos = (369,700);
}
);
layerId = "574E12B0-2418-4D16-BF3A-251D49665871";
shapes = (
{
closed = 1;
nodes = (
(719,0,l),
(719,18,l),
(689,18,ls),
(672,18,o),
(635,39,o),
(615,69,cs),
(498,249,o),
(340,503,o),
(229,652,cs),
(216,670,o),
(227,682,o),
(254,682,cs),
(316,682,l),
(316,700,l),
(36,700,l),
(36,682,l),
(48,682,ls),
(69,682,o),
(101,672,o),
(110,659,cs),
(143,611,o),
(463,132,o),
(474,116,cs),
(508,64,o),
(497,18,o),
(463,18,cs),
(419,18,l),
(419,0,l)
);
},
{
closed = 1;
nodes = (
(284,0,l),
(284,18,l),
(275,18,o),
(276,18,o),
(257,18,cs),
(197,18,o),
(174,59,o),
(202,104,cs),
(209,115,o),
(285,220,o),
(390,351,c),
(376,364,l),
(314,285,o),
(208,156,o),
(128,60,cs),
(107,35,o),
(60,18,o),
(15,18,c),
(15,0,l)
);
},
{
closed = 1;
nodes = (
(640,661,ls),
(651,675,o),
(667,682,o),
(682,682,cs),
(723,682,l),
(723,700,l),
(452,700,l),
(452,682,l),
(466,682,o),
(477,682,o),
(527,682,cs),
(562,682,o),
(571,633,o),
(533,579,cs),
(499,530,o),
(496,515,o),
(376,354,c),
(390,341,l)
);
}
);
width = 738;
}
);
metricLeft = n;
metricRight = n;
unicode = 88;
},
{
glyphname = Y;
lastChange = "2024-11-11 17:30:14 +0000";
layers = (
{
anchors = (
{
name = bottom;
pos = (323,0);
},
{
name = top;
pos = (323,700);
},
{
name = topleft;
pos = (20,700);
}
);
layerId = m01;
shapes = (
{
closed = 1;
nodes = (
(365,319,l),
(202,632,ls),
(189,660,o),
(202,672,o),
(230,672,cs),
(319,672,l),
(319,700,l),
(9,700,l),
(9,672,l),
(51,672,ls),
(62,672,o),
(80,662,o),
(89,649,c),
(271,292,l)
);
},
{
closed = 1;
nodes = (
(474,0,l),
(474,28,l),
(441,28,ls),
(427,28,o),
(365,32,o),
(365,66,cs),
(365,314,l),
(265,314,l),
(265,95,ls),
(265,68,o),
(238,24,o),
(201,24,cs),
(173,24,l),
(173,0,l)
);
},
{
closed = 1;
nodes = (
(365,314,l),
(553,651,l),
(563,663,o),
(580,672,o),
(595,672,cs),
(636,672,l),
(636,700,l),
(425,700,l),
(425,672,l),
(480,672,ls),
(498,672,o),
(502,655,o),
(490,630,cs),
(326,314,l)
);
}
);
width = 645;
},
{
anchors = (
{
name = bottom;
pos = (326,0);
},
{
name = top;
pos = (326,700);
},
{
name = topleft;
pos = (20,700);
}
);
layerId = m002;
shapes = (
{
closed = 1;
nodes = (
(368,319,l),
(205,632,ls),
(192,660,o),
(205,662,o),
(233,662,cs),
(322,662,l),
(322,700,l),
(12,700,l),
(12,662,l),
(54,662,ls),
(65,662,o),
(83,662,o),
(92,649,c),
(274,292,l)
);
},
{
closed = 1;
nodes = (
(477,0,l),
(477,38,l),
(444,38,ls),
(430,38,o),
(368,42,o),
(368,66,cs),
(368,314,l),
(268,314,l),
(268,95,ls),
(268,68,o),
(241,34,o),
(204,34,cs),
(176,34,l),
(176,0,l)
);
},
{
closed = 1;
nodes = (
(368,314,l),
(556,641,l),
(566,653,o),
(583,662,o),
(598,662,cs),
(639,662,l),
(639,700,l),
(428,700,l),
(428,662,l),
(483,662,ls),
(501,662,o),
(507,655,o),
(493,630,cs),
(315,314,l)
);
}
);
width = 651;
},
{
anchors = (
{
name = bottom;
pos = (328,0);
},
{
name = top;
pos = (328,700);
},
{
name = topleft;
pos = (20,700);
}
);
layerId = "CDB87FEA-4563-478E-BFE6-62102BA6A3F2";
shapes = (
{
closed = 1;
nodes = (
(370,319,l),
(207,632,ls),
(194,660,o),
(207,655,o),
(235,655,cs),
(324,655,l),
(324,700,l),
(14,700,l),
(14,655,l),
(56,655,ls),
(67,655,o),
(85,662,o),
(94,649,c),
(276,292,l)
);
},
{
closed = 1;
nodes = (
(479,0,l),
(479,46,l),
(446,46,ls),
(432,46,o),
(370,50,o),
(370,66,cs),
(370,314,l),
(270,314,l),
(270,95,ls),
(270,68,o),
(243,42,o),
(206,42,cs),
(178,42,l),
(178,0,l)
);
},
{
closed = 1;
nodes = (
(370,314,l),
(558,634,l),
(568,646,o),
(585,655,o),
(600,655,cs),
(641,655,l),
(641,700,l),
(430,700,l),
(430,655,l),
(485,655,ls),
(503,655,o),
(511,655,o),
(495,630,cs),
(307,314,l)
);
}
);
width = 656;
},
{
anchors = (
{
name = bottom;
pos = (320,0);
},
{
name = top;
pos = (320,700);
},
{
name = topleft;
pos = (20,700);
}
);
layerId = "574E12B0-2418-4D16-BF3A-251D49665871";
shapes = (
{
closed = 1;
nodes = (
(362,319,l),
(199,632,ls),
(186,660,o),
(199,682,o),
(227,682,cs),
(316,682,l),
(316,700,l),
(6,700,l),
(6,682,l),
(48,682,ls),
(59,682,o),
(77,662,o),
(86,649,c),
(268,292,l)
);
},
{
closed = 1;
nodes = (
(471,0,l),
(471,18,l),
(438,18,ls),
(424,18,o),
(362,22,o),
(362,66,cs),
(362,314,l),
(262,314,l),
(262,95,ls),
(262,68,o),
(235,14,o),
(198,14,cs),
(170,14,l),
(170,0,l)
);
},
{
closed = 1;
nodes = (
(362,314,l),
(550,661,l),
(560,673,o),
(577,682,o),
(592,682,cs),
(633,682,l),
(633,700,l),
(422,700,l),
(422,682,l),
(477,682,ls),
(495,682,o),
(497,655,o),
(487,630,c),
(337,314,l)
);
}
);
width = 639;
}
);
unicode = 89;
},
{
glyphname = Z;
lastChange = "2024-11-11 17:30:14 +0000";
layers = (
{
anchors = (
{
name = bottom;
pos = (342,0);
},
{
name = center;
pos = (342,350);
},
{
name = top;
pos = (342,700);
}
);
layerId = m01;
shapes = (
{
closed = 1;
nodes = (
(295,0,l),
(295,35,l),
(226,35,ls),
(202,35,o),
(196,52,o),
(212,77,cs),
(605,649,l),
(605,700,l),
(134,700,l),
(76,482,l),
(111,476,l),
(158,587,o),
(213,665,o),
(242,665,cs),
(460,665,ls),
(484,665,o),
(490,650,o),
(474,628,cs),
(391,516,o),
(214,256,o),
(45,0,c)
);
},
{
closed = 1;
nodes = (
(590,0,l),
(638,212,l),
(607,219,l),
(576,141,o),
(513,35,o),
(453,35,cs),
(82,35,l),
(82,0,l)
);
}
);
width = 684;
},
{
anchors = (
{
name = bottom;
pos = (350,0);
},
{
name = center;
pos = (350,350);
},
{
name = top;
pos = (350,700);
}
);
layerId = m002;
shapes = (
{
closed = 1;
nodes = (
(298,0,l),
(298,45,l),
(229,45,ls),
(205,45,o),
(199,52,o),
(215,77,cs),
(608,649,l),
(608,700,l),
(137,700,l),
(79,482,l),
(124,476,l),
(171,587,o),
(216,655,o),
(245,655,cs),
(463,655,ls),
(487,655,o),
(493,650,o),
(477,628,cs),
(394,516,o),
(217,256,o),
(48,0,c)
);
},
{
closed = 1;
nodes = (
(593,0,l),
(641,212,l),
(600,219,l),
(569,141,o),
(516,45,o),
(456,45,cs),
(85,45,l),
(85,0,l)
);
}
);
width = 699;
},
{
anchors = (
{
name = bottom;
pos = (355,0);
},
{
name = center;
pos = (355,350);
},
{
name = top;
pos = (355,700);
}
);
layerId = "CDB87FEA-4563-478E-BFE6-62102BA6A3F2";
shapes = (
{
closed = 1;
nodes = (
(300,0,l),
(300,53,l),
(231,53,ls),
(207,53,o),
(201,52,o),
(217,77,cs),
(610,649,l),
(610,700,l),
(139,700,l),
(81,482,l),
(134,476,l),
(181,587,o),
(218,648,o),
(247,648,cs),
(465,648,ls),
(489,648,o),
(495,650,o),
(479,628,cs),
(396,516,o),
(219,256,o),
(50,0,c)
);
},
{
closed = 1;
nodes = (
(595,0,l),
(643,212,l),
(595,219,l),
(564,141,o),
(518,53,o),
(458,53,cs),
(87,53,l),
(87,0,l)
);
}
);
width = 710;
},
{
anchors = (
{
name = bottom;
pos = (335,0);
},
{
name = center;
pos = (335,350);
},
{
name = top;
pos = (335,700);
}
);
layerId = "574E12B0-2418-4D16-BF3A-251D49665871";
shapes = (
{
closed = 1;
nodes = (
(292,0,l),
(292,25,l),
(223,25,ls),
(199,25,o),
(193,52,o),
(209,77,cs),
(602,649,l),
(602,700,l),
(131,700,l),
(73,482,l),
(98,476,l),
(145,587,o),
(210,675,o),
(239,675,cs),
(457,675,ls),
(481,675,o),
(487,650,o),
(471,628,cs),
(388,516,o),
(211,256,o),
(42,0,c)
);
},
{
closed = 1;
nodes = (
(587,0,l),
(635,212,l),
(614,219,l),
(583,141,o),
(510,25,o),
(450,25,cs),
(79,25,l),
(79,0,l)
);
}
);
width = 669;
}
);
unicode = 90;
},
{
glyphname = a;
lastChange = "2024-11-11 17:30:14 +0000";
layers = (
{
anchors = (
{
name = bottom;
pos = (225,0);
},
{
name = ogonek;
pos = (404,10);
},
{
name = top;
pos = (225,435);
}
);
background = {
shapes = (
{
closed = 1;
nodes = (
(69,361,o),
(129,384,o),
(181,384,cs),
(235,384,o),
(274,353,o),
(274,310,cs),
(274,280,o),
(274,124,o),
(274,85,cs),
(274,45,o),
(259,17,o),
(239,17,cs),
(202,17,l),
(202,-8,l),
(444,-8,l),
(444,22,l),
(434,22,o),
(389,22,o),
(383,22,cs),
(369,22,o),
(359,35,o),
(359,54,cs),
(359,98,o),
(356,298,o),
(356,343,cs),
(356,404,o),
(307,447,o),
(237,447,cs),
(170,447,o),
(82,408,o),
(24,353,c),
(35,328,l)
);
}
);
};
layerId = m01;
shapes = (
{
closed = 1;
nodes = (
(391,-12,o),
(438,17,o),
(438,59,cs),
(438,76,l),
(418,76,l),
(418,60,o),
(407,48,o),
(391,48,cs),
(372,48,o),
(358,65,o),
(358,89,cs),
(358,121,o),
(358,305,o),
(358,341,cs),
(358,403,o),
(310,447,o),
(242,447,cs),
(205,447,o),
(154,427,o),
(120,399,cs),
(77,362,o),
(46,319,o),
(46,295,cs),
(46,273,o),
(63,258,o),
(87,258,cs),
(110,258,o),
(127,271,o),
(127,290,cs),
(127,312,o),
(111,313,o),
(111,337,cs),
(111,363,o),
(148,382,o),
(201,382,cs),
(243,382,o),
(273,352,o),
(273,309,cs),
(273,248,o),
(273,93,o),
(273,64,cs),
(273,19,o),
(295,-12,o),
(325,-12,cs)
);
},
{
closed = 1;
nodes = (
(172,-12,o),
(248,15,o),
(297,58,c),
(297,85,l),
(264,43,o),
(217,35,o),
(205,35,cs),
(158,35,o),
(139,64,o),
(139,101,cs),
(139,128,o),
(151,150,o),
(176,163,c),
(312,223,l),
(314,251,l),
(101,157,l),
(68,141,o),
(45,118,o),
(45,85,cs),
(45,29,o),
(73,-12,o),
(133,-12,cs)
);
}
);
width = 449;
},
{
anchors = (
{
name = bottom;
pos = (228,0);
},
{
name = ogonek;
pos = (410,10);
},
{
name = top;
pos = (228,445);
}
);
background = {
shapes = (
{
closed = 1;
nodes = (
(69,361,o),
(129,384,o),
(181,384,cs),
(235,384,o),
(274,353,o),
(274,310,cs),
(274,280,o),
(274,124,o),
(274,85,cs),
(274,45,o),
(259,17,o),
(239,17,cs),
(202,17,l),
(202,-8,l),
(444,-8,l),
(444,22,l),
(434,22,o),
(389,22,o),
(383,22,cs),
(369,22,o),
(359,35,o),
(359,54,cs),
(359,98,o),
(356,298,o),
(356,343,cs),
(356,404,o),
(307,447,o),
(237,447,cs),
(170,447,o),
(82,408,o),
(24,353,c),
(35,328,l)
);
}
);
};
layerId = m002;
shapes = (
{
closed = 1;
nodes = (
(394,-12,o),
(441,17,o),
(441,59,cs),
(441,76,l),
(416,76,l),
(416,60,o),
(410,48,o),
(394,48,cs),
(375,48,o),
(361,65,o),
(361,89,cs),
(361,121,o),
(361,315,o),
(361,351,cs),
(361,413,o),
(313,457,o),
(245,457,cs),
(208,457,o),
(157,437,o),
(123,409,cs),
(80,372,o),
(49,329,o),
(49,305,cs),
(49,283,o),
(66,268,o),
(90,268,cs),
(113,268,o),
(130,281,o),
(130,300,cs),
(130,322,o),
(114,313,o),
(114,337,cs),
(114,363,o),
(151,382,o),
(204,382,cs),
(246,382,o),
(276,362,o),
(276,319,cs),
(276,258,o),
(276,93,o),
(276,64,cs),
(276,19,o),
(298,-12,o),
(328,-12,cs)
);
},
{
closed = 1;
nodes = (
(175,-12,o),
(251,15,o),
(300,58,c),
(300,93,l),
(267,51,o),
(220,45,o),
(208,45,cs),
(161,45,o),
(142,64,o),
(142,101,cs),
(142,128,o),
(154,150,o),
(179,163,c),
(315,223,l),
(317,261,l),
(104,167,l),
(71,151,o),
(48,118,o),
(48,85,cs),
(48,29,o),
(76,-12,o),
(136,-12,cs)
);
}
);
width = 455;
},
{
anchors = (
{
name = bottom;
pos = (230,0);
},
{
name = ogonek;
pos = (414,10);
},
{
name = top;
pos = (230,453);
}
);
layerId = "CDB87FEA-4563-478E-BFE6-62102BA6A3F2";
shapes = (
{
closed = 1;
nodes = (
(396,-12,o),
(443,17,o),
(443,59,cs),
(443,76,l),
(415,76,l),
(415,60,o),
(412,48,o),
(396,48,cs),
(377,48,o),
(363,65,o),
(363,89,cs),
(363,121,o),
(363,323,o),
(363,359,cs),
(363,421,o),
(315,465,o),
(247,465,cs),
(210,465,o),
(159,445,o),
(125,417,cs),
(82,380,o),
(51,337,o),
(51,313,cs),
(51,291,o),
(68,276,o),
(92,276,cs),
(115,276,o),
(132,289,o),
(132,308,cs),
(132,330,o),
(116,313,o),
(116,337,cs),
(116,363,o),
(153,382,o),
(206,382,cs),
(248,382,o),
(278,370,o),
(278,327,cs),
(278,266,o),
(278,93,o),
(278,64,cs),
(278,19,o),
(300,-12,o),
(330,-12,cs)
);
},
{
closed = 1;
nodes = (
(177,-12,o),
(253,15,o),
(302,58,c),
(302,99,l),
(269,57,o),
(222,53,o),
(210,53,cs),
(163,53,o),
(144,64,o),
(144,101,cs),
(144,128,o),
(156,150,o),
(181,163,c),
(317,223,l),
(319,269,l),
(106,175,ls),
(73,159,o),
(50,118,o),
(50,85,cs),
(50,29,o),
(78,-12,o),
(138,-12,cs)
);
}
);
width = 460;
},
{
anchors = (
{
name = bottom;
pos = (222,0);
},
{
name = ogonek;
pos = (399,10);
},
{
name = top;
pos = (222,425);
}
);
layerId = "574E12B0-2418-4D16-BF3A-251D49665871";
shapes = (
{
closed = 1;
nodes = (
(388,-12,o),
(435,17,o),
(435,59,cs),
(435,76,l),
(420,76,l),
(420,60,o),
(404,48,o),
(388,48,cs),
(369,48,o),
(355,65,o),
(355,89,cs),
(355,121,o),
(355,295,o),
(355,331,cs),
(355,393,o),
(307,437,o),
(239,437,cs),
(202,437,o),
(151,417,o),
(117,389,cs),
(74,352,o),
(43,309,o),
(43,285,cs),
(43,263,o),
(60,248,o),
(84,248,cs),
(107,248,o),
(124,261,o),
(124,280,cs),
(124,302,o),
(108,313,o),
(108,337,cs),
(108,363,o),
(145,382,o),
(198,382,cs),
(240,382,o),
(270,342,o),
(270,299,cs),
(270,238,o),
(270,93,o),
(270,64,cs),
(270,19,o),
(292,-12,o),
(322,-12,cs)
);
},
{
closed = 1;
nodes = (
(169,-12,o),
(245,15,o),
(294,58,c),
(294,77,l),
(261,35,o),
(214,25,o),
(202,25,cs),
(155,25,o),
(136,64,o),
(136,101,cs),
(136,128,o),
(148,150,o),
(173,163,c),
(309,223,l),
(311,241,l),
(98,147,ls),
(65,131,o),
(42,118,o),
(42,85,cs),
(42,29,o),
(70,-12,o),
(130,-12,cs)
);
}
);
width = 443;
}
);
unicode = 97;
},
{
glyphname = ae;
lastChange = "2024-11-11 17:30:14 +0000";
layers = (
{
anchors = (
{
name = bottom;
pos = (339,0);
},
{
name = top;
pos = (339,435);
}
);
background = {
shapes = (
{
closed = 1;
nodes = (
(631,110,l),
(599,77,o),
(548,54,o),
(507,54,cs),
(413,54,o),
(347,128,o),
(347,233,cs),
(347,333,o),
(397,409,o),
(467,409,cs),
(550,409,o),
(527,340,o),
(572,340,cs),
(603,340,o),
(625,355,o),
(625,376,cs),
(625,418,o),
(580,447,o),
(516,447,cs),
(371,447,o),
(268,338,o),
(268,192,c),
(268,73,o),
(346,-12,o),
(456,-12,c),
(518,-12,o),
(599,30,o),
(651,90,c)
);
},
{
closed = 0;
nodes = (
(46,295,ls),
(46,273,o),
(63,258,o),
(87,258,cs),
(110,258,o),
(127,271,o),
(127,290,cs),
(127,312,o),
(111,313,o),
(111,337,cs)
);
}
);
};
layerId = m01;
shapes = (
{
closed = 1;
nodes = (
(198,-15,o),
(259,36,o),
(321,106,c),
(313,116,l),
(270,74,o),
(219,41,o),
(190,41,cs),
(153,41,o),
(127,71,o),
(127,114,cs),
(127,142,o),
(141,174,o),
(171,182,c),
(622,306,l),
(631,309,o),
(638,319,o),
(638,331,cs),
(638,397,o),
(589,443,o),
(520,443,cs),
(438,443,o),
(357,395,o),
(323,326,c),
(358,352,l),
(341,405,o),
(289,443,o),
(234,443,cs),
(199,443,o),
(149,421,o),
(113,391,cs),
(74,356,o),
(46,316,o),
(46,295,cs),
(46,273,o),
(63,258,o),
(87,258,cs),
(110,258,o),
(127,272,o),
(127,291,cs),
(127,305,o),
(110,324,o),
(110,333,cs),
(110,362,o),
(141,382,o),
(185,382,cs),
(242,382,o),
(282,355,o),
(282,318,cs),
(282,290,o),
(282,100,o),
(282,80,cs),
(282,80,o),
(291,89,o),
(291,89,c),
(309,32,o),
(376,-13,o),
(454,-13,cs),
(519,-13,o),
(601,30,o),
(651,90,c),
(631,110,l),
(604,78,o),
(549,55,o),
(499,55,cs),
(416,55,o),
(358,125,o),
(358,225,cs),
(358,331,o),
(404,406,o),
(468,406,c),
(506,406,o),
(534,376,o),
(536,333,cs),
(536,320,o),
(526,307,o),
(513,303,c),
(126,191,l),
(79,176,o),
(45,131,o),
(45,81,cs),
(45,25,o),
(87,-15,o),
(147,-15,cs)
);
}
);
width = 678;
},
{
anchors = (
{
name = bottom;
pos = (342,0);
},
{
name = top;
pos = (342,445);
}
);
background = {
shapes = (
{
closed = 1;
nodes = (
(389,-12,o),
(436,17,o),
(436,59,cs),
(436,76,l),
(411,76,l),
(411,60,o),
(405,48,o),
(389,48,cs),
(370,48,o),
(356,65,o),
(356,89,cs),
(356,121,o),
(356,305,o),
(356,341,cs),
(356,403,o),
(308,447,o),
(240,447,cs),
(203,447,o),
(152,427,o),
(118,399,cs),
(75,362,o),
(44,319,o),
(44,295,cs),
(44,273,o),
(61,258,o),
(85,258,cs),
(108,258,o),
(125,271,o),
(125,290,cs),
(125,312,o),
(109,303,o),
(109,327,cs),
(109,353,o),
(146,372,o),
(199,372,cs),
(241,372,o),
(271,352,o),
(271,309,cs),
(271,248,o),
(271,93,o),
(271,64,cs),
(271,19,o),
(293,-12,o),
(323,-12,cs)
);
}
);
};
layerId = m002;
shapes = (
{
closed = 1;
nodes = (
(189,-15,o),
(265,26,o),
(317,85,c),
(312,117,l),
(269,75,o),
(222,51,o),
(193,51,cs),
(156,51,o),
(130,85,o),
(130,134,cs),
(130,147,o),
(144,161,o),
(164,169,c),
(625,299,l),
(634,302,o),
(641,315,o),
(641,331,cs),
(641,397,o),
(592,453,o),
(523,453,cs),
(441,453,o),
(360,395,o),
(326,326,c),
(365,352,l),
(360,408,o),
(307,457,o),
(243,457,cs),
(206,457,o),
(149,431,o),
(106,394,cs),
(72,364,o),
(48,325,o),
(48,300,cs),
(48,281,o),
(65,268,o),
(88,268,cs),
(111,268,o),
(128,281,o),
(128,300,cs),
(128,324,o),
(112,318,o),
(112,337,cs),
(112,365,o),
(167,384,o),
(200,384,cs),
(257,384,o),
(285,360,o),
(285,328,cs),
(285,300,o),
(285,105,o),
(285,85,cs),
(285,85,o),
(294,84,o),
(294,84,c),
(312,27,o),
(379,-13,o),
(457,-13,cs),
(522,-13,o),
(604,30,o),
(654,90,c),
(634,120,l),
(607,88,o),
(552,65,o),
(502,65,cs),
(419,65,o),
(361,131,o),
(361,225,cs),
(361,325,o),
(407,406,o),
(471,406,c),
(509,406,o),
(537,370,o),
(539,333,cs),
(539,321,o),
(529,309,o),
(516,305,c),
(129,193,l),
(82,174,o),
(48,132,o),
(48,91,cs),
(48,29,o),
(83,-15,o),
(143,-15,cs)
);
}
);
width = 684;
},
{
anchors = (
{
name = bottom;
pos = (345,0);
},
{
name = top;
pos = (345,453);
}
);
layerId = "CDB87FEA-4563-478E-BFE6-62102BA6A3F2";
shapes = (
{
closed = 1;
nodes = (
(182,-15,o),
(270,19,o),
(314,69,c),
(311,118,l),
(268,76,o),
(224,59,o),
(195,59,cs),
(158,59,o),
(132,96,o),
(132,149,cs),
(132,151,o),
(146,151,o),
(159,159,c),
(627,294,ls),
(636,297,o),
(643,312,o),
(643,331,cs),
(643,397,o),
(594,461,o),
(525,461,cs),
(443,461,o),
(362,395,o),
(328,326,c),
(370,352,l),
(374,410,o),
(321,468,o),
(250,468,cs),
(211,468,o),
(149,439,o),
(101,396,cs),
(71,370,o),
(50,332,o),
(50,304,cs),
(50,287,o),
(67,276,o),
(89,276,cs),
(112,276,o),
(129,288,o),
(129,307,cs),
(129,338,o),
(114,314,o),
(114,340,cs),
(114,367,o),
(187,386,o),
(211,386,cs),
(268,386,o),
(287,364,o),
(287,336,cs),
(287,308,o),
(287,109,o),
(287,89,c),
(287,89,o),
(296,80,o),
(296,80,c),
(314,23,o),
(381,-13,o),
(459,-13,cs),
(524,-13,o),
(606,30,o),
(656,90,c),
(636,128,l),
(609,96,o),
(554,73,o),
(504,73,cs),
(421,73,o),
(363,136,o),
(363,225,cs),
(363,321,o),
(409,406,o),
(473,406,cs),
(511,406,o),
(539,366,o),
(541,333,cs),
(541,322,o),
(531,311,o),
(518,307,cs),
(131,195,l),
(84,173,o),
(50,133,o),
(50,99,cs),
(50,32,o),
(80,-15,o),
(140,-15,cs)
);
}
);
width = 689;
},
{
anchors = (
{
name = bottom;
pos = (336,0);
},
{
name = top;
pos = (336,425);
}
);
layerId = "574E12B0-2418-4D16-BF3A-251D49665871";
shapes = (
{
closed = 1;
nodes = (
(207,-15,o),
(253,46,o),
(325,127,cs),
(314,115,ls),
(271,73,o),
(216,31,o),
(187,31,cs),
(150,31,o),
(124,57,o),
(124,94,cs),
(124,137,o),
(138,187,o),
(178,195,c),
(619,313,ls),
(628,316,o),
(635,323,o),
(635,331,cs),
(635,397,o),
(586,433,o),
(517,433,cs),
(435,433,o),
(354,395,o),
(320,326,c),
(351,352,l),
(322,402,o),
(271,429,o),
(225,429,cs),
(192,429,o),
(149,411,o),
(120,388,c),
(76,348,o),
(44,307,o),
(44,290,cs),
(44,265,o),
(61,248,o),
(86,248,cs),
(109,248,o),
(126,263,o),
(126,282,cs),
(126,286,o),
(108,330,o),
(108,329,cs),
(108,359,o),
(115,380,o),
(170,380,cs),
(227,380,o),
(279,350,o),
(279,308,cs),
(279,280,o),
(279,95,o),
(279,75,c),
(279,75,o),
(288,94,o),
(288,94,c),
(306,37,o),
(373,-13,o),
(451,-13,cs),
(516,-13,o),
(598,30,o),
(648,90,c),
(628,100,l),
(601,68,o),
(546,45,o),
(496,45,cs),
(413,45,o),
(355,119,o),
(355,225,cs),
(355,337,o),
(401,406,o),
(465,406,cs),
(503,406,o),
(531,382,o),
(533,333,cs),
(533,319,o),
(523,305,o),
(510,301,cs),
(123,189,l),
(76,178,o),
(42,130,o),
(42,71,cs),
(42,21,o),
(91,-15,o),
(151,-15,cs)
);
}
);
width = 672;
}
);
metricLeft = a;
metricRight = e;
unicode = 230;
},
{
glyphname = b;
lastChange = "2024-11-11 17:30:14 +0000";
layers = (
{
anchors = (
{
name = bottom;
pos = (274,0);
},
{
name = center;
pos = (137,560);
},
{
name = top;
pos = (274,435);
}
);
background = {
shapes = (
{
closed = 1;
nodes = (
(242,0,l),
(242,26,l),
(229,26,o),
(213,26,o),
(204,26,cs),
(180,26,o),
(163,46,o),
(163,74,cs),
(163,632,l),
(165,700,l),
(160,708,l),
(117,691,o),
(60,673,o),
(20,663,c),
(20,647,l),
(56,647,o),
(82,629,o),
(82,604,cs),
(82,539,o),
(82,127,o),
(82,82,cs),
(82,49,o),
(65,26,o),
(42,26,cs),
(12,26,l),
(12,0,l)
);
}
);
};
layerId = m01;
shapes = (
{
closed = 1;
nodes = (
(400,-12,o),
(511,97,o),
(511,251,cs),
(511,366,o),
(421,448,o),
(293,448,cs),
(237,448,o),
(168,430,o),
(126,404,c),
(134,372,l),
(168,394,o),
(218,410,o),
(253,410,cs),
(345,410,o),
(413,335,o),
(413,227,cs),
(413,110,o),
(356,28,o),
(280,28,cs),
(213,28,o),
(148,70,o),
(124,129,c),
(74,46,l),
(102,12,o),
(172,-12,o),
(242,-12,cs)
);
},
{
closed = 1;
nodes = (
(163,636,l),
(165,700,l),
(160,708,l),
(113,690,o),
(67,675,o),
(20,663,c),
(20,647,l),
(57,647,o),
(82,628,o),
(82,602,c),
(86,451,o),
(82,300,o),
(82,149,c),
(82,100,o),
(79,58,o),
(74,46,c),
(163,26,l)
);
}
);
width = 547;
},
{
anchors = (
{
name = bottom;
pos = (277,0);
},
{
name = center;
pos = (138,560);
},
{
name = top;
pos = (277,445);
}
);
background = {
shapes = (
{
closed = 1;
nodes = (
(242,0,l),
(242,26,l),
(229,26,o),
(213,26,o),
(204,26,cs),
(180,26,o),
(163,46,o),
(163,74,cs),
(163,632,l),
(165,700,l),
(160,708,l),
(117,691,o),
(60,673,o),
(20,663,c),
(20,647,l),
(56,647,o),
(82,629,o),
(82,604,cs),
(82,539,o),
(82,127,o),
(82,82,cs),
(82,49,o),
(65,26,o),
(42,26,cs),
(12,26,l),
(12,0,l)
);
}
);
};
layerId = m002;
shapes = (
{
closed = 1;
nodes = (
(403,-12,o),
(514,107,o),
(514,261,cs),
(514,376,o),
(424,458,o),
(296,458,cs),
(240,458,o),
(171,440,o),
(129,414,c),
(137,372,l),
(171,394,o),
(221,410,o),
(256,410,cs),
(348,410,o),
(416,345,o),
(416,237,cs),
(416,120,o),
(359,38,o),
(283,38,cs),
(216,38,o),
(151,80,o),
(127,139,c),
(77,46,l),
(105,12,o),
(175,-12,o),
(245,-12,cs)
);
},
{
closed = 1;
nodes = (
(166,636,l),
(171,700,l),
(163,708,l),
(116,690,o),
(70,675,o),
(23,663,c),
(23,637,l),
(60,637,o),
(85,618,o),
(85,592,c),
(89,451,o),
(85,310,o),
(85,149,c),
(85,100,o),
(82,58,o),
(77,46,c),
(166,26,l)
);
}
);
width = 553;
},
{
anchors = (
{
name = bottom;
pos = (279,0);
},
{
name = center;
pos = (140,560);
},
{
name = top;
pos = (279,453);
}
);
layerId = "CDB87FEA-4563-478E-BFE6-62102BA6A3F2";
shapes = (
{
closed = 1;
nodes = (
(405,-12,o),
(516,115,o),
(516,269,cs),
(516,384,o),
(426,466,o),
(298,466,cs),
(242,466,o),
(173,448,o),
(131,422,c),
(139,372,l),
(173,394,o),
(223,410,o),
(258,410,cs),
(350,410,o),
(418,353,o),
(418,245,cs),
(418,128,o),
(361,46,o),
(285,46,cs),
(218,46,o),
(153,88,o),
(129,147,c),
(79,46,l),
(107,12,o),
(177,-12,o),
(247,-12,cs)
);
},
{
closed = 1;
nodes = (
(168,636,l),
(176,700,l),
(165,708,l),
(118,690,o),
(72,675,o),
(25,663,c),
(25,630,l),
(62,630,o),
(87,611,o),
(87,585,cs),
(91,451,o),
(87,318,o),
(87,149,cs),
(87,100,o),
(84,58,o),
(79,46,c),
(168,26,l)
);
}
);
width = 558;
},
{
anchors = (
{
name = bottom;
pos = (271,0);
},
{
name = center;
pos = (135,560);
},
{
name = top;
pos = (271,425);
}
);
layerId = "574E12B0-2418-4D16-BF3A-251D49665871";
shapes = (
{
closed = 1;
nodes = (
(397,-12,o),
(508,87,o),
(508,241,cs),
(508,356,o),
(418,438,o),
(290,438,cs),
(234,438,o),
(165,420,o),
(123,394,c),
(131,372,l),
(165,394,o),
(215,410,o),
(250,410,cs),
(342,410,o),
(410,325,o),
(410,217,cs),
(410,100,o),
(353,18,o),
(277,18,cs),
(210,18,o),
(145,60,o),
(121,119,c),
(71,46,l),
(99,12,o),
(169,-12,o),
(239,-12,cs)
);
},
{
closed = 1;
nodes = (
(160,636,l),
(159,700,l),
(157,708,l),
(110,690,o),
(64,675,o),
(17,663,c),
(17,657,l),
(54,657,o),
(79,638,o),
(79,612,cs),
(83,451,o),
(79,290,o),
(79,149,cs),
(79,100,o),
(76,58,o),
(71,46,c),
(160,26,l)
);
}
);
width = 541;
}
);
metricLeft = h;
metricRight = b;
unicode = 98;
},
{
glyphname = c;
lastChange = "2024-11-11 17:30:14 +0000";
layers = (
{
anchors = (
{
name = bottom;
pos = (214,0);
},
{
name = top;
pos = (214,435);
}
);
layerId = m01;
shapes = (
{
closed = 1;
nodes = (
(286,-12,o),
(367,30,o),
(419,90,c),
(399,110,l),
(367,77,o),
(316,54,o),
(275,54,cs),
(181,54,o),
(115,128,o),
(115,233,cs),
(115,333,o),
(165,409,o),
(235,409,cs),
(318,409,o),
(295,340,o),
(340,340,cs),
(371,340,o),
(393,355,o),
(393,376,cs),
(393,418,o),
(348,447,o),
(284,447,cs),
(139,447,o),
(36,338,o),
(36,192,c),
(36,73,o),
(114,-12,o),
(224,-12,c)
);
}
);
width = 428;
},
{
anchors = (
{
name = bottom;
pos = (217,0);
},
{
name = top;
pos = (217,445);
}
);
layerId = m002;
shapes = (
{
closed = 1;
nodes = (
(289,-12,o),
(370,30,o),
(422,90,c),
(402,120,l),
(370,87,o),
(319,64,o),
(278,64,cs),
(184,64,o),
(118,128,o),
(118,233,cs),
(118,343,o),
(168,409,o),
(238,409,cs),
(321,409,o),
(298,350,o),
(343,350,cs),
(374,350,o),
(396,365,o),
(396,386,cs),
(396,428,o),
(351,457,o),
(287,457,cs),
(142,457,o),
(39,348,o),
(39,192,c),
(39,73,o),
(117,-12,o),
(227,-12,c)
);
}
);
width = 434;
},
{
anchors = (
{
name = bottom;
pos = (220,0);
},
{
name = top;
pos = (220,453);
}
);
layerId = "CDB87FEA-4563-478E-BFE6-62102BA6A3F2";
shapes = (
{
closed = 1;
nodes = (
(291,-12,o),
(372,30,o),
(424,90,c),
(404,128,l),
(372,95,o),
(321,72,o),
(280,72,cs),
(186,72,o),
(120,128,o),
(120,233,cs),
(120,351,o),
(170,409,o),
(240,409,cs),
(323,409,o),
(300,358,o),
(345,358,cs),
(376,358,o),
(398,373,o),
(398,394,cs),
(398,436,o),
(353,465,o),
(289,465,cs),
(144,465,o),
(41,356,o),
(41,192,cs),
(41,73,o),
(119,-12,o),
(229,-12,cs)
);
}
);
width = 439;
},
{
anchors = (
{
name = bottom;
pos = (211,0);
},
{
name = top;
pos = (211,425);
}
);
layerId = "574E12B0-2418-4D16-BF3A-251D49665871";
shapes = (
{
closed = 1;
nodes = (
(283,-12,o),
(364,30,o),
(416,90,c),
(396,100,l),
(364,67,o),
(313,44,o),
(272,44,cs),
(178,44,o),
(112,128,o),
(112,233,cs),
(112,323,o),
(162,409,o),
(232,409,cs),
(315,409,o),
(292,330,o),
(337,330,cs),
(368,330,o),
(390,345,o),
(390,366,cs),
(390,408,o),
(345,437,o),
(281,437,cs),
(136,437,o),
(33,328,o),
(33,192,cs),
(33,73,o),
(111,-12,o),
(221,-12,cs)
);
}
);
width = 422;
}
);
metricLeft = o;
metricRight = o;
unicode = 99;
},
{
glyphname = d;
lastChange = "2024-11-11 17:30:14 +0000";
layers = (
{
anchors = (
{
name = bottom;
pos = (277,0);
},
{
name = center;
pos = (415,560);
},
{
name = top;
pos = (277,435);
},
{
name = topright;
pos = (533,700);
}
);
background = {
shapes = (
{
closed = 1;
nodes = (
(409,-12,o),
(508,87,o),
(508,226,cs),
(508,355,o),
(409,447,o),
(268,447,cs),
(132,447,o),
(36,355,o),
(36,226,cs),
(36,87,o),
(132,-12,o),
(268,-12,cs)
);
},
{
closed = 1;
nodes = (
(196,20,o),
(132,104,o),
(132,222,cs),
(132,335,o),
(182,415,o),
(252,416,cs),
(343,416,o),
(407,331,o),
(407,211,cs),
(407,100,o),
(357,21,o),
(287,20,cs)
);
}
);
};
layerId = m01;
shapes = (
{
closed = 1;
nodes = (
(556,7,l),
(553,36,l),
(531,32,o),
(506,29,o),
(491,29,cs),
(474,29,o),
(462,42,o),
(462,64,c),
(457,255,o),
(457,445,o),
(462,636,c),
(465,700,l),
(458,708,l),
(309,700,l),
(309,673,l),
(311,673,o),
(323,673,o),
(325,673,cs),
(358,673,o),
(381,656,o),
(381,631,cs),
(381,48,l),
(388,0,l),
(390,-12,l)
);
},
{
closed = 1;
nodes = (
(340,-12,o),
(402,33,o),
(423,96,c),
(422,185,l),
(410,94,o),
(353,20,o),
(285,20,cs),
(196,20,o),
(133,105,o),
(133,226,cs),
(133,338,o),
(189,417,o),
(267,417,cs),
(318,417,o),
(374,361,o),
(401,311,c),
(401,407,l),
(371,430,o),
(321,447,o),
(279,447,cs),
(137,447,o),
(36,353,o),
(36,219,cs),
(36,84,o),
(134,-12,o),
(273,-12,cs)
);
}
);
width = 553;
},
{
anchors = (
{
name = bottom;
pos = (279,0);
},
{
name = center;
pos = (418,560);
},
{
name = top;
pos = (279,445);
},
{
name = topright;
pos = (537,700);
}
);
background = {
shapes = (
{
closed = 1;
nodes = (
(409,-12,o),
(508,87,o),
(508,226,cs),
(508,355,o),
(409,447,o),
(268,447,cs),
(132,447,o),
(36,355,o),
(36,226,cs),
(36,87,o),
(132,-12,o),
(268,-12,cs)
);
},
{
closed = 1;
nodes = (
(196,20,o),
(132,104,o),
(132,222,cs),
(132,335,o),
(182,415,o),
(252,416,cs),
(343,416,o),
(407,331,o),
(407,211,cs),
(407,100,o),
(357,21,o),
(287,20,cs)
);
}
);
};
layerId = m002;
shapes = (
{
closed = 1;
nodes = (
(559,7,l),
(556,46,l),
(534,42,o),
(509,39,o),
(494,39,cs),
(477,39,o),
(465,52,o),
(465,74,c),
(460,275,o),
(460,455,o),
(465,636,c),
(468,700,l),
(461,708,l),
(312,700,l),
(312,663,l),
(314,663,o),
(326,663,o),
(328,663,cs),
(361,663,o),
(381,646,o),
(381,621,cs),
(381,48,l),
(391,0,l),
(393,-12,l)
);
},
{
closed = 1;
nodes = (
(343,-12,o),
(405,33,o),
(426,96,c),
(425,195,l),
(413,104,o),
(356,30,o),
(288,30,cs),
(199,30,o),
(136,115,o),
(136,236,cs),
(136,348,o),
(192,417,o),
(270,417,cs),
(321,417,o),
(377,361,o),
(404,311,c),
(404,417,l),
(374,440,o),
(324,457,o),
(282,457,cs),
(140,457,o),
(39,363,o),
(39,219,cs),
(39,84,o),
(137,-12,o),
(276,-12,cs)
);
}
);
width = 557;
},
{
anchors = (
{
name = bottom;
pos = (280,0);
},
{
name = center;
pos = (420,560);
},
{
name = top;
pos = (280,453);
},
{
name = topright;
pos = (540,700);
}
);
layerId = "CDB87FEA-4563-478E-BFE6-62102BA6A3F2";
shapes = (
{
closed = 1;
nodes = (
(561,7,l),
(558,54,l),
(536,50,o),
(511,47,o),
(496,47,cs),
(479,47,o),
(467,60,o),
(467,82,cs),
(462,290,o),
(462,463,o),
(467,636,cs),
(470,700,l),
(463,708,l),
(314,700,l),
(314,656,l),
(316,656,o),
(328,656,o),
(330,656,cs),
(363,656,o),
(381,639,o),
(381,614,cs),
(381,48,l),
(393,0,l),
(395,-12,l)
);
},
{
closed = 1;
nodes = (
(345,-12,o),
(407,33,o),
(428,96,c),
(427,203,l),
(415,112,o),
(358,38,o),
(290,38,cs),
(201,38,o),
(138,123,o),
(138,244,cs),
(138,356,o),
(194,417,o),
(272,417,cs),
(323,417,o),
(379,361,o),
(406,311,c),
(406,425,l),
(376,448,o),
(326,465,o),
(284,465,cs),
(142,465,o),
(41,371,o),
(41,219,cs),
(41,84,o),
(139,-12,o),
(278,-12,cs)
);
}
);
width = 560;
},
{
anchors = (
{
name = bottom;
pos = (275,0);
},
{
name = center;
pos = (412,560);
},
{
name = top;
pos = (275,425);
},
{
name = topright;
pos = (529,700);
}
);
layerId = "574E12B0-2418-4D16-BF3A-251D49665871";
shapes = (
{
closed = 1;
nodes = (
(553,7,l),
(550,26,l),
(528,22,o),
(503,19,o),
(488,19,cs),
(471,19,o),
(459,32,o),
(459,54,cs),
(454,235,o),
(454,435,o),
(459,636,cs),
(462,700,l),
(455,708,l),
(306,700,l),
(306,683,l),
(308,683,o),
(320,683,o),
(322,683,cs),
(355,683,o),
(381,666,o),
(381,641,cs),
(381,48,l),
(385,0,l),
(387,-12,l)
);
},
{
closed = 1;
nodes = (
(337,-12,o),
(399,33,o),
(420,96,c),
(419,175,l),
(407,84,o),
(350,10,o),
(282,10,cs),
(193,10,o),
(130,95,o),
(130,216,cs),
(130,328,o),
(186,417,o),
(264,417,cs),
(315,417,o),
(371,361,o),
(398,311,c),
(398,397,l),
(368,420,o),
(318,437,o),
(276,437,cs),
(134,437,o),
(33,343,o),
(33,219,cs),
(33,84,o),
(131,-12,o),
(270,-12,cs)
);
}
);
width = 549;
}
);
metricLeft = o;
metricRight = n;
unicode = 100;
},
{
glyphname = e;
lastChange = "2024-11-11 17:30:14 +0000";
layers = (
{
anchors = (
{
name = bottom;
pos = (226,0);
},
{
name = ogonek;
pos = (407,10);
},
{
name = top;
pos = (226,435);
}
);
background = {
shapes = (
{
closed = 1;
nodes = (
(399,110,l),
(367,77,o),
(316,54,o),
(275,54,cs),
(181,54,o),
(115,128,o),
(115,233,cs),
(115,333,o),
(165,409,o),
(235,409,cs),
(318,409,o),
(295,340,o),
(340,340,cs),
(371,340,o),
(393,355,o),
(393,376,cs),
(393,418,o),
(348,447,o),
(284,447,cs),
(139,447,o),
(36,338,o),
(36,192,c),
(36,73,o),
(114,-12,o),
(224,-12,c),
(286,-12,o),
(367,30,o),
(419,90,c)
);
}
);
};
layerId = m01;
shapes = (
{
closed = 1;
nodes = (
(285,-13,o),
(367,30,o),
(419,90,c),
(399,110,l),
(368,78,o),
(319,55,o),
(281,55,cs),
(183,55,o),
(114,130,o),
(114,237,cs),
(114,342,o),
(170,417,o),
(250,417,cs),
(293,417,o),
(324,381,o),
(324,331,cs),
(324,323,o),
(321,311,o),
(317,303,c),
(85,303,l),
(85,273,l),
(187,273,o),
(364,273,o),
(406,273,cs),
(417,273,o),
(425,282,o),
(425,295,cs),
(425,384,o),
(351,447,o),
(247,447,cs),
(123,447,o),
(36,351,o),
(36,216,cs),
(36,82,o),
(113,-13,o),
(221,-13,cs)
);
}
);
width = 452;
},
{
anchors = (
{
name = bottom;
pos = (229,0);
},
{
name = ogonek;
pos = (412,10);
},
{
name = top;
pos = (229,445);
}
);
background = {
shapes = (
{
closed = 1;
nodes = (
(399,110,l),
(367,77,o),
(316,54,o),
(275,54,cs),
(181,54,o),
(115,128,o),
(115,233,cs),
(115,333,o),
(165,409,o),
(235,409,cs),
(318,409,o),
(295,340,o),
(340,340,cs),
(371,340,o),
(393,355,o),
(393,376,cs),
(393,418,o),
(348,447,o),
(284,447,cs),
(139,447,o),
(36,338,o),
(36,192,c),
(36,73,o),
(114,-12,o),
(224,-12,c),
(286,-12,o),
(367,30,o),
(419,90,c)
);
}
);
};
layerId = m002;
shapes = (
{
closed = 1;
nodes = (
(288,-13,o),
(370,30,o),
(422,90,c),
(402,120,l),
(371,88,o),
(322,65,o),
(284,65,cs),
(186,65,o),
(117,130,o),
(117,237,cs),
(117,342,o),
(173,417,o),
(253,417,cs),
(296,417,o),
(327,381,o),
(327,331,cs),
(327,323,o),
(324,311,o),
(320,303,c),
(88,303,l),
(88,263,l),
(190,263,o),
(367,263,o),
(409,263,cs),
(420,263,o),
(428,282,o),
(428,295,cs),
(428,384,o),
(354,457,o),
(250,457,cs),
(126,457,o),
(39,351,o),
(39,216,cs),
(39,82,o),
(116,-13,o),
(224,-13,cs)
);
}
);
width = 458;
},
{
anchors = (
{
name = bottom;
pos = (232,0);
},
{
name = ogonek;
pos = (417,10);
},
{
name = top;
pos = (232,453);
}
);
layerId = "CDB87FEA-4563-478E-BFE6-62102BA6A3F2";
shapes = (
{
closed = 1;
nodes = (
(290,-13,o),
(372,30,o),
(424,90,c),
(404,128,l),
(373,96,o),
(324,73,o),
(286,73,cs),
(188,73,o),
(119,130,o),
(119,237,cs),
(119,342,o),
(175,417,o),
(255,417,cs),
(298,417,o),
(329,381,o),
(329,331,cs),
(329,323,o),
(326,311,o),
(322,303,c),
(90,303,l),
(90,256,l),
(192,256,o),
(369,256,o),
(411,256,cs),
(422,256,o),
(430,282,o),
(430,295,cs),
(430,384,o),
(356,465,o),
(252,465,cs),
(128,465,o),
(41,351,o),
(41,216,cs),
(41,82,o),
(118,-13,o),
(226,-13,cs)
);
}
);
width = 463;
},
{
anchors = (
{
name = bottom;
pos = (223,0);
},
{
name = ogonek;
pos = (401,10);
},
{
name = top;
pos = (223,425);
}
);
layerId = "574E12B0-2418-4D16-BF3A-251D49665871";
shapes = (
{
closed = 1;
nodes = (
(282,-13,o),
(364,30,o),
(416,90,c),
(396,100,l),
(365,68,o),
(316,45,o),
(278,45,cs),
(180,45,o),
(111,130,o),
(111,237,cs),
(111,342,o),
(167,417,o),
(247,417,cs),
(290,417,o),
(321,381,o),
(321,331,cs),
(321,323,o),
(318,311,o),
(314,303,c),
(82,303,l),
(82,283,l),
(184,283,o),
(361,283,o),
(403,283,cs),
(414,283,o),
(422,282,o),
(422,295,cs),
(422,384,o),
(348,437,o),
(244,437,cs),
(120,437,o),
(33,351,o),
(33,216,cs),
(33,82,o),
(110,-13,o),
(218,-13,cs)
);
}
);
width = 446;
}
);
metricLeft = o;
metricRight = o;
unicode = 101;
},
{
glyphname = f;
lastChange = "2024-11-11 17:30:14 +0000";
layers = (
{
anchors = (
{
name = bottom;
pos = (156,0);
},
{
name = top;
pos = (156,700);
}
);
layerId = m01;
shapes = (
{
closed = 1;
nodes = (
(266,0,l),
(266,28,l),
(257,28,o),
(256,28,o),
(219,28,cs),
(197,28,o),
(181,41,o),
(181,59,cs),
(181,90,o),
(181,497,o),
(181,531,cs),
(181,604,o),
(201,672,o),
(229,696,cs),
(243,708,o),
(268,716,o),
(290,716,cs),
(342,716,o),
(321,650,o),
(369,650,cs),
(394,650,o),
(445,676,o),
(445,713,cs),
(445,752,o),
(409,779,o),
(357,779,cs),
(316,779,o),
(248,746,o),
(193,699,cs),
(140,655,o),
(103,582,o),
(103,512,cs),
(103,449,o),
(72,404,o),
(27,404,cs),
(15,404,l),
(15,376,l),
(100,376,l),
(105,276,o),
(105,177,o),
(100,77,c),
(100,48,o),
(81,28,o),
(55,28,cs),
(10,28,l),
(10,0,l)
);
},
{
closed = 1;
nodes = (
(303,376,l),
(303,435,l),
(170,435,l),
(170,376,l)
);
}
);
width = 312;
},
{
anchors = (
{
name = bottom;
pos = (158,0);
},
{
name = top;
pos = (158,700);
}
);
layerId = m002;
shapes = (
{
closed = 1;
nodes = (
(266,0,l),
(266,38,l),
(257,38,o),
(256,38,o),
(219,38,cs),
(197,38,o),
(184,51,o),
(184,69,cs),
(184,100,o),
(184,507,o),
(184,541,cs),
(184,614,o),
(201,662,o),
(229,686,cs),
(243,698,o),
(268,706,o),
(290,706,cs),
(342,706,o),
(321,650,o),
(369,650,cs),
(394,650,o),
(445,676,o),
(445,713,cs),
(445,752,o),
(409,779,o),
(357,779,cs),
(316,779,o),
(248,746,o),
(193,699,cs),
(140,655,o),
(103,592,o),
(103,522,cs),
(103,459,o),
(72,414,o),
(27,414,cs),
(15,414,l),
(15,376,l),
(100,376,l),
(105,276,o),
(105,187,o),
(100,87,c),
(100,58,o),
(81,38,o),
(55,38,cs),
(10,38,l),
(10,0,l)
);
},
{
closed = 1;
nodes = (
(303,376,l),
(303,445,l),
(170,445,l),
(170,376,l)
);
}
);
width = 315;
},
{
anchors = (
{
name = bottom;
pos = (159,0);
},
{
name = top;
pos = (159,700);
}
);
layerId = "CDB87FEA-4563-478E-BFE6-62102BA6A3F2";
shapes = (
{
closed = 1;
nodes = (
(266,0,l),
(266,46,l),
(257,46,o),
(256,46,o),
(219,46,cs),
(197,46,o),
(186,59,o),
(186,77,cs),
(186,108,o),
(186,515,o),
(186,549,cs),
(186,622,o),
(201,655,o),
(229,679,cs),
(243,691,o),
(268,699,o),
(290,699,cs),
(342,699,o),
(321,650,o),
(369,650,cs),
(394,650,o),
(445,676,o),
(445,713,cs),
(445,752,o),
(409,779,o),
(357,779,cs),
(316,779,o),
(248,746,o),
(193,699,cs),
(140,655,o),
(103,600,o),
(103,530,cs),
(103,467,o),
(72,422,o),
(27,422,cs),
(15,422,l),
(15,376,l),
(100,376,l),
(105,276,o),
(105,195,o),
(100,95,cs),
(100,66,o),
(81,46,o),
(55,46,cs),
(10,46,l),
(10,0,l)
);
},
{
closed = 1;
nodes = (
(303,376,l),
(303,453,l),
(170,453,l),
(170,376,l)
);
}
);
width = 317;
},
{
anchors = (
{
name = bottom;
pos = (155,0);
},
{
name = top;
pos = (155,700);
}
);
layerId = "574E12B0-2418-4D16-BF3A-251D49665871";
shapes = (
{
closed = 1;
nodes = (
(266,0,l),
(266,18,l),
(257,18,o),
(256,18,o),
(219,18,cs),
(197,18,o),
(178,31,o),
(178,49,cs),
(178,80,o),
(178,487,o),
(178,521,cs),
(178,594,o),
(201,682,o),
(229,706,cs),
(243,718,o),
(268,726,o),
(290,726,cs),
(342,726,o),
(321,650,o),
(369,650,cs),
(394,650,o),
(445,676,o),
(445,713,cs),
(445,752,o),
(409,779,o),
(357,779,cs),
(316,779,o),
(248,746,o),
(193,699,cs),
(140,655,o),
(103,572,o),
(103,502,cs),
(103,439,o),
(72,394,o),
(27,394,cs),
(15,394,l),
(15,376,l),
(100,376,l),
(105,276,o),
(105,167,o),
(100,67,cs),
(100,38,o),
(81,18,o),
(55,18,cs),
(10,18,l),
(10,0,l)
);
},
{
closed = 1;
nodes = (
(303,376,l),
(303,425,l),
(170,425,l),
(170,376,l)
);
}
);
width = 309;
}
);
unicode = 102;
},
{
glyphname = g;
lastChange = "2024-11-11 17:30:14 +0000";
layers = (
{
anchors = (
{
name = bottom;
pos = (255,-150);
},
{
name = top;
pos = (255,435);
}
);
layerId = m01;
shapes = (
{
closed = 1;
nodes = (
(387,-316,o),
(494,-220,o),
(494,-84,cs),
(494,-2,o),
(421,56,o),
(317,56,cs),
(252,56,o),
(195,56,o),
(175,56,cs),
(141,56,o),
(117,70,o),
(117,90,cs),
(117,104,o),
(143,126,o),
(179,142,c),
(154,154,l),
(90,124,o),
(45,83,o),
(45,56,cs),
(45,12,o),
(79,-19,o),
(126,-19,cs),
(185,-19,o),
(307,-19,o),
(334,-19,cs),
(387,-19,o),
(420,-54,o),
(420,-104,cs),
(420,-207,o),
(354,-280,o),
(254,-280,cs),
(157,-280,o),
(93,-225,o),
(93,-147,cs),
(93,-98,o),
(139,-38,o),
(212,-1,c),
(170,-1,l),
(170,7,l),
(80,-32,o),
(16,-107,o),
(16,-174,cs),
(16,-257,o),
(107,-316,o),
(236,-316,cs)
);
},
{
closed = 1;
nodes = (
(352,122,o),
(421,190,o),
(421,285,cs),
(421,379,o),
(348,446,o),
(244,446,cs),
(143,446,o),
(71,374,o),
(71,272,cs),
(71,184,o),
(146,122,o),
(253,122,cs)
);
},
{
closed = 1;
nodes = (
(198,149,o),
(157,216,o),
(157,310,cs),
(157,374,o),
(190,418,o),
(237,418,cs),
(292,418,o),
(331,355,o),
(331,265,cs),
(331,197,o),
(299,149,o),
(255,149,cs)
);
},
{
closed = 1;
nodes = (
(498,404,l),
(477,404,o),
(382,375,o),
(358,375,c),
(366,355,l),
(491,334,l)
);
}
);
width = 510;
},
{
anchors = (
{
name = bottom;
pos = (257,-150);
},
{
name = top;
pos = (257,445);
}
);
layerId = m002;
shapes = (
{
closed = 1;
nodes = (
(390,-316,o),
(497,-220,o),
(497,-84,cs),
(497,-2,o),
(424,56,o),
(320,56,cs),
(255,56,o),
(198,56,o),
(178,56,cs),
(144,56,o),
(120,80,o),
(120,100,cs),
(120,114,o),
(146,136,o),
(182,152,c),
(157,174,l),
(93,144,o),
(48,99,o),
(48,66,cs),
(48,22,o),
(82,-19,o),
(129,-19,cs),
(188,-19,o),
(310,-19,o),
(337,-19,cs),
(390,-19,o),
(423,-50,o),
(423,-94,cs),
(423,-200,o),
(357,-275,o),
(257,-275,cs),
(166,-275,o),
(106,-222,o),
(106,-147,cs),
(106,-98,o),
(152,-38,o),
(225,-1,c),
(173,-1,l),
(173,7,l),
(83,-32,o),
(19,-107,o),
(19,-174,cs),
(19,-257,o),
(110,-316,o),
(239,-316,cs)
);
},
{
closed = 1;
nodes = (
(355,132,o),
(424,200,o),
(424,295,cs),
(424,389,o),
(351,456,o),
(247,456,cs),
(146,456,o),
(74,384,o),
(74,282,cs),
(74,194,o),
(149,132,o),
(256,132,cs)
);
},
{
closed = 1;
nodes = (
(201,169,o),
(160,226,o),
(160,320,cs),
(160,384,o),
(193,418,o),
(240,418,cs),
(295,418,o),
(334,365,o),
(334,275,cs),
(334,207,o),
(302,169,o),
(258,169,cs)
);
},
{
closed = 1;
nodes = (
(501,414,l),
(480,414,o),
(385,385,o),
(361,385,c),
(369,345,l),
(494,344,l)
);
}
);
width = 513;
},
{
anchors = (
{
name = bottom;
pos = (258,-150);
},
{
name = top;
pos = (258,453);
}
);
layerId = "CDB87FEA-4563-478E-BFE6-62102BA6A3F2";
shapes = (
{
closed = 1;
nodes = (
(392,-316,o),
(499,-220,o),
(499,-84,cs),
(499,-2,o),
(426,56,o),
(322,56,cs),
(257,56,o),
(200,56,o),
(180,56,cs),
(146,56,o),
(122,88,o),
(122,108,cs),
(122,122,o),
(148,144,o),
(184,160,c),
(159,189,l),
(95,159,o),
(50,111,o),
(50,74,cs),
(50,30,o),
(84,-19,o),
(131,-19,cs),
(190,-19,o),
(312,-19,o),
(339,-19,cs),
(392,-19,o),
(425,-47,o),
(425,-86,cs),
(425,-195,o),
(359,-271,o),
(259,-271,cs),
(173,-271,o),
(116,-220,o),
(116,-147,cs),
(116,-98,o),
(162,-38,o),
(235,-1,c),
(175,-1,l),
(175,7,l),
(85,-32,o),
(21,-107,o),
(21,-174,cs),
(21,-257,o),
(112,-316,o),
(241,-316,cs)
);
},
{
closed = 1;
nodes = (
(357,140,o),
(426,208,o),
(426,303,cs),
(426,397,o),
(353,464,o),
(249,464,cs),
(148,464,o),
(76,392,o),
(76,290,cs),
(76,202,o),
(151,140,o),
(258,140,cs)
);
},
{
closed = 1;
nodes = (
(203,184,o),
(162,234,o),
(162,328,cs),
(162,392,o),
(195,418,o),
(242,418,cs),
(297,418,o),
(336,373,o),
(336,283,cs),
(336,215,o),
(304,184,o),
(260,184,cs)
);
},
{
closed = 1;
nodes = (
(503,422,l),
(482,422,o),
(387,393,o),
(363,393,c),
(371,338,l),
(496,352,l)
);
}
);
width = 515;
},
{
anchors = (
{
name = bottom;
pos = (254,-150);
},
{
name = top;
pos = (254,425);
}
);
layerId = "574E12B0-2418-4D16-BF3A-251D49665871";
shapes = (
{
closed = 1;
nodes = (
(384,-316,o),
(491,-220,o),
(491,-84,cs),
(491,-2,o),
(418,56,o),
(314,56,cs),
(249,56,o),
(192,56,o),
(172,56,cs),
(138,56,o),
(114,60,o),
(114,80,cs),
(114,94,o),
(140,116,o),
(176,132,c),
(151,134,l),
(87,104,o),
(42,67,o),
(42,46,cs),
(42,2,o),
(76,-19,o),
(123,-19,cs),
(182,-19,o),
(304,-19,o),
(331,-19,cs),
(384,-19,o),
(417,-58,o),
(417,-114,cs),
(417,-214,o),
(351,-285,o),
(251,-285,cs),
(148,-285,o),
(80,-228,o),
(80,-147,cs),
(80,-98,o),
(126,-38,o),
(199,-1,c),
(167,-1,l),
(167,7,l),
(77,-32,o),
(13,-107,o),
(13,-174,cs),
(13,-257,o),
(104,-316,o),
(233,-316,cs)
);
},
{
closed = 1;
nodes = (
(349,112,o),
(418,180,o),
(418,275,cs),
(418,369,o),
(345,436,o),
(241,436,cs),
(140,436,o),
(68,364,o),
(68,262,cs),
(68,174,o),
(143,112,o),
(250,112,cs)
);
},
{
closed = 1;
nodes = (
(195,129,o),
(154,206,o),
(154,300,cs),
(154,364,o),
(187,418,o),
(234,418,cs),
(289,418,o),
(328,345,o),
(328,255,cs),
(328,187,o),
(296,129,o),
(252,129,cs)
);
},
{
closed = 1;
nodes = (
(498,404,l),
(477,404,o),
(382,375,o),
(358,375,c),
(366,355,l),
(491,334,l)
);
}
);
width = 507;
}
);
unicode = 103;
},
{
glyphname = h;
lastChange = "2024-11-11 17:30:14 +0000";
layers = (
{
anchors = (
{
name = bottom;
pos = (279,0);
},
{
name = center;
pos = (139,560);
},
{
name = top;
pos = (279,700);
}
);
background = {
shapes = (
{
closed = 1;
nodes = (
(13,-1,l),
(267,-1,l),
(267,27,l),
(260,27,o),
(259,27,o),
(246,27,cs),
(203,27,o),
(173,51,o),
(173,86,cs),
(173,647,l),
(176,700,l),
(171,708,l),
(29,663,l),
(29,647,l),
(66,647,o),
(92,628,o),
(92,601,cs),
(92,570,o),
(92,76,o),
(92,60,cs),
(92,41,o),
(71,27,o),
(41,27,cs),
(12,27,l),
(12,-1,l)
);
}
);
};
layerId = m01;
shapes = (
{
closed = 1;
nodes = (
(552,1,l),
(552,31,l),
(542,31,o),
(497,31,o),
(491,31,cs),
(477,31,o),
(467,48,o),
(467,63,cs),
(467,107,o),
(464,297,o),
(464,342,cs),
(464,403,o),
(413,446,o),
(340,446,cs),
(276,446,o),
(190,407,o),
(132,352,c),
(143,327,l),
(177,360,o),
(237,383,o),
(289,383,cs),
(343,383,o),
(382,352,o),
(382,309,c),
(387,234,o),
(387,169,o),
(382,94,c),
(382,56,o),
(367,26,o),
(347,26,cs),
(310,26,l),
(310,1,l)
);
},
{
closed = 1;
nodes = (
(251,0,l),
(251,26,l),
(238,26,o),
(222,26,o),
(213,26,cs),
(189,26,o),
(172,46,o),
(172,74,cs),
(172,632,l),
(174,700,l),
(169,708,l),
(126,691,o),
(69,673,o),
(29,663,c),
(29,647,l),
(65,647,o),
(89,629,o),
(89,604,c),
(94,420,o),
(94,256,o),
(89,82,c),
(89,49,o),
(74,26,o),
(51,26,cs),
(21,26,l),
(21,0,l)
);
}
);
width = 557;
},
{
anchors = (
{
name = bottom;
pos = (282,0);
},
{
name = center;
pos = (141,560);
},
{
name = top;
pos = (282,700);
}
);
background = {
shapes = (
{
closed = 1;
nodes = (
(13,-1,l),
(267,-1,l),
(267,27,l),
(260,27,o),
(259,27,o),
(246,27,cs),
(203,27,o),
(173,51,o),
(173,86,cs),
(173,647,l),
(176,700,l),
(171,708,l),
(29,663,l),
(29,647,l),
(66,647,o),
(92,628,o),
(92,601,cs),
(92,570,o),
(92,76,o),
(92,60,cs),
(92,41,o),
(71,27,o),
(41,27,cs),
(12,27,l),
(12,-1,l)
);
}
);
};
layerId = m002;
shapes = (
{
closed = 1;
nodes = (
(555,1,l),
(555,41,l),
(545,41,o),
(500,41,o),
(494,41,cs),
(480,41,o),
(470,58,o),
(470,73,cs),
(470,117,o),
(467,307,o),
(467,352,cs),
(467,413,o),
(416,456,o),
(343,456,cs),
(279,456,o),
(193,417,o),
(135,362,c),
(146,327,l),
(180,360,o),
(240,383,o),
(292,383,cs),
(346,383,o),
(385,362,o),
(385,319,c),
(390,244,o),
(390,179,o),
(385,104,c),
(385,66,o),
(370,36,o),
(350,36,cs),
(313,36,l),
(313,1,l)
);
},
{
closed = 1;
nodes = (
(254,0,l),
(254,36,l),
(241,36,o),
(225,36,o),
(216,36,cs),
(192,36,o),
(174,56,o),
(174,84,cs),
(177,632,l),
(180,700,l),
(175,708,l),
(132,691,o),
(72,673,o),
(32,663,c),
(32,637,l),
(68,637,o),
(92,619,o),
(92,594,c),
(97,420,o),
(97,266,o),
(92,92,c),
(92,59,o),
(77,36,o),
(54,36,cs),
(24,36,l),
(24,0,l)
);
}
);
width = 563;
},
{
anchors = (
{
name = bottom;
pos = (284,0);
},
{
name = center;
pos = (142,560);
},
{
name = top;
pos = (284,700);
}
);
layerId = "CDB87FEA-4563-478E-BFE6-62102BA6A3F2";
shapes = (
{
closed = 1;
nodes = (
(557,1,l),
(557,49,l),
(547,49,o),
(502,49,o),
(496,49,cs),
(482,49,o),
(472,66,o),
(472,81,cs),
(472,125,o),
(469,315,o),
(469,360,cs),
(469,421,o),
(418,464,o),
(345,464,cs),
(281,464,o),
(195,425,o),
(137,370,c),
(148,327,l),
(182,360,o),
(242,383,o),
(294,383,cs),
(348,383,o),
(387,370,o),
(387,327,c),
(392,252,o),
(392,187,o),
(387,112,c),
(387,74,o),
(372,44,o),
(352,44,cs),
(315,44,l),
(315,1,l)
);
},
{
closed = 1;
nodes = (
(256,0,l),
(256,44,l),
(243,44,o),
(227,44,o),
(218,44,cs),
(194,44,o),
(176,64,o),
(176,92,cs),
(181,632,l),
(185,700,l),
(180,708,l),
(137,691,o),
(74,673,o),
(34,663,c),
(34,630,l),
(70,630,o),
(94,612,o),
(94,587,cs),
(99,420,o),
(99,274,o),
(94,100,cs),
(94,67,o),
(79,44,o),
(56,44,cs),
(26,44,l),
(26,0,l)
);
}
);
width = 568;
},
{
anchors = (
{
name = bottom;
pos = (276,0);
},
{
name = center;
pos = (138,560);
},
{
name = top;
pos = (276,700);
}
);
layerId = "574E12B0-2418-4D16-BF3A-251D49665871";
shapes = (
{
closed = 1;
nodes = (
(549,1,l),
(549,21,l),
(539,21,o),
(494,21,o),
(488,21,cs),
(474,21,o),
(464,38,o),
(464,53,cs),
(464,97,o),
(461,287,o),
(461,332,cs),
(461,393,o),
(410,436,o),
(337,436,cs),
(273,436,o),
(187,397,o),
(129,342,c),
(140,327,l),
(174,360,o),
(234,383,o),
(286,383,cs),
(340,383,o),
(379,342,o),
(379,299,c),
(384,224,o),
(384,159,o),
(379,84,c),
(379,46,o),
(364,16,o),
(344,16,cs),
(307,16,l),
(307,1,l)
);
},
{
closed = 1;
nodes = (
(248,0,l),
(248,16,l),
(235,16,o),
(219,16,o),
(210,16,cs),
(186,16,o),
(170,36,o),
(170,64,cs),
(167,632,l),
(168,700,l),
(163,708,l),
(120,691,o),
(66,673,o),
(26,663,c),
(26,657,l),
(62,657,o),
(86,639,o),
(86,614,cs),
(91,420,o),
(91,246,o),
(86,72,cs),
(86,39,o),
(71,16,o),
(48,16,cs),
(18,16,l),
(18,0,l)
);
}
);
width = 551;
}
);
unicode = 104;
},
{
glyphname = i;
lastChange = "2024-11-11 17:30:14 +0000";
layers = (
{
anchors = (
{
name = bottom;
pos = (136,0);
}
);
layerId = m01;
shapes = (
{
closed = 1;
nodes = (
(253,0,l),
(253,28,l),
(245,28,o),
(215,28,o),
(208,28,cs),
(192,28,o),
(181,40,o),
(181,57,c),
(181,352,l),
(184,435,l),
(175,451,l),
(138,428,o),
(84,405,o),
(43,396,c),
(43,378,l),
(76,378,o),
(100,356,o),
(100,324,c),
(105,234,o),
(105,143,o),
(100,53,c),
(100,38,o),
(85,28,o),
(64,28,cs),
(45,28,l),
(45,0,l)
);
},
{
closed = 1;
nodes = (
(168,596,o),
(188,615,o),
(188,641,cs),
(188,667,o),
(168,686,o),
(140,686,cs),
(112,686,o),
(92,667,o),
(92,641,cs),
(92,615,o),
(112,596,o),
(140,596,cs)
);
}
);
width = 272;
},
{
anchors = (
{
name = bottom;
pos = (138,0);
}
);
layerId = m002;
shapes = (
{
closed = 1;
nodes = (
(252,0,l),
(252,38,l),
(244,38,o),
(214,38,o),
(207,38,cs),
(191,38,o),
(182,50,o),
(182,67,c),
(182,362,l),
(183,445,l),
(174,461,l),
(137,438,o),
(83,415,o),
(42,406,c),
(42,378,l),
(75,378,o),
(99,356,o),
(99,324,c),
(104,234,o),
(104,153,o),
(99,63,c),
(99,48,o),
(84,38,o),
(63,38,cs),
(44,38,l),
(44,0,l)
);
},
{
closed = 1;
nodes = (
(171,589,o),
(195,611,o),
(195,641,cs),
(195,671,o),
(171,693,o),
(139,693,cs),
(107,693,o),
(83,671,o),
(83,641,cs),
(83,611,o),
(107,589,o),
(139,589,cs)
);
}
);
width = 276;
},
{
anchors = (
{
name = bottom;
pos = (140,0);
}
);
layerId = "CDB87FEA-4563-478E-BFE6-62102BA6A3F2";
shapes = (
{
closed = 1;
nodes = (
(251,0,l),
(251,46,l),
(243,46,o),
(213,46,o),
(206,46,cs),
(190,46,o),
(183,58,o),
(183,75,cs),
(183,370,l),
(182,453,l),
(173,469,l),
(136,446,o),
(82,423,o),
(41,414,c),
(41,378,l),
(74,378,o),
(98,356,o),
(98,324,cs),
(103,234,o),
(103,161,o),
(98,71,cs),
(98,56,o),
(83,46,o),
(62,46,cs),
(43,46,l),
(43,0,l)
);
},
{
closed = 1;
nodes = (
(173,584,o),
(200,608,o),
(200,641,cs),
(200,674,o),
(173,698,o),
(138,698,cs),
(103,698,o),
(76,674,o),
(76,641,cs),
(76,608,o),
(103,584,o),
(138,584,cs)
);
}
);
width = 279;
},
{
anchors = (
{
name = bottom;
pos = (134,0);
}
);
layerId = "574E12B0-2418-4D16-BF3A-251D49665871";
shapes = (
{
closed = 1;
nodes = (
(254,0,l),
(254,18,l),
(246,18,o),
(216,18,o),
(209,18,cs),
(193,18,o),
(180,30,o),
(180,47,cs),
(180,342,l),
(185,425,l),
(176,441,l),
(139,418,o),
(85,395,o),
(44,386,c),
(44,378,l),
(77,378,o),
(101,356,o),
(101,324,cs),
(106,234,o),
(106,133,o),
(101,43,cs),
(101,28,o),
(86,18,o),
(65,18,cs),
(46,18,l),
(46,0,l)
);
},
{
closed = 1;
nodes = (
(165,603,o),
(181,619,o),
(181,641,cs),
(181,663,o),
(165,679,o),
(141,679,cs),
(117,679,o),
(101,663,o),
(101,641,cs),
(101,619,o),
(117,603,o),
(141,603,cs)
);
}
);
width = 268;
}
);
metricLeft = n;
metricRight = n;
unicode = 105;
},
{
glyphname = j;
lastChange = "2024-11-11 17:30:14 +0000";
layers = (
{
layerId = m01;
shapes = (
{
closed = 1;
nodes = (
(106,-180,o),
(181,-76,o),
(181,-11,cs),
(181,36,o),
(181,372,o),
(181,390,c),
(183,435,l),
(180,443,l),
(42,405,l),
(45,392,l),
(77,392,o),
(100,375,o),
(100,351,c),
(105,224,o),
(105,98,o),
(100,-29,c),
(100,-87,o),
(49,-172,o),
(-24,-233,c),
(1,-262,l)
);
},
{
closed = 1;
nodes = (
(163,617,o),
(187,640,o),
(187,668,cs),
(187,695,o),
(163,718,o),
(134,718,cs),
(104,718,o),
(80,695,o),
(80,668,cs),
(80,640,o),
(104,617,o),
(134,617,cs)
);
}
);
width = 263;
},
{
layerId = m002;
shapes = (
{
closed = 1;
nodes = (
(105,-180,o),
(182,-76,o),
(182,-11,cs),
(182,36,o),
(182,382,o),
(182,400,c),
(182,445,l),
(179,453,l),
(41,415,l),
(44,392,l),
(76,392,o),
(99,375,o),
(99,351,c),
(104,224,o),
(104,108,o),
(99,-19,c),
(99,-77,o),
(48,-162,o),
(-25,-223,c),
(0,-262,l)
);
},
{
closed = 1;
nodes = (
(163,585,o),
(188,609,o),
(188,638,cs),
(188,666,o),
(163,690,o),
(133,690,cs),
(102,690,o),
(77,666,o),
(77,638,cs),
(77,609,o),
(102,585,o),
(133,585,cs)
);
}
);
width = 267;
},
{
layerId = "CDB87FEA-4563-478E-BFE6-62102BA6A3F2";
shapes = (
{
closed = 1;
nodes = (
(104,-180,o),
(183,-76,o),
(183,-11,cs),
(183,36,o),
(183,390,o),
(183,408,cs),
(181,453,l),
(178,461,l),
(40,423,l),
(43,392,l),
(75,392,o),
(98,375,o),
(98,351,cs),
(103,224,o),
(103,116,o),
(98,-11,cs),
(98,-69,o),
(47,-154,o),
(-26,-215,c),
(-1,-262,l)
);
},
{
closed = 1;
nodes = (
(163,561,o),
(189,586,o),
(189,616,cs),
(189,644,o),
(163,669,o),
(132,669,cs),
(101,669,o),
(75,644,o),
(75,616,cs),
(75,586,o),
(101,561,o),
(132,561,cs)
);
}
);
width = 270;
},
{
layerId = "574E12B0-2418-4D16-BF3A-251D49665871";
shapes = (
{
closed = 1;
nodes = (
(107,-180,o),
(180,-76,o),
(180,-11,cs),
(180,36,o),
(180,362,o),
(180,380,c),
(184,425,l),
(181,433,l),
(43,395,l),
(46,392,l),
(78,392,o),
(101,375,o),
(101,351,cs),
(106,224,o),
(106,88,o),
(101,-39,cs),
(101,-97,o),
(50,-182,o),
(-23,-243,c),
(2,-262,l)
);
},
{
closed = 1;
nodes = (
(163,649,o),
(186,671,o),
(186,698,cs),
(186,724,o),
(163,746,o),
(135,746,cs),
(106,746,o),
(83,724,o),
(83,698,cs),
(83,671,o),
(106,649,o),
(135,649,cs)
);
}
);
width = 259;
}
);
metricLeft = i;
metricRight = o;
unicode = 106;
},
{
glyphname = k;
lastChange = "2024-11-11 17:30:14 +0000";
layers = (
{
anchors = (
{
name = bottom;
pos = (262,0);
},
{
name = top;
pos = (262,700);
}
);
layerId = m01;
shapes = (
{
closed = 1;
nodes = (
(260,0,l),
(260,26,l),
(247,26,o),
(231,26,o),
(222,26,cs),
(198,26,o),
(181,46,o),
(181,74,cs),
(181,632,l),
(183,700,l),
(178,708,l),
(135,691,o),
(78,673,o),
(38,663,c),
(38,647,l),
(74,647,o),
(100,629,o),
(100,604,c),
(105,430,o),
(105,256,o),
(100,82,c),
(100,49,o),
(83,26,o),
(60,26,cs),
(30,26,l),
(30,0,l)
);
},
{
closed = 1;
nodes = (
(523,0,l),
(523,28,l),
(518,28,o),
(503,28,o),
(498,28,cs),
(493,28,o),
(451,35,o),
(422,71,cs),
(257,280,l),
(203,239,l),
(251,182,o),
(294,121,o),
(334,56,cs),
(354,24,o),
(339,28,o),
(325,28,cs),
(290,28,l),
(290,0,l)
);
},
{
closed = 1;
nodes = (
(394,365,ls),
(427,391,o),
(510,407,o),
(523,407,c),
(523,435,l),
(324,435,l),
(324,407,l),
(330,407,l),
(349,407,o),
(389,399,o),
(341,362,cs),
(144,211,l),
(144,171,l)
);
}
);
width = 523;
},
{
anchors = (
{
name = bottom;
pos = (264,0);
},
{
name = top;
pos = (264,700);
}
);
layerId = m002;
shapes = (
{
closed = 1;
nodes = (
(261,0,l),
(261,36,l),
(248,36,o),
(232,36,o),
(223,36,cs),
(199,36,o),
(182,56,o),
(182,84,cs),
(182,632,l),
(184,700,l),
(179,708,l),
(136,691,o),
(79,673,o),
(39,663,c),
(39,637,l),
(75,637,o),
(101,619,o),
(101,594,c),
(106,420,o),
(106,266,o),
(101,92,c),
(101,59,o),
(84,36,o),
(61,36,cs),
(31,36,l),
(31,0,l)
);
},
{
closed = 1;
nodes = (
(524,0,l),
(524,38,l),
(519,38,o),
(504,38,o),
(499,38,cs),
(494,38,o),
(453,45,o),
(423,81,cs),
(258,280,l),
(204,239,l),
(252,182,o),
(295,131,o),
(335,66,cs),
(355,34,o),
(340,38,o),
(326,38,cs),
(291,38,l),
(291,0,l)
);
},
{
closed = 1;
nodes = (
(395,353,ls),
(428,379,o),
(511,407,o),
(524,407,c),
(524,445,l),
(325,445,l),
(325,407,l),
(331,407,l),
(350,407,o),
(390,399,o),
(342,362,cs),
(145,211,l),
(145,159,l)
);
}
);
width = 527;
},
{
anchors = (
{
name = bottom;
pos = (265,0);
},
{
name = top;
pos = (265,700);
}
);
layerId = "CDB87FEA-4563-478E-BFE6-62102BA6A3F2";
shapes = (
{
closed = 1;
nodes = (
(262,0,l),
(262,44,l),
(249,44,o),
(233,44,o),
(224,44,cs),
(200,44,o),
(183,64,o),
(183,92,cs),
(183,632,l),
(185,700,l),
(180,708,l),
(137,691,o),
(80,673,o),
(40,663,c),
(40,630,l),
(76,630,o),
(102,612,o),
(102,587,cs),
(107,413,o),
(107,274,o),
(102,100,cs),
(102,67,o),
(85,44,o),
(62,44,cs),
(32,44,l),
(32,0,l)
);
},
{
closed = 1;
nodes = (
(525,0,l),
(525,46,l),
(520,46,o),
(505,46,o),
(500,46,cs),
(495,46,o),
(455,53,o),
(424,89,cs),
(259,280,l),
(205,239,l),
(253,182,o),
(296,139,o),
(336,74,cs),
(356,42,o),
(341,46,o),
(327,46,cs),
(292,46,l),
(292,0,l)
);
},
{
closed = 1;
nodes = (
(396,344,ls),
(429,370,o),
(512,407,o),
(525,407,c),
(525,453,l),
(326,453,l),
(326,407,l),
(332,407,ls),
(351,407,o),
(391,399,o),
(343,362,cs),
(146,211,l),
(146,150,l)
);
}
);
width = 530;
},
{
anchors = (
{
name = bottom;
pos = (260,0);
},
{
name = top;
pos = (260,700);
}
);
layerId = "574E12B0-2418-4D16-BF3A-251D49665871";
shapes = (
{
closed = 1;
nodes = (
(259,0,l),
(259,16,l),
(246,16,o),
(230,16,o),
(221,16,cs),
(197,16,o),
(180,36,o),
(180,64,cs),
(180,632,l),
(182,700,l),
(177,708,l),
(134,691,o),
(77,673,o),
(37,663,c),
(37,657,l),
(73,657,o),
(99,639,o),
(99,614,cs),
(104,440,o),
(104,246,o),
(99,72,cs),
(99,39,o),
(82,16,o),
(59,16,cs),
(29,16,l),
(29,0,l)
);
},
{
closed = 1;
nodes = (
(522,0,l),
(522,18,l),
(517,18,o),
(502,18,o),
(497,18,cs),
(492,18,o),
(449,25,o),
(421,61,cs),
(256,280,l),
(202,239,l),
(250,182,o),
(293,111,o),
(333,46,cs),
(353,14,o),
(338,18,o),
(324,18,cs),
(289,18,l),
(289,0,l)
);
},
{
closed = 1;
nodes = (
(393,377,ls),
(426,403,o),
(509,407,o),
(522,407,c),
(522,425,l),
(323,425,l),
(323,407,l),
(329,407,ls),
(348,407,o),
(388,399,o),
(340,362,cs),
(143,211,l),
(143,183,l)
);
}
);
width = 519;
}
);
unicode = 107;
},
{
glyphname = l;
lastChange = "2024-11-11 17:30:14 +0000";
layers = (
{
anchors = (
{
name = bottom;
pos = (134,0);
},
{
name = center;
pos = (134,218);
},
{
name = top;
pos = (134,700);
},
{
name = topright;
pos = (247,700);
}
);
layerId = m01;
shapes = (
{
closed = 1;
nodes = (
(270,-1,l),
(270,27,l),
(249,27,ls),
(206,27,o),
(176,51,o),
(176,86,cs),
(176,647,l),
(179,700,l),
(174,708,l),
(28,663,l),
(28,647,l),
(65,647,o),
(91,628,o),
(91,601,cs),
(96,421,o),
(96,240,o),
(91,60,cs),
(91,41,o),
(70,27,o),
(40,27,cs),
(11,27,l),
(11,-1,l)
);
}
);
width = 267;
},
{
anchors = (
{
name = bottom;
pos = (136,0);
},
{
name = center;
pos = (136,223);
},
{
name = top;
pos = (136,700);
},
{
name = topright;
pos = (251,700);
}
);
layerId = m002;
shapes = (
{
closed = 1;
nodes = (
(271,-1,l),
(271,37,l),
(250,37,ls),
(207,37,o),
(177,61,o),
(177,96,cs),
(180,647,l),
(183,700,l),
(178,708,l),
(29,663,l),
(29,637,l),
(66,637,o),
(92,618,o),
(92,591,cs),
(97,411,o),
(97,250,o),
(92,70,cs),
(92,51,o),
(71,37,o),
(41,37,cs),
(12,37,l),
(12,-1,l)
);
}
);
width = 271;
},
{
anchors = (
{
name = bottom;
pos = (137,0);
},
{
name = center;
pos = (137,227);
},
{
name = top;
pos = (137,700);
},
{
name = topright;
pos = (254,700);
}
);
layerId = "CDB87FEA-4563-478E-BFE6-62102BA6A3F2";
shapes = (
{
closed = 1;
nodes = (
(272,-1,l),
(272,45,l),
(251,45,ls),
(208,45,o),
(178,69,o),
(178,104,cs),
(183,647,l),
(186,700,l),
(181,708,l),
(30,663,l),
(30,630,l),
(67,630,o),
(93,611,o),
(93,584,cs),
(98,404,o),
(98,258,o),
(93,78,cs),
(93,59,o),
(72,45,o),
(42,45,cs),
(13,45,l),
(13,-1,l)
);
}
);
width = 274;
},
{
anchors = (
{
name = bottom;
pos = (132,0);
},
{
name = center;
pos = (132,213);
},
{
name = top;
pos = (132,700);
},
{
name = topright;
pos = (243,700);
}
);
layerId = "574E12B0-2418-4D16-BF3A-251D49665871";
shapes = (
{
closed = 1;
nodes = (
(269,-1,l),
(269,17,l),
(248,17,ls),
(205,17,o),
(175,41,o),
(175,76,cs),
(172,647,l),
(175,700,l),
(170,708,l),
(27,663,l),
(27,657,l),
(64,657,o),
(90,638,o),
(90,611,cs),
(95,431,o),
(95,230,o),
(90,50,cs),
(90,31,o),
(69,17,o),
(39,17,cs),
(10,17,l),
(10,-1,l)
);
}
);
width = 263;
}
);
metricLeft = n;
metricRight = n;
unicode = 108;
},
{
glyphname = m;
lastChange = "2024-11-11 17:30:14 +0000";
layers = (
{
anchors = (
{
name = bottom;
pos = (430,0);
},
{
name = top;
pos = (430,435);
}
);
background = {
shapes = (
{
closed = 1;
nodes = (
(260,0,l),
(260,28,l),
(247,28,o),
(231,28,o),
(222,28,cs),
(198,28,o),
(181,46,o),
(181,74,cs),
(181,382,l),
(183,435,l),
(168,448,l),
(143,434,o),
(100,414,o),
(59,402,c),
(59,388,l),
(83,378,o),
(99,360,o),
(100,344,cs),
(105,279,o),
(105,127,o),
(100,82,cs),
(96,49,o),
(83,28,o),
(60,28,cs),
(30,28,l),
(30,0,l)
);
}
);
};
layerId = m01;
shapes = (
{
closed = 1;
nodes = (
(855,1,l),
(855,32,l),
(794,32,ls),
(780,32,o),
(770,48,o),
(770,63,cs),
(770,107,o),
(767,298,o),
(767,343,cs),
(767,404,o),
(716,447,o),
(643,447,cs),
(579,447,o),
(493,408,o),
(435,353,c),
(446,328,l),
(480,361,o),
(540,384,o),
(592,384,cs),
(646,384,o),
(678,353,o),
(685,310,cs),
(690,280,o),
(690,133,o),
(685,94,cs),
(680,56,o),
(670,28,o),
(650,28,cs),
(613,28,l),
(613,1,l)
);
},
{
closed = 1;
nodes = (
(260,0,l),
(260,28,l),
(222,28,ls),
(198,28,o),
(184,46,o),
(184,74,cs),
(184,382,l),
(183,435,l),
(168,448,l),
(137,431,o),
(92,412,o),
(59,402,c),
(59,388,l),
(83,378,o),
(99,360,o),
(100,344,cs),
(105,279,o),
(105,127,o),
(100,82,cs),
(96,49,o),
(83,28,o),
(60,28,cs),
(30,28,l),
(30,0,l)
);
},
{
closed = 1;
nodes = (
(554,1,l),
(554,28,l),
(500,28,ls),
(486,28,o),
(476,48,o),
(476,63,cs),
(476,107,o),
(473,298,o),
(473,343,cs),
(473,404,o),
(422,447,o),
(349,447,cs),
(285,447,o),
(199,408,o),
(141,353,c),
(152,328,l),
(186,361,o),
(246,384,o),
(298,384,cs),
(352,384,o),
(384,353,o),
(391,310,cs),
(396,280,o),
(396,133,o),
(391,94,cs),
(386,56,o),
(376,28,o),
(356,28,cs),
(319,28,l),
(319,1,l)
);
}
);
width = 860;
},
{
anchors = (
{
name = bottom;
pos = (432,0);
},
{
name = top;
pos = (432,445);
}
);
background = {
shapes = (
{
closed = 1;
nodes = (
(257,0,l),
(257,38,l),
(244,38,o),
(228,38,o),
(219,38,cs),
(195,38,o),
(178,53,o),
(178,81,cs),
(178,382,l),
(180,435,l),
(165,448,l),
(140,434,o),
(97,414,o),
(56,402,c),
(56,378,l),
(80,368,o),
(96,350,o),
(97,334,cs),
(102,269,o),
(102,134,o),
(97,89,cs),
(93,56,o),
(80,38,o),
(57,38,cs),
(27,38,l),
(27,0,l)
);
}
);
};
layerId = m002;
shapes = (
{
closed = 1;
nodes = (
(855,1,l),
(855,43,l),
(794,43,ls),
(780,43,o),
(770,58,o),
(770,73,cs),
(770,117,o),
(767,308,o),
(767,353,cs),
(767,414,o),
(716,457,o),
(643,457,cs),
(579,457,o),
(493,418,o),
(435,363,c),
(446,328,l),
(480,361,o),
(540,384,o),
(592,384,cs),
(646,384,o),
(678,363,o),
(685,320,cs),
(690,290,o),
(690,143,o),
(685,104,cs),
(680,66,o),
(670,38,o),
(650,38,cs),
(613,38,l),
(613,1,l)
);
},
{
closed = 1;
nodes = (
(260,0,l),
(260,38,l),
(222,38,ls),
(198,38,o),
(181,56,o),
(181,84,cs),
(181,392,l),
(183,445,l),
(168,460,l),
(145,444,o),
(100,424,o),
(59,412,c),
(59,388,l),
(83,378,o),
(99,360,o),
(100,344,cs),
(105,279,o),
(105,137,o),
(100,92,cs),
(96,59,o),
(83,38,o),
(60,38,cs),
(30,38,l),
(30,0,l)
);
},
{
closed = 1;
nodes = (
(554,1,l),
(554,38,l),
(500,38,ls),
(486,38,o),
(476,58,o),
(476,73,cs),
(476,117,o),
(473,308,o),
(473,353,cs),
(473,414,o),
(422,457,o),
(349,457,cs),
(285,457,o),
(199,418,o),
(141,363,c),
(152,328,l),
(186,361,o),
(246,384,o),
(298,384,cs),
(352,384,o),
(384,363,o),
(391,320,cs),
(396,290,o),
(396,143,o),
(391,104,cs),
(386,66,o),
(376,38,o),
(356,38,cs),
(319,38,l),
(319,1,l)
);
}
);
width = 863;
},
{
anchors = (
{
name = bottom;
pos = (433,0);
},
{
name = top;
pos = (433,453);
}
);
layerId = "CDB87FEA-4563-478E-BFE6-62102BA6A3F2";
shapes = (
{
closed = 1;
nodes = (
(855,1,l),
(855,51,l),
(794,51,ls),
(780,51,o),
(770,66,o),
(770,81,cs),
(770,125,o),
(767,316,o),
(767,361,cs),
(767,422,o),
(716,465,o),
(643,465,cs),
(579,465,o),
(493,426,o),
(435,371,c),
(446,328,l),
(480,361,o),
(540,384,o),
(592,384,cs),
(646,384,o),
(678,371,o),
(685,328,cs),
(690,298,o),
(690,151,o),
(685,112,cs),
(680,74,o),
(670,46,o),
(650,46,cs),
(613,46,l),
(613,1,l)
);
},
{
closed = 1;
nodes = (
(260,0,l),
(260,46,l),
(222,46,ls),
(198,46,o),
(179,64,o),
(179,92,cs),
(179,400,l),
(183,453,l),
(168,469,l),
(151,454,o),
(106,433,o),
(59,420,c),
(59,388,l),
(83,378,o),
(99,360,o),
(100,344,cs),
(105,279,o),
(105,145,o),
(100,100,cs),
(96,67,o),
(83,46,o),
(60,46,cs),
(30,46,l),
(30,0,l)
);
},
{
closed = 1;
nodes = (
(554,1,l),
(554,46,l),
(500,46,ls),
(486,46,o),
(476,66,o),
(476,81,cs),
(476,125,o),
(473,316,o),
(473,361,cs),
(473,422,o),
(422,465,o),
(349,465,cs),
(285,465,o),
(199,426,o),
(141,371,c),
(152,328,l),
(186,361,o),
(246,384,o),
(298,384,cs),
(352,384,o),
(384,371,o),
(391,328,cs),
(396,298,o),
(396,151,o),
(391,112,cs),
(386,74,o),
(376,46,o),
(356,46,cs),
(319,46,l),
(319,1,l)
);
}
);
width = 865;
},
{
anchors = (
{
name = bottom;
pos = (429,0);
},
{
name = top;
pos = (429,425);
}
);
layerId = "574E12B0-2418-4D16-BF3A-251D49665871";
shapes = (
{
closed = 1;
nodes = (
(855,1,l),
(855,21,l),
(794,21,ls),
(780,21,o),
(770,38,o),
(770,53,cs),
(770,97,o),
(767,288,o),
(767,333,cs),
(767,394,o),
(716,437,o),
(643,437,cs),
(579,437,o),
(493,398,o),
(435,343,c),
(446,328,l),
(480,361,o),
(540,384,o),
(592,384,cs),
(646,384,o),
(678,343,o),
(685,300,cs),
(690,270,o),
(690,123,o),
(685,84,cs),
(680,46,o),
(670,18,o),
(650,18,cs),
(613,18,l),
(613,1,l)
);
},
{
closed = 1;
nodes = (
(260,0,l),
(260,18,l),
(222,18,ls),
(198,18,o),
(187,36,o),
(187,64,cs),
(187,372,l),
(183,425,l),
(168,436,l),
(129,418,o),
(84,400,o),
(59,392,c),
(59,388,l),
(83,378,o),
(99,360,o),
(100,344,cs),
(105,279,o),
(105,117,o),
(100,72,cs),
(96,39,o),
(83,18,o),
(60,18,cs),
(30,18,l),
(30,0,l)
);
},
{
closed = 1;
nodes = (
(554,1,l),
(554,18,l),
(500,18,ls),
(486,18,o),
(476,38,o),
(476,53,cs),
(476,97,o),
(473,288,o),
(473,333,cs),
(473,394,o),
(422,437,o),
(349,437,cs),
(285,437,o),
(199,398,o),
(141,343,c),
(152,328,l),
(186,361,o),
(246,384,o),
(298,384,cs),
(352,384,o),
(384,343,o),
(391,300,cs),
(396,270,o),
(396,123,o),
(391,84,cs),
(386,46,o),
(376,18,o),
(356,18,cs),
(319,18,l),
(319,1,l)
);
}
);
width = 857;
}
);
metricLeft = n;
metricRight = n;
unicode = 109;
},
{
glyphname = n;
lastChange = "2024-11-11 17:30:14 +0000";
layers = (
{
anchors = (
{
name = bottom;
pos = (283,0);
},
{
name = top;
pos = (283,435);
}
);
layerId = m01;
shapes = (
{
closed = 1;
nodes = (
(561,1,l),
(561,32,l),
(500,32,ls),
(486,32,o),
(476,44,o),
(476,63,cs),
(473,343,ls),
(473,404,o),
(424,447,o),
(354,447,cs),
(287,447,o),
(199,408,o),
(141,353,c),
(152,328,l),
(186,361,o),
(246,384,o),
(298,384,cs),
(352,384,o),
(384,353,o),
(391,310,cs),
(396,280,o),
(396,133,o),
(391,94,cs),
(386,54,o),
(376,28,o),
(356,28,cs),
(319,28,l),
(319,1,l)
);
},
{
closed = 1;
nodes = (
(260,0,l),
(260,28,l),
(222,28,ls),
(198,28,o),
(184,46,o),
(184,74,cs),
(184,382,l),
(183,435,l),
(168,448,l),
(143,434,o),
(100,414,o),
(59,402,c),
(59,388,l),
(83,378,o),
(99,360,o),
(100,344,cs),
(105,279,o),
(105,127,o),
(100,82,cs),
(96,49,o),
(83,28,o),
(60,28,cs),
(30,28,l),
(30,0,l)
);
}
);
width = 566;
},
{
anchors = (
{
name = bottom;
pos = (285,0);
},
{
name = top;
pos = (285,445);
}
);
layerId = m002;
shapes = (
{
closed = 1;
nodes = (
(561,1,l),
(561,43,l),
(500,43,ls),
(486,43,o),
(476,51,o),
(476,70,cs),
(473,353,ls),
(473,414,o),
(424,457,o),
(354,457,cs),
(287,457,o),
(199,418,o),
(141,363,c),
(152,328,l),
(186,361,o),
(246,384,o),
(298,384,cs),
(352,384,o),
(384,363,o),
(391,320,cs),
(396,290,o),
(396,140,o),
(391,101,cs),
(386,61,o),
(376,38,o),
(356,38,cs),
(319,38,l),
(319,1,l)
);
},
{
closed = 1;
nodes = (
(260,0,l),
(260,38,l),
(222,38,ls),
(198,38,o),
(181,53,o),
(181,81,cs),
(181,392,l),
(183,445,l),
(168,458,l),
(143,444,o),
(100,424,o),
(59,412,c),
(59,388,l),
(83,378,o),
(99,360,o),
(100,344,cs),
(105,279,o),
(105,134,o),
(100,89,cs),
(96,56,o),
(83,38,o),
(60,38,cs),
(30,38,l),
(30,0,l)
);
}
);
width = 569;
},
{
anchors = (
{
name = bottom;
pos = (286,0);
},
{
name = top;
pos = (286,453);
}
);
layerId = "CDB87FEA-4563-478E-BFE6-62102BA6A3F2";
shapes = (
{
closed = 1;
nodes = (
(561,1,l),
(561,51,l),
(500,51,ls),
(486,51,o),
(476,56,o),
(476,75,cs),
(473,361,ls),
(473,422,o),
(424,465,o),
(354,465,cs),
(287,465,o),
(199,426,o),
(141,371,c),
(152,328,l),
(186,361,o),
(246,384,o),
(298,384,cs),
(352,384,o),
(384,371,o),
(391,328,cs),
(396,298,o),
(396,145,o),
(391,106,cs),
(386,66,o),
(376,46,o),
(356,46,cs),
(319,46,l),
(319,1,l)
);
},
{
closed = 1;
nodes = (
(260,0,l),
(260,46,l),
(222,46,ls),
(198,46,o),
(179,58,o),
(179,86,cs),
(179,400,l),
(183,453,l),
(168,466,l),
(143,452,o),
(100,432,o),
(59,420,c),
(59,388,l),
(83,378,o),
(99,360,o),
(100,344,cs),
(105,279,o),
(105,139,o),
(100,94,cs),
(96,61,o),
(83,46,o),
(60,46,cs),
(30,46,l),
(30,0,l)
);
}
);
width = 571;
},
{
anchors = (
{
name = bottom;
pos = (282,0);
},
{
name = top;
pos = (282,425);
}
);
layerId = "574E12B0-2418-4D16-BF3A-251D49665871";
shapes = (
{
closed = 1;
nodes = (
(561,1,l),
(561,21,l),
(500,21,ls),
(486,21,o),
(476,37,o),
(476,56,cs),
(473,333,ls),
(473,394,o),
(424,437,o),
(354,437,cs),
(287,437,o),
(199,398,o),
(141,343,c),
(152,328,l),
(186,361,o),
(246,384,o),
(298,384,cs),
(352,384,o),
(384,343,o),
(391,300,cs),
(396,270,o),
(396,126,o),
(391,87,cs),
(386,47,o),
(376,18,o),
(356,18,cs),
(319,18,l),
(319,1,l)
);
},
{
closed = 1;
nodes = (
(260,0,l),
(260,18,l),
(222,18,ls),
(198,18,o),
(187,39,o),
(187,67,cs),
(187,372,l),
(183,425,l),
(168,438,l),
(143,424,o),
(100,404,o),
(59,392,c),
(59,388,l),
(83,378,o),
(99,360,o),
(100,344,cs),
(105,279,o),
(105,120,o),
(100,75,cs),
(96,42,o),
(83,18,o),
(60,18,cs),
(30,18,l),
(30,0,l)
);
}
);
width = 563;
}
);
unicode = 110;
},
{
glyphname = o;
lastChange = "2024-11-11 17:30:14 +0000";
layers = (
{
anchors = (
{
name = bottom;
pos = (272,0);
},
{
name = center;
pos = (272,218);
},
{
name = ogonek;
pos = (490,10);
},
{
name = top;
pos = (272,435);
},
{
name = topright;
pos = (524,435);
}
);
layerId = m01;
shapes = (
{
closed = 1;
nodes = (
(409,-12,o),
(508,87,o),
(508,226,cs),
(508,355,o),
(409,447,o),
(268,447,cs),
(132,447,o),
(36,355,o),
(36,226,cs),
(36,87,o),
(132,-12,o),
(268,-12,cs)
);
},
{
closed = 1;
nodes = (
(197,19,o),
(136,103,o),
(136,222,cs),
(136,335,o),
(186,415,o),
(254,416,cs),
(346,416,o),
(409,331,o),
(409,211,cs),
(409,100,o),
(356,20,o),
(285,19,cs)
);
}
);
width = 544;
},
{
anchors = (
{
name = bottom;
pos = (275,0);
},
{
name = center;
pos = (275,223);
},
{
name = ogonek;
pos = (495,10);
},
{
name = top;
pos = (275,445);
},
{
name = topright;
pos = (530,445);
}
);
layerId = m002;
shapes = (
{
closed = 1;
nodes = (
(412,-12,o),
(511,97,o),
(511,236,cs),
(511,365,o),
(412,457,o),
(271,457,cs),
(135,457,o),
(39,365,o),
(39,236,cs),
(39,97,o),
(135,-12,o),
(271,-12,cs)
);
},
{
closed = 1;
nodes = (
(200,29,o),
(139,119,o),
(139,232,cs),
(139,339,o),
(189,415,o),
(257,416,cs),
(349,416,o),
(412,335,o),
(412,221,cs),
(412,115,o),
(359,30,o),
(288,29,cs)
);
}
);
width = 550;
},
{
anchors = (
{
name = bottom;
pos = (278,0);
},
{
name = center;
pos = (278,227);
},
{
name = ogonek;
pos = (500,10);
},
{
name = top;
pos = (277,453);
},
{
name = topright;
pos = (535,453);
}
);
layerId = "CDB87FEA-4563-478E-BFE6-62102BA6A3F2";
shapes = (
{
closed = 1;
nodes = (
(414,-12,o),
(513,105,o),
(513,244,cs),
(513,373,o),
(414,465,o),
(273,465,cs),
(137,465,o),
(41,373,o),
(41,244,cs),
(41,105,o),
(137,-12,o),
(273,-12,cs)
);
},
{
closed = 1;
nodes = (
(202,37,o),
(141,131,o),
(141,240,cs),
(141,342,o),
(191,415,o),
(259,416,cs),
(351,416,o),
(414,338,o),
(414,229,cs),
(414,126,o),
(361,38,o),
(290,37,cs)
);
}
);
width = 555;
},
{
anchors = (
{
name = bottom;
pos = (269,0);
},
{
name = center;
pos = (269,213);
},
{
name = ogonek;
pos = (484,10);
},
{
name = top;
pos = (269,425);
},
{
name = topright;
pos = (518,425);
}
);
layerId = "574E12B0-2418-4D16-BF3A-251D49665871";
shapes = (
{
closed = 1;
nodes = (
(406,-12,o),
(505,77,o),
(505,216,cs),
(505,345,o),
(406,437,o),
(265,437,cs),
(129,437,o),
(33,345,o),
(33,216,cs),
(33,77,o),
(129,-12,o),
(265,-12,cs)
);
},
{
closed = 1;
nodes = (
(194,9,o),
(133,87,o),
(133,212,cs),
(133,331,o),
(183,415,o),
(251,416,cs),
(343,416,o),
(406,327,o),
(406,201,cs),
(406,85,o),
(353,10,o),
(282,9,cs)
);
}
);
width = 538;
}
);
unicode = 111;
},
{
glyphname = p;
lastChange = "2024-11-11 17:30:14 +0000";
layers = (
{
anchors = (
{
name = bottom;
pos = (269,0);
},
{
name = top;
pos = (269,435);
}
);
layerId = m01;
shapes = (
{
closed = 1;
nodes = (
(300,-290,l),
(300,-262,l),
(216,-262,l),
(190,-262,o),
(172,-245,o),
(172,-221,cs),
(172,386,l),
(173,435,l),
(168,447,l),
(126,425,o),
(72,406,o),
(31,400,c),
(31,381,l),
(66,381,o),
(91,352,o),
(91,310,c),
(96,140,o),
(96,-29,o),
(91,-199,c),
(91,-236,o),
(68,-262,o),
(35,-262,cs),
(16,-262,l),
(16,-290,l)
);
},
{
closed = 1;
nodes = (
(403,-12,o),
(502,97,o),
(502,251,cs),
(502,363,o),
(422,447,o),
(310,447,cs),
(252,447,o),
(175,415,o),
(124,370,c),
(142,349,l),
(172,377,o),
(219,397,o),
(254,397,cs),
(337,397,o),
(406,324,o),
(406,227,cs),
(406,105,o),
(336,28,o),
(253,28,cs),
(212,28,o),
(170,49,o),
(151,79,c),
(151,34,l),
(181,7,o),
(227,-12,o),
(262,-12,cs)
);
}
);
width = 538;
},
{
anchors = (
{
name = bottom;
pos = (271,0);
},
{
name = top;
pos = (271,445);
}
);
layerId = m002;
shapes = (
{
closed = 1;
nodes = (
(300,-290,l),
(300,-252,l),
(216,-252,l),
(190,-252,o),
(174,-235,o),
(174,-211,cs),
(174,396,l),
(173,445,l),
(168,457,l),
(126,435,o),
(72,416,o),
(31,410,c),
(31,381,l),
(66,381,o),
(91,352,o),
(91,310,c),
(96,140,o),
(96,-19,o),
(91,-189,c),
(91,-226,o),
(68,-252,o),
(35,-252,cs),
(16,-252,l),
(16,-290,l)
);
},
{
closed = 1;
nodes = (
(403,-12,o),
(502,107,o),
(502,261,cs),
(502,373,o),
(422,457,o),
(310,457,cs),
(252,457,o),
(175,425,o),
(124,380,c),
(142,349,l),
(172,377,o),
(219,397,o),
(254,397,cs),
(337,397,o),
(406,334,o),
(406,237,cs),
(406,115,o),
(336,40,o),
(253,40,cs),
(212,40,o),
(170,61,o),
(151,91,c),
(151,34,l),
(181,7,o),
(227,-12,o),
(262,-12,cs)
);
}
);
width = 541;
},
{
anchors = (
{
name = bottom;
pos = (272,0);
},
{
name = top;
pos = (272,453);
}
);
layerId = "CDB87FEA-4563-478E-BFE6-62102BA6A3F2";
shapes = (
{
closed = 1;
nodes = (
(300,-290,l),
(300,-244,l),
(216,-244,ls),
(190,-244,o),
(176,-227,o),
(176,-203,cs),
(176,404,l),
(173,453,l),
(168,465,l),
(126,443,o),
(72,424,o),
(31,418,c),
(31,381,l),
(66,381,o),
(91,352,o),
(91,310,cs),
(96,140,o),
(96,-11,o),
(91,-181,cs),
(91,-218,o),
(68,-244,o),
(35,-244,cs),
(16,-244,l),
(16,-290,l)
);
},
{
closed = 1;
nodes = (
(403,-12,o),
(502,115,o),
(502,269,cs),
(502,381,o),
(422,465,o),
(310,465,cs),
(252,465,o),
(175,433,o),
(124,388,c),
(142,349,l),
(172,377,o),
(219,397,o),
(254,397,cs),
(337,397,o),
(406,342,o),
(406,245,cs),
(406,123,o),
(336,49,o),
(253,49,cs),
(212,49,o),
(170,70,o),
(151,100,c),
(151,34,l),
(181,7,o),
(227,-12,o),
(262,-12,cs)
);
}
);
width = 543;
},
{
anchors = (
{
name = bottom;
pos = (268,0);
},
{
name = top;
pos = (268,425);
}
);
layerId = "574E12B0-2418-4D16-BF3A-251D49665871";
shapes = (
{
closed = 1;
nodes = (
(300,-290,l),
(300,-272,l),
(216,-272,ls),
(190,-272,o),
(170,-255,o),
(170,-231,cs),
(170,376,l),
(173,425,l),
(168,437,l),
(126,415,o),
(72,396,o),
(31,390,c),
(31,381,l),
(66,381,o),
(91,352,o),
(91,310,cs),
(96,140,o),
(96,-39,o),
(91,-209,cs),
(91,-246,o),
(68,-272,o),
(35,-272,cs),
(16,-272,l),
(16,-290,l)
);
},
{
closed = 1;
nodes = (
(403,-12,o),
(502,87,o),
(502,241,cs),
(502,353,o),
(422,437,o),
(310,437,cs),
(252,437,o),
(175,405,o),
(124,360,c),
(142,349,l),
(172,377,o),
(219,397,o),
(254,397,cs),
(337,397,o),
(406,314,o),
(406,217,cs),
(406,95,o),
(336,16,o),
(253,16,cs),
(212,16,o),
(170,37,o),
(151,67,c),
(151,34,l),
(181,7,o),
(227,-12,o),
(262,-12,cs)
);
}
);
width = 535;
}
);
metricLeft = n;
metricRight = o;
unicode = 112;
},
{
glyphname = q;
lastChange = "2024-11-11 17:30:14 +0000";
layers = (
{
anchors = (
{
name = bottom;
pos = (273,0);
},
{
name = top;
pos = (273,435);
}
);
layerId = m01;
shapes = (
{
closed = 1;
nodes = (
(310,-12,o),
(379,6,o),
(421,32,c),
(413,64,l),
(379,42,o),
(329,26,o),
(294,26,cs),
(202,26,o),
(134,117,o),
(134,249,cs),
(134,342,o),
(187,409,o),
(257,409,cs),
(331,409,o),
(400,364,o),
(423,327,c),
(423,417,l),
(395,435,o),
(345,448,o),
(304,448,cs),
(147,448,o),
(36,356,o),
(36,225,cs),
(36,86,o),
(126,-12,o),
(254,-12,cs)
);
},
{
closed = 1;
nodes = (
(542,-282,l),
(542,-255,l),
(527,-255,ls),
(490,-255,o),
(464,-236,o),
(464,-210,cs),
(459,-30,o),
(459,150,o),
(464,330,cs),
(464,379,o),
(468,421,o),
(473,433,c),
(466,444,l),
(385,410,l),
(385,-210,ls),
(385,-236,o),
(364,-254,o),
(335,-254,cs),
(297,-254,l),
(297,-282,l)
);
}
);
width = 546;
},
{
anchors = (
{
name = bottom;
pos = (275,0);
},
{
name = top;
pos = (275,445);
}
);
layerId = m002;
shapes = (
{
closed = 1;
nodes = (
(313,-12,o),
(382,6,o),
(424,32,c),
(416,77,l),
(382,55,o),
(332,34,o),
(297,34,cs),
(205,34,o),
(137,127,o),
(137,259,cs),
(137,352,o),
(190,411,o),
(260,411,cs),
(334,411,o),
(403,364,o),
(426,327,c),
(426,427,l),
(398,445,o),
(348,458,o),
(307,458,cs),
(150,458,o),
(39,366,o),
(39,235,cs),
(39,96,o),
(129,-12,o),
(257,-12,cs)
);
},
{
closed = 1;
nodes = (
(545,-282,l),
(545,-245,l),
(530,-245,ls),
(493,-245,o),
(467,-226,o),
(467,-200,cs),
(462,-20,o),
(462,160,o),
(467,340,cs),
(467,389,o),
(471,431,o),
(476,443,c),
(469,454,l),
(384,420,l),
(384,-200,ls),
(384,-226,o),
(367,-244,o),
(338,-244,cs),
(300,-244,l),
(300,-282,l)
);
}
);
width = 549;
},
{
anchors = (
{
name = bottom;
pos = (276,0);
},
{
name = top;
pos = (276,453);
}
);
layerId = "CDB87FEA-4563-478E-BFE6-62102BA6A3F2";
shapes = (
{
closed = 1;
nodes = (
(315,-12,o),
(384,6,o),
(426,32,c),
(418,87,l),
(384,65,o),
(334,40,o),
(299,40,cs),
(207,40,o),
(139,135,o),
(139,267,cs),
(139,360,o),
(192,413,o),
(262,413,cs),
(336,413,o),
(405,364,o),
(428,327,c),
(428,435,l),
(400,453,o),
(350,466,o),
(309,466,cs),
(152,466,o),
(41,374,o),
(41,243,cs),
(41,104,o),
(131,-12,o),
(259,-12,cs)
);
},
{
closed = 1;
nodes = (
(547,-282,l),
(547,-237,l),
(532,-237,ls),
(495,-237,o),
(469,-218,o),
(469,-192,cs),
(464,-12,o),
(464,168,o),
(469,348,cs),
(469,397,o),
(473,439,o),
(478,451,c),
(471,462,l),
(383,428,l),
(383,-192,ls),
(383,-218,o),
(369,-236,o),
(340,-236,cs),
(302,-236,l),
(302,-282,l)
);
}
);
width = 551;
},
{
anchors = (
{
name = bottom;
pos = (272,0);
},
{
name = top;
pos = (272,425);
}
);
layerId = "574E12B0-2418-4D16-BF3A-251D49665871";
shapes = (
{
closed = 1;
nodes = (
(307,-12,o),
(376,6,o),
(418,32,c),
(410,51,l),
(376,29,o),
(326,18,o),
(291,18,cs),
(199,18,o),
(131,107,o),
(131,239,cs),
(131,332,o),
(184,407,o),
(254,407,cs),
(328,407,o),
(397,364,o),
(420,327,c),
(420,407,l),
(392,425,o),
(342,438,o),
(301,438,cs),
(144,438,o),
(33,346,o),
(33,215,cs),
(33,76,o),
(123,-12,o),
(251,-12,cs)
);
},
{
closed = 1;
nodes = (
(539,-282,l),
(539,-265,l),
(524,-265,ls),
(487,-265,o),
(461,-246,o),
(461,-220,cs),
(456,-40,o),
(456,140,o),
(461,320,cs),
(461,369,o),
(465,411,o),
(470,423,c),
(463,434,l),
(386,400,l),
(386,-220,ls),
(386,-246,o),
(361,-264,o),
(332,-264,cs),
(294,-264,l),
(294,-282,l)
);
}
);
width = 543;
}
);
metricLeft = o;
metricRight = n;
unicode = 113;
},
{
glyphname = r;
lastChange = "2024-11-11 17:30:14 +0000";
layers = (
{
anchors = (
{
name = bottom;
pos = (200,0);
},
{
name = top;
pos = (200,435);
}
);
background = {
shapes = (
{
closed = 1;
nodes = (
(560,1,l),
(560,32,l),
(550,32,o),
(505,32,o),
(499,32,cs),
(485,32,o),
(475,44,o),
(475,63,cs),
(475,107,o),
(472,298,o),
(472,343,cs),
(472,404,o),
(423,447,o),
(353,447,cs),
(286,447,o),
(198,408,o),
(140,353,c),
(151,328,l),
(185,361,o),
(245,384,o),
(297,384,cs),
(351,384,o),
(383,353,o),
(390,310,cs),
(395,280,o),
(395,133,o),
(390,94,cs),
(385,54,o),
(375,28,o),
(355,28,cs),
(318,28,l),
(318,1,l)
);
},
{
closed = 1;
nodes = (
(259,0,l),
(259,28,l),
(246,28,o),
(230,28,o),
(221,28,cs),
(197,28,o),
(183,46,o),
(183,74,cs),
(183,382,l),
(182,435,l),
(167,448,l),
(142,434,o),
(99,414,o),
(58,402,c),
(58,388,l),
(82,378,o),
(98,360,o),
(99,344,cs),
(104,279,o),
(104,127,o),
(99,82,cs),
(95,49,o),
(82,28,o),
(59,28,cs),
(29,28,l),
(29,0,l)
);
}
);
};
layerId = m01;
shapes = (
{
closed = 1;
nodes = (
(263,0,l),
(263,28,l),
(222,28,ls),
(199,28,o),
(181,36,o),
(181,47,cs),
(181,307,ls),
(181,346,o),
(219,370,o),
(256,373,cs),
(314,377,o),
(305,328,o),
(331,328,cs),
(345,328,o),
(399,359,o),
(399,392,cs),
(399,418,o),
(375,447,o),
(341,447,cs),
(303,447,o),
(219,404,o),
(168,362,c),
(189,372,l),
(198,442,l),
(188,453,l),
(148,434,o),
(87,413,o),
(41,402,c),
(41,375,l),
(74,375,o),
(100,354,o),
(100,324,cs),
(105,237,o),
(105,157,o),
(100,70,cs),
(100,45,o),
(82,28,o),
(60,28,cs),
(26,28,l),
(26,0,l)
);
}
);
width = 399;
},
{
anchors = (
{
name = bottom;
pos = (198,0);
},
{
name = top;
pos = (198,445);
}
);
layerId = m002;
shapes = (
{
closed = 1;
nodes = (
(263,0,l),
(263,38,l),
(222,38,ls),
(199,38,o),
(184,46,o),
(184,57,cs),
(184,307,ls),
(184,346,o),
(219,370,o),
(256,373,cs),
(314,377,o),
(305,338,o),
(331,338,cs),
(345,338,o),
(399,369,o),
(399,402,cs),
(399,428,o),
(375,457,o),
(341,457,cs),
(303,457,o),
(219,414,o),
(168,372,c),
(186,369,l),
(198,452,l),
(188,463,l),
(148,444,o),
(87,423,o),
(41,412,c),
(41,375,l),
(74,375,o),
(100,354,o),
(100,324,cs),
(105,237,o),
(105,167,o),
(100,80,cs),
(100,55,o),
(82,38,o),
(60,38,cs),
(26,38,l),
(26,0,l)
);
}
);
width = 396;
},
{
anchors = (
{
name = bottom;
pos = (197,0);
},
{
name = top;
pos = (197,453);
}
);
layerId = "CDB87FEA-4563-478E-BFE6-62102BA6A3F2";
shapes = (
{
closed = 1;
nodes = (
(263,0,l),
(263,46,l),
(222,46,ls),
(199,46,o),
(186,54,o),
(186,65,cs),
(186,307,ls),
(186,346,o),
(219,370,o),
(256,373,cs),
(314,377,o),
(305,346,o),
(331,346,cs),
(345,346,o),
(399,377,o),
(399,410,cs),
(399,436,o),
(375,465,o),
(341,465,cs),
(303,465,o),
(219,422,o),
(168,380,c),
(184,367,l),
(198,460,l),
(188,471,l),
(148,452,o),
(87,431,o),
(41,420,c),
(41,375,l),
(74,375,o),
(100,354,o),
(100,324,cs),
(105,237,o),
(105,175,o),
(100,88,cs),
(100,63,o),
(82,46,o),
(60,46,cs),
(26,46,l),
(26,0,l)
);
}
);
width = 394;
},
{
anchors = (
{
name = bottom;
pos = (201,0);
},
{
name = top;
pos = (201,425);
}
);
layerId = "574E12B0-2418-4D16-BF3A-251D49665871";
shapes = (
{
closed = 1;
nodes = (
(263,0,l),
(263,18,l),
(222,18,ls),
(199,18,o),
(178,26,o),
(178,37,cs),
(178,307,ls),
(178,346,o),
(219,370,o),
(256,373,cs),
(314,377,o),
(305,318,o),
(331,318,cs),
(345,318,o),
(399,349,o),
(399,382,cs),
(399,408,o),
(375,437,o),
(341,437,cs),
(303,437,o),
(219,394,o),
(168,352,c),
(192,375,l),
(198,432,l),
(188,443,l),
(148,424,o),
(87,403,o),
(41,392,c),
(41,375,l),
(74,375,o),
(100,354,o),
(100,324,cs),
(105,237,o),
(105,147,o),
(100,60,cs),
(100,35,o),
(82,18,o),
(60,18,cs),
(26,18,l),
(26,0,l)
);
}
);
width = 402;
}
);
metricLeft = n;
unicode = 114;
},
{
glyphname = s;
lastChange = "2024-11-11 17:30:14 +0000";
layers = (
{
anchors = (
{
name = bottom;
pos = (178,0);
},
{
name = top;
pos = (178,435);
}
);
layerId = m01;
shapes = (
{
closed = 1;
nodes = (
(251,-15,o),
(319,50,o),
(319,137,cs),
(319,267,o),
(96,264,o),
(96,360,cs),
(96,397,o),
(130,418,o),
(178,418,cs),
(224,418,o),
(247,397,o),
(247,366,cs),
(247,360,o),
(245,353,o),
(245,348,cs),
(245,344,o),
(264,342,o),
(291,342,cs),
(300,342,o),
(307,352,o),
(307,365,cs),
(307,415,o),
(261,451,o),
(197,451,cs),
(103,451,o),
(37,398,o),
(37,316,cs),
(37,173,o),
(253,184,o),
(253,104,cs),
(253,56,o),
(220,18,o),
(173,18,cs),
(120,18,o),
(92,46,o),
(92,87,cs),
(92,94,o),
(94,98,o),
(94,107,cs),
(94,114,o),
(76,119,o),
(50,119,cs),
(42,119,o),
(36,108,o),
(36,93,cs),
(36,30,o),
(86,-15,o),
(156,-15,cs)
);
}
);
width = 355;
},
{
anchors = (
{
name = bottom;
pos = (181,0);
},
{
name = top;
pos = (181,445);
}
);
layerId = m002;
shapes = (
{
closed = 1;
nodes = (
(254,-15,o),
(322,48,o),
(322,127,cs),
(322,257,o),
(109,284,o),
(109,370,cs),
(109,398,o),
(133,428,o),
(181,428,cs),
(216,428,o),
(240,401,o),
(240,376,cs),
(240,370,o),
(238,365,o),
(238,360,cs),
(238,355,o),
(267,352,o),
(294,352,cs),
(303,352,o),
(310,362,o),
(310,375,cs),
(310,425,o),
(264,461,o),
(200,461,cs),
(106,461,o),
(40,405,o),
(40,336,cs),
(40,193,o),
(246,174,o),
(246,104,cs),
(246,59,o),
(221,18,o),
(174,18,cs),
(132,18,o),
(105,52,o),
(105,87,cs),
(105,94,o),
(107,98,o),
(107,107,cs),
(107,114,o),
(79,119,o),
(53,119,cs),
(45,119,o),
(39,108,o),
(39,93,cs),
(39,30,o),
(89,-15,o),
(159,-15,cs)
);
}
);
width = 361;
},
{
anchors = (
{
name = bottom;
pos = (183,0);
},
{
name = top;
pos = (183,453);
}
);
layerId = "CDB87FEA-4563-478E-BFE6-62102BA6A3F2";
shapes = (
{
closed = 1;
nodes = (
(256,-15,o),
(324,47,o),
(324,120,cs),
(324,250,o),
(119,299,o),
(119,378,cs),
(119,399,o),
(135,436,o),
(183,436,cs),
(210,436,o),
(235,404,o),
(235,384,cs),
(235,378,o),
(233,374,o),
(233,369,cs),
(233,363,o),
(269,360,o),
(296,360,cs),
(305,360,o),
(312,370,o),
(312,383,cs),
(312,433,o),
(266,469,o),
(202,469,cs),
(108,469,o),
(42,410,o),
(42,351,cs),
(42,208,o),
(241,167,o),
(241,104,cs),
(241,61,o),
(222,18,o),
(175,18,cs),
(141,18,o),
(115,57,o),
(115,87,cs),
(115,94,o),
(117,98,o),
(117,107,cs),
(117,114,o),
(81,119,o),
(55,119,cs),
(47,119,o),
(41,108,o),
(41,93,cs),
(41,30,o),
(91,-15,o),
(161,-15,cs)
);
}
);
width = 366;
},
{
anchors = (
{
name = bottom;
pos = (175,0);
},
{
name = top;
pos = (175,425);
}
);
layerId = "574E12B0-2418-4D16-BF3A-251D49665871";
shapes = (
{
closed = 1;
nodes = (
(248,-15,o),
(316,52,o),
(316,147,cs),
(316,277,o),
(83,244,o),
(83,350,cs),
(83,396,o),
(127,408,o),
(175,408,cs),
(232,408,o),
(254,393,o),
(254,356,cs),
(254,350,o),
(252,341,o),
(252,336,cs),
(252,333,o),
(261,332,o),
(288,332,cs),
(297,332,o),
(304,342,o),
(304,355,cs),
(304,405,o),
(258,441,o),
(194,441,cs),
(100,441,o),
(34,391,o),
(34,296,cs),
(34,153,o),
(260,194,o),
(260,104,cs),
(260,53,o),
(219,18,o),
(172,18,cs),
(108,18,o),
(79,40,o),
(79,87,cs),
(79,94,o),
(81,98,o),
(81,107,cs),
(81,114,o),
(73,119,o),
(47,119,cs),
(39,119,o),
(33,108,o),
(33,93,cs),
(33,30,o),
(83,-15,o),
(153,-15,cs)
);
}
);
width = 349;
}
);
metricLeft = o;
metricRight = o;
unicode = 115;
},
{
glyphname = germandbls;
lastChange = "2024-11-11 17:30:14 +0000";
layers = (
{
anchors = (
{
name = bottom;
pos = (293,0);
},
{
name = top;
pos = (293,700);
}
);
layerId = m01;
shapes = (
{
closed = 1;
nodes = (
(179,0,l),
(181,59,l),
(181,531,ls),
(181,604,o),
(205,668,o),
(233,692,cs),
(247,704,o),
(268,716,o),
(290,716,c),
(357,779,l),
(316,779,o),
(248,746,o),
(193,699,cs),
(140,655,o),
(103,582,o),
(103,512,cs),
(103,449,o),
(72,404,o),
(27,404,cs),
(15,404,l),
(15,376,l),
(100,376,l),
(100,77,ls),
(100,48,o),
(81,28,o),
(55,28,cs),
(10,28,l),
(10,0,l)
);
},
{
closed = 1;
nodes = (
(481,-12,o),
(549,49,o),
(549,136,cs),
(549,249,o),
(346,278,o),
(346,374,cs),
(346,440,o),
(500,504,o),
(500,612,cs),
(500,710,o),
(441,779,o),
(357,779,c),
(290,716,l),
(359,716,o),
(408,655,o),
(408,568,cs),
(408,445,o),
(287,454,o),
(287,327,cs),
(287,193,o),
(483,180,o),
(483,100,cs),
(483,52,o),
(450,18,o),
(403,18,cs),
(350,18,o),
(312,47,o),
(312,88,cs),
(312,95,o),
(314,101,o),
(314,110,cs),
(314,117,o),
(300,122,o),
(280,122,cs),
(272,122,o),
(266,111,o),
(266,96,cs),
(266,33,o),
(316,-12,o),
(386,-12,cs)
);
}
);
width = 585;
},
{
anchors = (
{
name = bottom;
pos = (296,0);
},
{
name = top;
pos = (296,700);
}
);
layerId = m002;
shapes = (
{
closed = 1;
nodes = (
(182,0,l),
(183,59,l),
(183,541,ls),
(183,614,o),
(208,658,o),
(236,682,cs),
(250,694,o),
(271,706,o),
(293,706,c),
(360,779,l),
(319,779,o),
(251,746,o),
(196,699,cs),
(143,655,o),
(106,592,o),
(106,522,cs),
(106,459,o),
(75,414,o),
(30,414,cs),
(18,414,l),
(18,376,l),
(103,376,l),
(103,87,ls),
(103,58,o),
(84,38,o),
(58,38,cs),
(13,38,l),
(13,0,l)
);
},
{
closed = 1;
nodes = (
(484,-12,o),
(552,49,o),
(552,136,cs),
(552,249,o),
(349,298,o),
(349,394,cs),
(349,460,o),
(503,494,o),
(503,612,cs),
(503,710,o),
(444,779,o),
(360,779,c),
(293,706,l),
(362,706,o),
(411,649,o),
(411,568,cs),
(411,445,o),
(290,484,o),
(290,347,cs),
(290,213,o),
(486,180,o),
(486,100,cs),
(486,58,o),
(453,28,o),
(406,28,cs),
(359,28,o),
(325,53,o),
(325,88,cs),
(325,95,o),
(327,101,o),
(327,110,cs),
(327,117,o),
(309,122,o),
(283,122,cs),
(275,122,o),
(269,111,o),
(269,96,cs),
(269,33,o),
(319,-12,o),
(389,-12,cs)
);
}
);
width = 591;
},
{
anchors = (
{
name = bottom;
pos = (298,0);
},
{
name = top;
pos = (298,700);
}
);
layerId = "CDB87FEA-4563-478E-BFE6-62102BA6A3F2";
shapes = (
{
closed = 1;
nodes = (
(184,0,l),
(185,59,l),
(185,549,ls),
(185,622,o),
(210,651,o),
(238,675,cs),
(252,687,o),
(273,699,o),
(295,699,c),
(362,779,l),
(321,779,o),
(253,746,o),
(198,699,cs),
(145,655,o),
(108,600,o),
(108,530,cs),
(108,467,o),
(77,422,o),
(32,422,cs),
(20,422,l),
(20,376,l),
(105,376,l),
(105,95,ls),
(105,66,o),
(86,46,o),
(60,46,cs),
(15,46,l),
(15,0,l)
);
},
{
closed = 1;
nodes = (
(486,-12,o),
(554,49,o),
(554,136,cs),
(554,249,o),
(351,313,o),
(351,409,cs),
(351,475,o),
(505,487,o),
(505,612,cs),
(505,710,o),
(446,779,o),
(362,779,c),
(295,699,l),
(364,699,o),
(413,645,o),
(413,568,cs),
(413,445,o),
(292,507,o),
(292,362,cs),
(292,228,o),
(488,180,o),
(488,100,cs),
(488,63,o),
(455,36,o),
(408,36,cs),
(366,36,o),
(335,58,o),
(335,88,cs),
(335,95,o),
(337,101,o),
(337,110,cs),
(337,117,o),
(316,122,o),
(285,122,cs),
(277,122,o),
(271,111,o),
(271,96,cs),
(271,33,o),
(321,-12,o),
(391,-12,cs)
);
}
);
width = 596;
},
{
anchors = (
{
name = bottom;
pos = (290,0);
},
{
name = top;
pos = (290,700);
}
);
layerId = "574E12B0-2418-4D16-BF3A-251D49665871";
shapes = (
{
closed = 1;
nodes = (
(176,0,l),
(179,59,l),
(179,521,ls),
(179,594,o),
(202,678,o),
(230,702,cs),
(244,714,o),
(265,726,o),
(287,726,c),
(354,779,l),
(313,779,o),
(245,746,o),
(190,699,cs),
(137,655,o),
(100,572,o),
(100,502,cs),
(100,439,o),
(69,394,o),
(24,394,cs),
(12,394,l),
(12,376,l),
(97,376,l),
(97,67,ls),
(97,38,o),
(78,18,o),
(52,18,cs),
(7,18,l),
(7,0,l)
);
},
{
closed = 1;
nodes = (
(478,-12,o),
(546,49,o),
(546,136,cs),
(546,249,o),
(343,258,o),
(343,354,cs),
(343,420,o),
(497,514,o),
(497,612,cs),
(497,710,o),
(438,779,o),
(354,779,c),
(287,726,l),
(356,726,o),
(405,661,o),
(405,568,cs),
(405,445,o),
(284,424,o),
(284,307,cs),
(284,173,o),
(480,180,o),
(480,100,cs),
(480,46,o),
(447,8,o),
(400,8,cs),
(341,8,o),
(299,41,o),
(299,88,cs),
(299,95,o),
(301,101,o),
(301,110,cs),
(301,117,o),
(291,122,o),
(277,122,cs),
(269,122,o),
(263,111,o),
(263,96,cs),
(263,33,o),
(313,-12,o),
(383,-12,cs)
);
}
);
width = 579;
}
);
metricLeft = f;
metricRight = s;
unicode = 223;
},
{
glyphname = t;
lastChange = "2024-11-11 17:30:14 +0000";
layers = (
{
anchors = (
{
name = bottom;
pos = (177,0);
},
{
name = center;
pos = (177,218);
},
{
name = top;
pos = (177,514);
},
{
name = topright;
pos = (334,700);
}
);
layerId = m01;
shapes = (
{
closed = 1;
nodes = (
(265,-12,o),
(324,24,o),
(345,74,c),
(325,90,l),
(303,63,o),
(267,44,o),
(237,44,cs),
(194,44,o),
(163,78,o),
(163,125,cs),
(163,377,l),
(321,377,l),
(321,435,l),
(167,435,l),
(167,502,l),
(153,514,l),
(115,463,o),
(62,418,o),
(24,405,c),
(24,377,l),
(81,377,l),
(84,278,o),
(81,179,o),
(81,82,cs),
(81,27,o),
(132,-12,o),
(202,-12,cs)
);
}
);
width = 354;
},
{
anchors = (
{
name = bottom;
pos = (183,0);
},
{
name = center;
pos = (183,223);
},
{
name = top;
pos = (183,524);
},
{
name = topright;
pos = (345,700);
}
);
layerId = m002;
shapes = (
{
closed = 1;
nodes = (
(268,-12,o),
(332,31,o),
(353,81,c),
(328,100,l),
(306,73,o),
(270,54,o),
(240,54,cs),
(197,54,o),
(165,88,o),
(165,135,cs),
(165,377,l),
(324,377,l),
(324,445,l),
(170,445,l),
(170,512,l),
(156,524,l),
(118,473,o),
(65,428,o),
(27,415,c),
(27,377,l),
(84,377,l),
(87,278,o),
(84,181,o),
(84,84,cs),
(84,29,o),
(135,-12,o),
(205,-12,cs)
);
}
);
width = 365;
},
{
anchors = (
{
name = bottom;
pos = (187,0);
},
{
name = center;
pos = (187,227);
},
{
name = top;
pos = (187,532);
},
{
name = topright;
pos = (353,700);
}
);
layerId = "CDB87FEA-4563-478E-BFE6-62102BA6A3F2";
shapes = (
{
closed = 1;
nodes = (
(270,-12,o),
(338,36,o),
(359,86,c),
(330,108,l),
(308,81,o),
(272,62,o),
(242,62,cs),
(199,62,o),
(167,96,o),
(167,143,cs),
(167,377,l),
(326,377,l),
(326,453,l),
(172,453,l),
(172,520,l),
(158,532,l),
(120,481,o),
(67,436,o),
(29,423,c),
(29,377,l),
(86,377,l),
(89,278,o),
(86,183,o),
(86,86,cs),
(86,31,o),
(137,-12,o),
(207,-12,cs)
);
}
);
width = 373;
},
{
anchors = (
{
name = bottom;
pos = (172,0);
},
{
name = center;
pos = (172,213);
},
{
name = top;
pos = (172,504);
},
{
name = topright;
pos = (323,700);
}
);
layerId = "574E12B0-2418-4D16-BF3A-251D49665871";
shapes = (
{
closed = 1;
nodes = (
(262,-12,o),
(316,17,o),
(337,67,c),
(322,80,l),
(300,53,o),
(264,34,o),
(234,34,cs),
(191,34,o),
(161,68,o),
(161,115,cs),
(161,377,l),
(318,377,l),
(318,425,l),
(164,425,l),
(164,492,l),
(150,504,l),
(112,453,o),
(59,408,o),
(21,395,c),
(21,377,l),
(78,377,l),
(81,278,o),
(78,177,o),
(78,80,cs),
(78,25,o),
(129,-12,o),
(199,-12,cs)
);
}
);
width = 343;
}
);
metricLeft = n;
unicode = 116;
},
{
glyphname = u;
lastChange = "2024-11-11 17:30:14 +0000";
layers = (
{
anchors = (
{
name = bottom;
pos = (277,0);
},
{
name = ogonek;
pos = (498,10);
},
{
name = top;
pos = (277,435);
},
{
name = topright;
pos = (533,435);
}
);
layerId = m01;
shapes = (
{
closed = 1;
nodes = (
(264,-14,o),
(348,21,o),
(414,78,c),
(407,107,l),
(355,68,o),
(298,45,o),
(270,45,cs),
(213,45,o),
(174,81,o),
(172,118,cs),
(167,224,o),
(167,329,o),
(172,435,c),
(12,435,l),
(12,407,l),
(20,407,o),
(24,407,o),
(36,407,cs),
(68,407,o),
(91,385,o),
(91,353,c),
(91,266,o),
(91,178,o),
(91,91,cs),
(91,35,o),
(141,-14,o),
(211,-14,cs)
);
},
{
closed = 1;
nodes = (
(539,17,l),
(534,44,l),
(517,40,o),
(493,38,o),
(476,38,cs),
(463,38,o),
(453,52,o),
(453,71,cs),
(453,90,o),
(453,354,o),
(453,372,c),
(457,423,l),
(450,435,l),
(264,435,l),
(264,407,l),
(278,407,o),
(293,407,o),
(306,407,cs),
(345,407,o),
(371,387,o),
(372,358,cs),
(377,259,o),
(377,160,o),
(372,61,c),
(368,0,l),
(374,-11,l)
);
}
);
width = 553;
},
{
anchors = (
{
name = bottom;
pos = (280,0);
},
{
name = ogonek;
pos = (503,10);
},
{
name = top;
pos = (280,445);
},
{
name = topright;
pos = (539,445);
}
);
layerId = m002;
shapes = (
{
closed = 1;
nodes = (
(267,-14,o),
(351,21,o),
(417,78,c),
(410,114,l),
(358,75,o),
(301,52,o),
(273,52,cs),
(216,52,o),
(179,91,o),
(177,128,cs),
(172,244,o),
(172,329,o),
(177,445,c),
(15,445,l),
(15,407,l),
(23,407,o),
(27,407,o),
(39,407,cs),
(71,407,o),
(94,385,o),
(94,353,c),
(94,266,o),
(94,178,o),
(94,91,cs),
(94,35,o),
(144,-14,o),
(214,-14,cs)
);
},
{
closed = 1;
nodes = (
(542,17,l),
(537,54,l),
(520,50,o),
(496,48,o),
(479,48,cs),
(466,48,o),
(456,62,o),
(456,81,cs),
(456,100,o),
(456,364,o),
(456,382,c),
(460,433,l),
(453,445,l),
(267,445,l),
(267,407,l),
(281,407,o),
(296,407,o),
(309,407,cs),
(348,407,o),
(371,387,o),
(372,358,cs),
(377,259,o),
(377,160,o),
(372,61,c),
(371,0,l),
(377,-11,l)
);
}
);
width = 559;
},
{
anchors = (
{
name = bottom;
pos = (282,0);
},
{
name = ogonek;
pos = (508,10);
},
{
name = top;
pos = (282,453);
},
{
name = topright;
pos = (544,453);
}
);
layerId = "CDB87FEA-4563-478E-BFE6-62102BA6A3F2";
shapes = (
{
closed = 1;
nodes = (
(269,-14,o),
(353,21,o),
(419,78,c),
(412,119,l),
(360,80,o),
(303,57,o),
(275,57,cs),
(218,57,o),
(183,99,o),
(181,136,cs),
(176,259,o),
(176,329,o),
(181,453,c),
(17,453,l),
(17,407,l),
(25,407,o),
(29,407,o),
(41,407,cs),
(73,407,o),
(96,385,o),
(96,353,cs),
(96,266,o),
(96,178,o),
(96,91,cs),
(96,35,o),
(146,-14,o),
(216,-14,cs)
);
},
{
closed = 1;
nodes = (
(544,17,l),
(539,62,l),
(522,58,o),
(498,56,o),
(481,56,cs),
(468,56,o),
(458,70,o),
(458,89,cs),
(458,108,o),
(458,372,o),
(458,390,cs),
(462,441,l),
(455,453,l),
(269,453,l),
(269,407,l),
(283,407,o),
(298,407,o),
(311,407,cs),
(350,407,o),
(371,387,o),
(372,358,cs),
(377,259,o),
(377,160,o),
(372,61,c),
(373,0,l),
(379,-11,l)
);
}
);
width = 564;
},
{
anchors = (
{
name = bottom;
pos = (274,0);
},
{
name = ogonek;
pos = (492,10);
},
{
name = top;
pos = (274,425);
},
{
name = topright;
pos = (527,425);
}
);
layerId = "574E12B0-2418-4D16-BF3A-251D49665871";
shapes = (
{
closed = 1;
nodes = (
(261,-14,o),
(345,21,o),
(411,78,c),
(404,100,l),
(352,61,o),
(295,38,o),
(267,38,cs),
(210,38,o),
(169,71,o),
(167,108,cs),
(162,204,o),
(162,329,o),
(167,425,c),
(9,425,l),
(9,407,l),
(17,407,o),
(21,407,o),
(33,407,cs),
(65,407,o),
(88,385,o),
(88,353,cs),
(88,266,o),
(88,178,o),
(88,91,cs),
(88,35,o),
(138,-14,o),
(208,-14,cs)
);
},
{
closed = 1;
nodes = (
(536,17,l),
(531,34,l),
(514,30,o),
(490,28,o),
(473,28,cs),
(460,28,o),
(450,42,o),
(450,61,cs),
(450,80,o),
(450,344,o),
(450,362,cs),
(454,413,l),
(447,425,l),
(261,425,l),
(261,407,l),
(275,407,o),
(290,407,o),
(303,407,cs),
(342,407,o),
(371,387,o),
(372,358,cs),
(377,259,o),
(377,160,o),
(372,61,c),
(365,0,l),
(371,-11,l)
);
}
);
width = 547;
}
);
unicode = 117;
},
{
glyphname = v;
lastChange = "2024-11-11 17:30:14 +0000";
layers = (
{
anchors = (
{
name = bottom;
pos = (252,0);
},
{
name = top;
pos = (252,435);
}
);
layerId = m01;
shapes = (
{
closed = 1;
nodes = (
(241,-15,l),
(292,115,o),
(379,323,o),
(395,365,cs),
(411,407,o),
(491,407,o),
(504,407,c),
(504,435,l),
(305,435,l),
(305,407,l),
(331,407,l),
(362,407,o),
(374,388,o),
(362,362,c),
(256,118,l),
(225,199,o),
(174,337,o),
(158,379,cs),
(146,411,o),
(184,407,o),
(198,407,cs),
(233,407,l),
(233,435,l),
(0,435,l),
(0,407,l),
(5,407,o),
(20,407,o),
(25,407,cs),
(30,407,o),
(62,405,o),
(76,364,c),
(131,239,o),
(183,112,o),
(230,-15,c)
);
}
);
width = 504;
},
{
anchors = (
{
name = bottom;
pos = (255,0);
},
{
name = top;
pos = (255,445);
}
);
layerId = m002;
shapes = (
{
closed = 1;
nodes = (
(244,-15,l),
(295,115,o),
(382,323,o),
(398,365,cs),
(414,407,o),
(494,407,o),
(507,407,c),
(507,445,l),
(308,445,l),
(308,407,l),
(334,407,l),
(356,407,o),
(368,392,o),
(358,372,c),
(261,135,l),
(230,216,o),
(176,335,o),
(160,377,cs),
(148,409,o),
(187,407,o),
(201,407,cs),
(236,407,l),
(236,445,l),
(3,445,l),
(3,407,l),
(8,407,o),
(23,407,o),
(28,407,cs),
(33,407,o),
(65,405,o),
(79,364,c),
(134,239,o),
(186,112,o),
(233,-15,c)
);
}
);
width = 510;
},
{
anchors = (
{
name = bottom;
pos = (258,0);
},
{
name = top;
pos = (258,453);
}
);
layerId = "CDB87FEA-4563-478E-BFE6-62102BA6A3F2";
shapes = (
{
closed = 1;
nodes = (
(246,-15,l),
(297,115,o),
(384,323,o),
(400,365,cs),
(416,407,o),
(496,407,o),
(509,407,c),
(509,453,l),
(310,453,l),
(310,407,l),
(336,407,ls),
(352,407,o),
(364,395,o),
(355,380,c),
(265,148,l),
(234,229,o),
(178,334,o),
(162,376,cs),
(150,408,o),
(189,407,o),
(203,407,cs),
(238,407,l),
(238,453,l),
(5,453,l),
(5,407,l),
(10,407,o),
(25,407,o),
(30,407,cs),
(35,407,o),
(67,405,o),
(81,364,c),
(136,239,o),
(188,112,o),
(235,-15,c)
);
}
);
width = 515;
},
{
anchors = (
{
name = bottom;
pos = (249,0);
},
{
name = top;
pos = (249,425);
}
);
layerId = "574E12B0-2418-4D16-BF3A-251D49665871";
shapes = (
{
closed = 1;
nodes = (
(238,-15,l),
(289,115,o),
(376,323,o),
(392,365,cs),
(408,407,o),
(488,407,o),
(501,407,c),
(501,425,l),
(302,425,l),
(302,407,l),
(328,407,ls),
(368,407,o),
(380,384,o),
(366,352,cs),
(251,101,l),
(220,182,o),
(172,339,o),
(156,381,cs),
(144,413,o),
(181,407,o),
(195,407,cs),
(230,407,l),
(230,425,l),
(-3,425,l),
(-3,407,l),
(2,407,o),
(17,407,o),
(22,407,cs),
(27,407,o),
(59,405,o),
(73,364,c),
(128,239,o),
(180,112,o),
(227,-15,c)
);
}
);
width = 498;
}
);
unicode = 118;
},
{
glyphname = w;
lastChange = "2024-11-11 17:30:14 +0000";
layers = (
{
anchors = (
{
name = bottom;
pos = (380,0);
},
{
name = top;
pos = (380,435);
}
);
layerId = m01;
shapes = (
{
closed = 1;
nodes = (
(261,-15,l),
(312,115,o),
(379,323,o),
(395,365,cs),
(411,407,o),
(471,407,o),
(484,407,c),
(484,435,l),
(305,435,l),
(305,407,l),
(310,407,o),
(324,407,o),
(331,407,c),
(350,407,o),
(381,420,o),
(362,362,cs),
(282,118,l),
(164,379,l),
(152,411,o),
(184,407,o),
(198,407,cs),
(233,407,l),
(233,435,l),
(0,435,l),
(0,407,l),
(5,407,o),
(20,407,o),
(25,407,cs),
(30,407,o),
(62,405,o),
(76,364,c),
(245,-15,l)
);
},
{
closed = 1;
nodes = (
(487,-15,l),
(538,115,o),
(635,323,o),
(651,365,cs),
(667,407,o),
(747,407,o),
(760,407,c),
(760,435,l),
(561,435,l),
(561,407,l),
(566,407,o),
(580,407,o),
(587,407,c),
(617,407,o),
(630,388,o),
(618,362,cs),
(508,118,l),
(420,379,l),
(408,411,o),
(440,407,o),
(454,407,cs),
(489,407,l),
(489,435,l),
(291,435,l),
(291,407,l),
(296,407,o),
(301,407,o),
(306,407,cs),
(311,407,o),
(323,405,o),
(337,364,c),
(471,-15,l)
);
}
);
width = 760;
},
{
anchors = (
{
name = bottom;
pos = (383,0);
},
{
name = top;
pos = (383,445);
}
);
layerId = m002;
shapes = (
{
closed = 1;
nodes = (
(264,-15,l),
(315,115,o),
(382,323,o),
(398,365,cs),
(414,407,o),
(474,407,o),
(487,407,c),
(487,445,l),
(308,445,l),
(308,407,l),
(313,407,o),
(327,407,o),
(334,407,c),
(353,407,o),
(378,430,o),
(358,372,cs),
(273,124,l),
(162,375,l),
(150,407,o),
(187,407,o),
(201,407,cs),
(236,407,l),
(236,445,l),
(3,445,l),
(3,407,l),
(8,407,o),
(23,407,o),
(28,407,cs),
(33,407,o),
(65,405,o),
(79,364,c),
(248,-15,l)
);
},
{
closed = 1;
nodes = (
(490,-15,l),
(541,115,o),
(638,323,o),
(654,365,cs),
(670,407,o),
(750,407,o),
(763,407,c),
(763,445,l),
(564,445,l),
(564,407,l),
(569,407,o),
(583,407,o),
(590,407,c),
(612,407,o),
(623,392,o),
(614,372,cs),
(506,128,l),
(423,379,l),
(411,411,o),
(443,407,o),
(457,407,cs),
(492,407,l),
(492,445,l),
(289,445,l),
(289,407,l),
(294,407,o),
(306,407,o),
(311,407,cs),
(316,407,o),
(328,405,o),
(342,364,c),
(474,-15,l)
);
}
);
width = 766;
},
{
anchors = (
{
name = bottom;
pos = (386,0);
},
{
name = top;
pos = (386,453);
}
);
layerId = "CDB87FEA-4563-478E-BFE6-62102BA6A3F2";
shapes = (
{
closed = 1;
nodes = (
(266,-15,l),
(317,115,o),
(384,323,o),
(400,365,cs),
(416,407,o),
(476,407,o),
(489,407,c),
(489,453,l),
(310,453,l),
(310,407,l),
(315,407,o),
(329,407,o),
(336,407,cs),
(355,407,o),
(376,438,o),
(355,380,cs),
(266,129,l),
(161,372,l),
(149,404,o),
(189,407,o),
(203,407,cs),
(238,407,l),
(238,453,l),
(5,453,l),
(5,407,l),
(10,407,o),
(25,407,o),
(30,407,cs),
(35,407,o),
(67,405,o),
(81,364,c),
(250,-15,l)
);
},
{
closed = 1;
nodes = (
(492,-15,l),
(543,115,o),
(640,323,o),
(656,365,cs),
(672,407,o),
(752,407,o),
(765,407,c),
(765,453,l),
(566,453,l),
(566,407,l),
(571,407,o),
(585,407,o),
(592,407,cs),
(608,407,o),
(618,395,o),
(611,380,cs),
(505,136,l),
(425,379,ls),
(413,411,o),
(445,407,o),
(459,407,cs),
(494,407,l),
(494,453,l),
(288,453,l),
(288,407,l),
(293,407,o),
(310,407,o),
(315,407,cs),
(320,407,o),
(332,405,o),
(346,364,cs),
(476,-15,l)
);
}
);
width = 771;
},
{
anchors = (
{
name = bottom;
pos = (377,0);
},
{
name = top;
pos = (377,425);
}
);
layerId = "574E12B0-2418-4D16-BF3A-251D49665871";
shapes = (
{
closed = 1;
nodes = (
(258,-15,l),
(309,115,o),
(376,323,o),
(392,365,cs),
(408,407,o),
(468,407,o),
(481,407,c),
(481,425,l),
(302,425,l),
(302,407,l),
(307,407,o),
(321,407,o),
(328,407,cs),
(347,407,o),
(384,410,o),
(366,352,cs),
(291,112,l),
(166,383,l),
(154,415,o),
(181,407,o),
(195,407,cs),
(230,407,l),
(230,425,l),
(-3,425,l),
(-3,407,l),
(2,407,o),
(17,407,o),
(22,407,cs),
(27,407,o),
(59,405,o),
(73,364,c),
(242,-15,l)
);
},
{
closed = 1;
nodes = (
(484,-15,l),
(535,115,o),
(632,323,o),
(648,365,cs),
(664,407,o),
(744,407,o),
(757,407,c),
(757,425,l),
(558,425,l),
(558,407,l),
(563,407,o),
(577,407,o),
(584,407,cs),
(622,407,o),
(637,384,o),
(622,352,cs),
(510,108,l),
(417,379,ls),
(405,411,o),
(437,407,o),
(451,407,cs),
(486,407,l),
(486,425,l),
(293,425,l),
(293,407,l),
(298,407,o),
(296,407,o),
(301,407,cs),
(306,407,o),
(318,405,o),
(332,364,cs),
(468,-15,l)
);
}
);
width = 754;
}
);
unicode = 119;
},
{
glyphname = x;
lastChange = "2024-11-11 17:30:14 +0000";
layers = (
{
anchors = (
{
name = bottom;
pos = (252,0);
},
{
name = top;
pos = (252,435);
}
);
layerId = m01;
shapes = (
{
closed = 1;
nodes = (
(304,216,l),
(164,379,ls),
(141,406,o),
(184,407,o),
(198,407,cs),
(233,407,l),
(233,435,l),
(0,435,l),
(0,407,l),
(5,407,o),
(20,407,o),
(25,407,cs),
(30,407,o),
(47,396,o),
(76,364,cs),
(210,216,l)
);
},
{
closed = 1;
nodes = (
(199,0,l),
(199,28,l),
(194,28,o),
(190,28,o),
(183,28,c),
(164,28,o),
(113,26,o),
(152,73,cs),
(270,217,l),
(228,217,l),
(109,70,ls),
(81,35,o),
(13,28,o),
(0,28,c),
(0,0,l)
);
},
{
closed = 1;
nodes = (
(504,0,l),
(504,28,l),
(499,28,o),
(484,28,o),
(479,28,cs),
(474,28,o),
(456,38,o),
(428,71,cs),
(304,216,l),
(210,216,l),
(340,56,ls),
(362,29,o),
(320,28,o),
(306,28,cs),
(271,28,l),
(271,0,l)
);
},
{
closed = 1;
nodes = (
(279,222,l),
(395,365,ls),
(423,400,o),
(491,407,o),
(504,407,c),
(504,435,l),
(305,435,l),
(305,407,l),
(310,407,o),
(314,407,o),
(321,407,c),
(340,407,o),
(390,409,o),
(352,362,cs),
(237,222,l)
);
}
);
width = 504;
},
{
anchors = (
{
name = bottom;
pos = (255,0);
},
{
name = top;
pos = (255,445);
}
);
layerId = m002;
shapes = (
{
closed = 1;
nodes = (
(307,221,l),
(167,379,ls),
(144,405,o),
(187,407,o),
(201,407,cs),
(236,407,l),
(236,445,l),
(3,445,l),
(3,407,l),
(8,407,o),
(23,407,o),
(28,407,cs),
(33,407,o),
(50,395,o),
(79,364,cs),
(213,221,l)
);
},
{
closed = 1;
nodes = (
(202,0,l),
(202,38,l),
(197,38,o),
(193,38,o),
(186,38,c),
(167,38,o),
(116,37,o),
(155,83,cs),
(273,222,l),
(221,222,l),
(102,80,ls),
(73,46,o),
(16,38,o),
(3,38,c),
(3,0,l)
);
},
{
closed = 1;
nodes = (
(507,0,l),
(507,38,l),
(502,38,o),
(487,38,o),
(482,38,cs),
(477,38,o),
(460,49,o),
(431,81,cs),
(307,221,l),
(213,221,l),
(343,66,ls),
(365,40,o),
(323,38,o),
(309,38,cs),
(274,38,l),
(274,0,l)
);
},
{
closed = 1;
nodes = (
(287,227,l),
(408,365,ls),
(437,398,o),
(494,407,o),
(507,407,c),
(507,445,l),
(308,445,l),
(308,407,l),
(313,407,o),
(317,407,o),
(324,407,c),
(343,407,o),
(395,407,o),
(355,362,cs),
(235,227,l)
);
}
);
width = 510;
},
{
anchors = (
{
name = bottom;
pos = (258,0);
},
{
name = top;
pos = (258,453);
}
);
layerId = "CDB87FEA-4563-478E-BFE6-62102BA6A3F2";
shapes = (
{
closed = 1;
nodes = (
(309,225,l),
(169,379,ls),
(146,404,o),
(189,407,o),
(203,407,cs),
(238,407,l),
(238,453,l),
(5,453,l),
(5,407,l),
(10,407,o),
(25,407,o),
(30,407,cs),
(35,407,o),
(52,394,o),
(81,364,cs),
(215,225,l)
);
},
{
closed = 1;
nodes = (
(204,0,l),
(204,46,l),
(199,46,o),
(195,46,o),
(188,46,cs),
(169,46,o),
(118,45,o),
(157,91,cs),
(275,226,l),
(216,226,l),
(97,88,ls),
(67,54,o),
(18,46,o),
(5,46,c),
(5,0,l)
);
},
{
closed = 1;
nodes = (
(509,0,l),
(509,46,l),
(504,46,o),
(489,46,o),
(484,46,cs),
(479,46,o),
(463,57,o),
(433,89,cs),
(309,225,l),
(215,225,l),
(345,74,ls),
(367,48,o),
(325,46,o),
(311,46,cs),
(276,46,l),
(276,0,l)
);
},
{
closed = 1;
nodes = (
(293,231,l),
(418,365,ls),
(448,397,o),
(496,407,o),
(509,407,c),
(509,453,l),
(310,453,l),
(310,407,l),
(315,407,o),
(319,407,o),
(326,407,cs),
(345,407,o),
(399,406,o),
(357,362,cs),
(234,231,l)
);
}
);
width = 515;
},
{
anchors = (
{
name = bottom;
pos = (249,0);
},
{
name = top;
pos = (249,425);
}
);
layerId = "574E12B0-2418-4D16-BF3A-251D49665871";
shapes = (
{
closed = 1;
nodes = (
(301,211,l),
(161,379,ls),
(138,407,o),
(181,407,o),
(195,407,cs),
(230,407,l),
(230,425,l),
(-3,425,l),
(-3,407,l),
(2,407,o),
(17,407,o),
(22,407,cs),
(27,407,o),
(44,397,o),
(73,364,cs),
(207,211,l)
);
},
{
closed = 1;
nodes = (
(196,0,l),
(196,18,l),
(191,18,o),
(187,18,o),
(180,18,cs),
(161,18,o),
(110,15,o),
(149,63,cs),
(267,212,l),
(235,212,l),
(116,60,ls),
(89,24,o),
(10,18,o),
(-3,18,c),
(-3,0,l)
);
},
{
closed = 1;
nodes = (
(501,0,l),
(501,18,l),
(496,18,o),
(481,18,o),
(476,18,cs),
(471,18,o),
(452,27,o),
(425,61,cs),
(301,211,l),
(207,211,l),
(337,46,ls),
(359,18,o),
(317,18,o),
(303,18,cs),
(268,18,l),
(268,0,l)
);
},
{
closed = 1;
nodes = (
(271,217,l),
(382,365,ls),
(409,402,o),
(488,407,o),
(501,407,c),
(501,425,l),
(302,425,l),
(302,407,l),
(307,407,o),
(311,407,o),
(318,407,cs),
(337,407,o),
(385,411,o),
(349,362,cs),
(239,217,l)
);
}
);
width = 498;
}
);
unicode = 120;
},
